{
.appVersion = "3192";
.formatVersion = 3;
customParameters = (
{
name = blueFuzz;
value = 1;
},
{
name = blueScale;
value = 0.0396;
},
{
name = blueShift;
value = 7;
},
{
name = "Use Typo Metrics";
value = 1;
},
{
name = fsType;
value = (
);
}
);
date = "2014-01-19 15:47:16 +0000";
familyName = Michroma;
featurePrefixes = (
{
automatic = 1;
code = "languagesystem DFLT dflt;

languagesystem latn dflt;
languagesystem latn AZE;
languagesystem latn CRT;
languagesystem latn KAZ;
languagesystem latn TAT;
languagesystem latn TRK;
languagesystem latn ROM;
languagesystem latn MOL;
languagesystem latn CAT;
";
name = Languagesystems;
},
{
code = "# GPOS 
lookup kernHorizontalKerninginLatinloo {
  lookupflag 0;
    pos \\T \\A -512;
    pos \\b \\x -96;
    pos \\b \\w -64;
    pos \\e \\x -96;
    pos \\e \\w -64;
    pos \\o \\x -96;
    pos \\o \\w -64;
    pos \\p \\x -96;
    pos \\p \\w -64;
  subtable;
    pos \\C \\q -64;
    pos \\C \\o -64;
    pos \\C \\g -64;
    pos \\C \\e -64;
    pos \\C \\d -64;
    pos \\C \\c -64;
    pos \\C \\a -64;
    pos \\W \\q -256;
    pos \\W \\o -256;
    pos \\W \\g -256;
    pos \\W \\e -256;
    pos \\W \\d -256;
    pos \\W \\c -256;
    pos \\W \\a -256;
    pos \\X \\q -128;
    pos \\X \\o -128;
    pos \\X \\g -128;
    pos \\X \\e -128;
    pos \\X \\d -128;
    pos \\X \\c -128;
    pos \\X \\a -128;
    pos \\k \\q -96;
    pos \\k \\o -96;
    pos \\k \\g -96;
    pos \\k \\e -96;
    pos \\k \\d -96;
    pos \\k \\c -96;
    pos \\k \\a -96;
    pos \\m \\y -64;
    pos \\m \\w -64;
    pos \\m \\v -64;
    pos \\t \\q -64;
    pos \\t \\o -64;
    pos \\t \\g -64;
    pos \\t \\e -64;
    pos \\t \\d -64;
    pos \\t \\c -64;
    pos \\t \\a -64;
    pos \\v \\q -64;
    pos \\v \\o -64;
    pos \\v \\g -64;
    pos \\v \\e -64;
    pos \\v \\d -64;
    pos \\v \\c -64;
    pos \\v \\a -64;
    pos \\w \\q -64;
    pos \\w \\o -64;
    pos \\w \\g -64;
    pos \\w \\e -64;
    pos \\w \\d -64;
    pos \\w \\c -64;

glyphs = (
{
glyphname = A;
lastChange = "2023-04-26 14:46:50 +0000";
layers = (
{
anchors = (
{
name = bottom;
pos = (1088,0);
},
{
name = ogonek;
pos = (2082,21);
},
{
name = top;
pos = (1088,1536);
}
);
background = {
shapes = (
{
closed = 1;
nodes = (
(480,352,l),
(288,0,l),
(64,0,l),
(960,1536,l),
(1216,1536,l),
(2112,0,l),
(1888,0,l),
(1696,352,l)
);
},
{
closed = 1;
nodes = (
(1088,1408,l),
(576,512,l),
(1600,512,l)
);
}
);
};
layerId = "3D86ED3E-BC30-4996-8F23-7FA448982149";
shapes = (
{
closed = 1;
nodes = (
(288,0,l),
(480,352,l),
(1696,352,l),
(1888,0,l),
(2112,0,l),
(1216,1536,l),
(960,1536,l),
(64,0,l)
);
},
{
closed = 1;
nodes = (
(1088,1408,l),
(1600,512,l),
(576,512,l)
);
}
);
width = 2176;
}
);
unicode = 65;
},
{
glyphname = Aacute;
lastChange = "2023-04-26 14:41:37 +0000";
layers = (
{
background = {
shapes = (
{
closed = 1;
nodes = (
(480,352,l),
(288,0,l),
(64,0,l),
(960,1536,l),
(1216,1536,l),
(2112,0,l),
(1888,0,l),
(1696,352,l)
);
},
{
closed = 1;
nodes = (
(1088,1408,l),
(576,512,l),
(1600,512,l)
);
},
{
closed = 1;
nodes = (
(864,1728,l),
(800,1824,l),
(1376,2304,l),
(1504,2112,l)
);
}
);
};
layerId = "3D86ED3E-BC30-4996-8F23-7FA448982149";
shapes = (
{
ref = A;
},
{
pos = (672,384);
ref = acutecomb;
}
);
width = 2176;
}
);
unicode = 193;
},
{
glyphname = Abreve;
lastChange = "2023-04-26 14:42:48 +0000";
layers = (
{
background = {
shapes = (
{
closed = 1;
nodes = (
(480,352,l),
(288,0,l),
(64,0,l),
(960,1536,l),
(1216,1536,l),
(2112,0,l),
(1888,0,l),
(1696,352,l)
);
},
{
closed = 1;
nodes = (
(1088,1408,l),
(576,512,l),
(1600,512,l)
);
},
{
closed = 1;
nodes = (
(864,2010,l),
(864,1924,o),
(887,1867,o),
(933,1839,cs),
(956,1825,o),
(1008,1818,o),
(1088,1818,cs),
(1168,1818,o),
(1221,1826,o),
(1248,1842,cs),
(1291,1868,o),
(1312,1924,o),
(1312,2010,c),
(1472,2010,l),
(1472,1774,o),
(1331,1690,o),
(1088,1690,cs),
(845,1690,o),
(704,1774,o),
(704,2010,c)
);
}
);
};
layerId = "3D86ED3E-BC30-4996-8F23-7FA448982149";
shapes = (
{
ref = A;
},
{
pos = (448,384);
ref = brevecomb;
}
);
width = 2176;
}
);
unicode = 258;
},
{
glyphname = Acaron;
lastChange = "2023-04-26 14:42:36 +0000";
layers = (
{
background = {
shapes = (
{
closed = 1;
nodes = (
(480,352,l),
(288,0,l),
(64,0,l),
(960,1536,l),
(1216,1536,l),
(2112,0,l),
(1888,0,l),
(1696,352,l)
);
},
{
closed = 1;
nodes = (
(1088,1408,l),
(576,512,l),
(1600,512,l)
);
},
{
closed = 1;
nodes = (
(1440,2266,l),
(1568,2170,l),
(1248,1690,l),
(1056,1690,l),
(736,2170,l),
(864,2266,l),
(1152,1818,l)
);
}
);
};
layerId = "3D86ED3E-BC30-4996-8F23-7FA448982149";
shapes = (
{
ref = A;
},
{
pos = (544,384);
ref = caroncomb;
}
);
width = 2176;
}
);
unicode = 461;
},
{
glyphname = Acircumflex;
lastChange = "2023-04-26 14:42:14 +0000";
layers = (
{
background = {
shapes = (
{
closed = 1;
nodes = (
(480,352,l),
(288,0,l),
(64,0,l),
(960,1536,l),
(1216,1536,l),
(2112,0,l),
(1888,0,l),
(1696,352,l)
);
},
{
closed = 1;
nodes = (
(1088,1408,l),
(576,512,l),
(1600,512,l)
);
},
{
closed = 1;
nodes = (
(1152,2176,l),
(864,1728,l),
(736,1824,l),
(1056,2304,l),
(1248,2304,l),
(1568,1824,l),
(1440,1728,l)
);
}
);
};
layerId = "3D86ED3E-BC30-4996-8F23-7FA448982149";
shapes = (
{
ref = A;
},
{
pos = (544,384);
ref = circumflexcomb;
}
);
width = 2176;
}
);
unicode = 194;
},
{
glyphname = Adblgrave;
lastChange = "2023-04-26 14:02:46 +0000";
layers = (
{
background = {
shapes = (
{
closed = 1;
nodes = (
(480,352,l),
(288,0,l),
(64,0,l),
(960,1536,l),
(1216,1536,l),
(2112,0,l),
(1888,0,l),
(1696,352,l)
);
},
{
closed = 1;
nodes = (
(1088,1408,l),
(576,512,l),
(1600,512,l)
);
}
);
};
layerId = "3D86ED3E-BC30-4996-8F23-7FA448982149";
shapes = (
{
ref = A;
}
);
width = 2176;
}
);
unicode = 512;
},
{
glyphname = Adieresis;
lastChange = "2023-04-26 14:40:05 +0000";
layers = (
{
background = {
shapes = (
{
closed = 1;
nodes = (
(480,352,l),
(288,0,l),
(64,0,l),
(960,1536,l),
(1216,1536,l),
(2112,0,l),
(1888,0,l),
(1696,352,l)
);
},
{
closed = 1;
nodes = (
(1088,1408,l),
(576,512,l),
(1600,512,l)
);
},
{
closed = 1;
nodes = (
(864,1792,l),
(672,1792,l),
(672,1984,l),
(864,1984,l)
);
},
{
closed = 1;
nodes = (
(1632,1792,l),
(1440,1792,l),
(1440,1984,l),
(1632,1984,l)
);
}
);
};
layerId = "3D86ED3E-BC30-4996-8F23-7FA448982149";
shapes = (
{
ref = A;
},
{
pos = (544,384);
ref = dieresiscomb;
}
);
width = 2176;
}
);
unicode = 196;
},
{
glyphname = Adotaccent;
lastChange = "2023-05-03 13:43:43 +0000";
layers = (
{
background = {
shapes = (
{
closed = 1;
nodes = (
(480,352,l),
(288,0,l),
(64,0,l),
(960,1536,l),
(1216,1536,l),
(2112,0,l),
(1888,0,l),
(1696,352,l)
);
},
{
closed = 1;
nodes = (
(1088,1408,l),
(576,512,l),
(1600,512,l)
);
},
{
closed = 1;
nodes = (
(1248,1690,l),
(1056,1690,l),
(1056,1882,l),
(1248,1882,l)
);
}
);
};
layerId = "3D86ED3E-BC30-4996-8F23-7FA448982149";
shapes = (
{
ref = A;
},
{
pos = (864,384);
ref = dotaccentcomb;
}
);
width = 2176;
}
);
unicode = 550;
},
{
glyphname = Agrave;
lastChange = "2023-04-26 14:40:59 +0000";
layers = (
{
background = {
shapes = (
{
closed = 1;
nodes = (
(480,352,l),
(288,0,l),
(64,0,l),
(960,1536,l),
(1216,1536,l),
(2112,0,l),
(1888,0,l),
(1696,352,l)
);
},
{
closed = 1;
nodes = (
(1088,1408,l),
(576,512,l),
(1600,512,l)
);
},
{
closed = 1;
nodes = (
(928,2304,l),
(1504,1824,l),
(1440,1728,l),
(800,2112,l)
);
}
);
};
layerId = "3D86ED3E-BC30-4996-8F23-7FA448982149";
shapes = (
{
ref = A;
},
{
pos = (670,444);
ref = gravecomb;
}
);
width = 2176;
}
);
unicode = 192;
},
{
glyphname = Ainvertedbreve;
lastChange = "2023-05-03 13:29:42 +0000";
layers = (
{
background = {
shapes = (
{
closed = 1;
nodes = (
(768,1925,o),
(909,2010,o),
(1152,2010,cs),
(1395,2010,o),
(1536,1926,o),
(1536,1690,c),
(1376,1690,l),
(1376,1776,o),
(1355,1832,o),
(1312,1858,cs),
(1285,1874,o),
(1232,1882,o),
(1152,1882,cs),
(1072,1882,o),
(1020,1875,o),
(997,1861,cs),
(951,1833,o),
(928,1776,o),
(928,1690,c),
(768,1690,l)
);
},
{
closed = 1;
nodes = (
(544,352,l),
(352,0,l),
(128,0,l),
(1024,1536,l),
(1280,1536,l),
(2176,0,l),
(1952,0,l),
(1760,352,l)
);
},
{
closed = 1;
nodes = (
(1152,1408,l),
(640,512,l),
(1664,512,l)
);
}
);
};
layerId = "3D86ED3E-BC30-4996-8F23-7FA448982149";
shapes = (
{
ref = A;
},
{
pos = (448,384);
ref = breveinvertedcomb;
}
);
width = 2176;
}
);
unicode = 514;
},
{
glyphname = Amacron;
lastChange = "2023-04-26 14:44:09 +0000";
layers = (
{
background = {
shapes = (
{
closed = 1;
nodes = (
(480,352,l),
(288,0,l),
(64,0,l),
(960,1536,l),
(1216,1536,l),
(2112,0,l),
(1888,0,l),
(1696,352,l)
);
},
{
closed = 1;
nodes = (
(1088,1408,l),
(576,512,l),
(1600,512,l)
);
},
{
closed = 1;
nodes = (
(768,1850,l),
(1536,1850,l),
(1536,1690,l),
(768,1690,l)
);
}
);
};
layerId = "3D86ED3E-BC30-4996-8F23-7FA448982149";
shapes = (
{
ref = A;
},
{
pos = (576,384);
ref = macroncomb;
}
);
width = 2176;
}
);
unicode = 256;
},
{
glyphname = Aogonek;
lastChange = "2023-04-26 14:45:01 +0000";
layers = (
{
background = {
shapes = (
{
closed = 1;
nodes = (
(480,352,l),
(288,0,l),
(64,0,l),
(960,1536,l),
(1216,1536,l),
(2112,0,l),
(1888,0,l),
(1696,352,l)
);
},
{
closed = 1;
nodes = (
(1088,1408,l),
(576,512,l),
(1600,512,l)
);
},
{
closed = 1;
nodes = (
(1890,-373,o),
(1968,-395,o),
(2082,-395,c),
(2082,-555,l),
(1909,-555,o),
(1792,-510,o),
(1731,-420,cs),
(1709,-387,o),
(1698,-353,o),
(1698,-317,cs),
(1698,-247,o),
(1712,-210,o),
(1738,-168,cs),
(1783,-96,o),
(1855,-33,o),
(1954,21,c),
(2082,21,l),
(1954,-64,o),
(1890,-160,o),
(1890,-267,cs)
);
}
);
};
layerId = "3D86ED3E-BC30-4996-8F23-7FA448982149";
shapes = (
{
ref = A;
},
{
pos = (1570,-43);
ref = ogonekcomb;
}
);
width = 2176;
}
);
unicode = 260;
},
{
glyphname = Aring;
lastChange = "2023-04-26 14:43:16 +0000";
layers = (
{
background = {
shapes = (
{
closed = 1;
nodes = (
(480,352,l),
(288,0,l),
(64,0,l),
(960,1536,l),
(1216,1536,l),
(2112,0,l),
(1888,0,l),
(1696,352,l)
);
},
{
closed = 1;
nodes = (
(1088,1408,l),
(576,512,l),
(1600,512,l)
);
},
{
closed = 1;
nodes = (
(1504,1843,o),
(1361,1728,o),
(1152,1728,cs),
(931,1728,o),
(800,1851,o),
(800,2048,cs),
(800,2253,o),
(943,2368,o),
(1152,2368,cs),
(1373,2368,o),
(1504,2245,o),
(1504,2048,cs)
);
},
{
closed = 1;
nodes = (
(1079,2240,o),
(1024,2216,o),
(988,2170,cs),
(969,2146,o),
(960,2105,o),
(960,2048,cs),
(960,1920,o),
(1018,1856,o),
(1152,1856,cs),
(1225,1856,o),
(1280,1880,o),
(1316,1926,cs),
(1335,1950,o),
(1344,1991,o),
(1344,2048,cs),
(1344,2176,o),
(1286,2240,o),
(1152,2240,cs)
);
}
);
};
layerId = "3D86ED3E-BC30-4996-8F23-7FA448982149";
shapes = (
{
ref = A;
},
{
pos = (448,384);
ref = ringcomb;
}
);
width = 2176;
}
);
unicode = 197;
},
{
glyphname = Aringacute;
lastChange = "2023-04-26 15:02:22 +0000";
layers = (
{
background = {
shapes = (
{
closed = 1;
nodes = (
(480,352,l),
(288,0,l),
(64,0,l),
(960,1536,l),
(1216,1536,l),
(2112,0,l),
(1888,0,l),
(1696,352,l)
);
},
{
closed = 1;
nodes = (
(1088,1408,l),
(576,512,l),
(1600,512,l)
);
},
{
closed = 1;
nodes = (
(1152,2490,l),
(1088,2586,l),
(1664,3066,l),
(1792,2874,l)
);
},
{
closed = 1;
nodes = (
(1504,1843,o),
(1361,1728,o),
(1152,1728,cs),
(931,1728,o),
(800,1851,o),
(800,2048,cs),
(800,2253,o),
(943,2368,o),
(1152,2368,cs),
(1373,2368,o),
(1504,2245,o),
(1504,2048,cs)
);
},
{
closed = 1;
nodes = (
(1079,2240,o),
(1024,2216,o),
(988,2170,cs),
(969,2146,o),
(960,2105,o),
(960,2048,cs),
(960,1920,o),
(1018,1856,o),
(1152,1856,cs),
(1225,1856,o),
(1280,1880,o),
(1316,1926,cs),
(1335,1950,o),
(1344,1991,o),
(1344,2048,cs),
(1344,2176,o),
(1286,2240,o),
(1152,2240,cs)
);
}
);
};
layerId = "3D86ED3E-BC30-4996-8F23-7FA448982149";
shapes = (
{
ref = A;
},
{
pos = (448,384);
ref = ringcomb;
},
{
pos = (672,1122);
ref = acutecomb;
}
);
width = 2176;
}
);
unicode = 506;
},
{
glyphname = Atilde;
lastChange = "2023-04-26 14:43:40 +0000";
layers = (
{
background = {
shapes = (
{
closed = 1;
nodes = (
(480,352,l),
(288,0,l),
(64,0,l),
(960,1536,l),
(1216,1536,l),
(2112,0,l),
(1888,0,l),
(1696,352,l)
);
},
{
closed = 1;
nodes = (
(1088,1408,l),
(576,512,l),
(1600,512,l)
);
},
{
closed = 1;
nodes = (
(704,1792,l),
(704,1957,o),
(814,2049,o),
(960,2049,cs),
(1031,2049,o),
(1104,2032,o),
(1179,2000,cs),
(1223,1981,o),
(1277,1952,o),
(1330,1952,cs),
(1394,1952,o),
(1408,1969,o),
(1408,2048,c),
(1600,2048,l),
(1600,1960,o),
(1569,1892,o),
(1508,1846,cs),
(1460,1810,o),
(1405,1792,o),
(1344,1792,cs),
(1274,1792,o),
(1201,1808,o),
(1125,1840,cs),
(1081,1859,o),
(1027,1888,o),
(974,1888,cs),
(906,1888,o),
(896,1870,o),
(896,1792,c)
);
}
);
};
layerId = "3D86ED3E-BC30-4996-8F23-7FA448982149";
shapes = (
{
ref = A;
},
{
pos = (512,384);
ref = tildecomb;
}
);
width = 2176;
}
);
unicode = 195;
},
{
glyphname = AE;
lastChange = "2023-04-26 15:02:42 +0000";
layers = (
{
anchors = (
{
name = bottom;
pos = (1536,0);
},
{
name = top;
pos = (2246,1536);
}
);
background = {
shapes = (
{
closed = 1;
nodes = (
(1472,352,l),
(582,352,l),
(256,0,l),
(0,0,l),
(1408,1536,l),
(2944,1536,l),
(2944,1376,l),
(1664,1376,l),
(1664,864,l),
(2880,864,l),
(2880,704,l),
(1664,704,l),
(1664,160,l),
(2944,160,l),
(2944,0,l),
(1472,0,l)
);
},
{
closed = 1;
nodes = (
(1472,1376,l),
(704,512,l),
(1472,512,l)
);
}
);
};
layerId = "3D86ED3E-BC30-4996-8F23-7FA448982149";
shapes = (
{
closed = 1;
nodes = (
(256,0,l),
(582,352,l),
(1472,352,l),
(1472,0,l),
(2944,0,l),
(2944,160,l),
(1664,160,l),
(1664,704,l),
(2880,704,l),
(2880,864,l),
(1664,864,l),
(1664,1376,l),
(2944,1376,l),
(2944,1536,l),
(1408,1536,l),
(0,0,l)
);
},
{
closed = 1;
nodes = (
(1472,1376,l),
(1472,512,l),
(704,512,l)
);
}
);
width = 3072;
}
);
unicode = 198;
},
{
glyphname = AEacute;
lastChange = "2023-04-26 15:02:42 +0000";
layers = (
{
background = {
shapes = (
{
closed = 1;
nodes = (
(1472,352,l),
(582,352,l),
(256,0,l),
(0,0,l),
(1408,1536,l),
(2944,1536,l),
(2944,1376,l),
(1664,1376,l),
(1664,864,l),
(2880,864,l),
(2880,704,l),
(1664,704,l),
(1664,160,l),
(2944,160,l),
(2944,0,l),
(1472,0,l)
);
},
{
closed = 1;
nodes = (
(1472,1376,l),
(704,512,l),
(1472,512,l)
);
},
{
closed = 1;
nodes = (
(2304,1690,l),
(2240,1786,l),
(2816,2266,l),
(2944,2074,l)
);
}
);
};
layerId = "3D86ED3E-BC30-4996-8F23-7FA448982149";
shapes = (
{
ref = AE;
},
{
pos = (1830,384);
ref = acutecomb;
}
);
width = 3072;
}
);
unicode = 508;
},
{
glyphname = AEmacron;
lastChange = "2023-04-26 15:02:42 +0000";
layers = (
{
background = {
shapes = (
{
closed = 1;
nodes = (
(1472,352,l),
(582,352,l),
(256,0,l),
(0,0,l),
(1408,1536,l),
(2944,1536,l),
(2944,1376,l),
(1664,1376,l),
(1664,864,l),
(2880,864,l),
(2880,704,l),
(1664,704,l),
(1664,160,l),
(2944,160,l),
(2944,0,l),
(1472,0,l)
);
},
{
closed = 1;
nodes = (
(1472,1376,l),
(704,512,l),
(1472,512,l)
);
},
{
closed = 1;
nodes = (
(1920,1850,l),
(2688,1850,l),
(2688,1690,l),
(1920,1690,l)
);
}
);
};
layerId = "3D86ED3E-BC30-4996-8F23-7FA448982149";
shapes = (
{
ref = AE;
},
{
pos = (1734,384);
ref = macroncomb;
}
);
width = 3072;
}
);
unicode = 482;
},
{
glyphname = B;
lastChange = "2023-05-19 11:50:16 +0000";
layers = (
{
anchors = (
{
name = bottom;
pos = (1056,0);
},
{
name = center;
pos = (1056,768);
},
{
name = top;
pos = (1086,1536);
}
);
background = {
shapes = (
{
closed = 1;
nodes = (
(1764,1536,o),
(1920,1456,o),
(1920,1155,cs),
(1920,973,o),
(1837,844,o),
(1664,832,c),
(1891,809,o),
(1984,658,o),
(1984,448,cs),
(1984,82,o),
(1836,0,o),
(1331,0,cs),
(192,0,l),
(192,1536,l),
(1416,1536,ls)
);
},
{
closed = 1;
nodes = (
(1696,160,o),
(1792,174,o),
(1792,448,cs),
(1792,730,o),
(1564,736,o),
(1279,736,cs),
(384,736,l),
(384,160,l),
(1331,160,ls)
);
},
{
closed = 1;
nodes = (
(1577,896,o),
(1728,882,o),
(1728,1155,cs),
(1728,1357,o),
(1654,1376,o),
(1416,1376,cs),
(384,1376,l),
(384,896,l),
(1279,896,ls)
);
}
);
};
layerId = "3D86ED3E-BC30-4996-8F23-7FA448982149";
shapes = (
{
closed = 1;
nodes = (
(1331,0,ls),
(1836,0,o),
(1984,82,o),
(1984,448,cs),
(1984,658,o),
(1891,809,o),
(1664,832,c),
(1837,844,o),
(1920,973,o),
(1920,1155,cs),
(1920,1456,o),
(1764,1536,o),
(1416,1536,cs),
(192,1536,l),
(192,0,l)
);
},
{
closed = 1;
nodes = (
(384,736,l),
(1279,736,ls),
(1564,736,o),
(1792,730,o),
(1792,448,cs),
(1792,174,o),
(1696,160,o),
(1331,160,cs),
(384,160,l)
);
},
{
closed = 1;
nodes = (
(384,1376,l),
(1416,1376,ls),
(1654,1376,o),
(1728,1357,o),
(1728,1155,cs),
(1728,897,o),
(1588,896,o),
(1279,896,cs),
(384,896,l)
);
}
);
width = 2112;
}
);
unicode = 66;
},
{
glyphname = Bdotaccent;
lastChange = "2023-05-03 13:43:43 +0000";
layers = (
{
background = {
shapes = (
{
closed = 1;
nodes = (
(1764,1536,o),
(1920,1456,o),
(1920,1155,cs),
(1920,973,o),
(1837,844,o),
(1664,832,c),
(1891,809,o),
(1984,658,o),
(1984,448,cs),
(1984,82,o),
(1836,0,o),
(1331,0,cs),
(192,0,l),
(192,1536,l),
(1416,1536,ls)
);
},
{
closed = 1;
nodes = (
(1696,160,o),
(1792,174,o),
(1792,448,cs),
(1792,730,o),
(1564,736,o),
(1279,736,cs),
(384,736,l),
(384,160,l),
(1331,160,ls)
);
},
{
closed = 1;
nodes = (
(1577,896,o),
(1728,882,o),
(1728,1155,cs),
(1728,1357,o),
(1654,1376,o),
(1416,1376,cs),
(384,1376,l),
(384,896,l),
(1279,896,ls)
);
},
{
closed = 1;
nodes = (
(1184,1690,l),
(992,1690,l),
(992,1882,l),
(1184,1882,l)
);
}
);
};
layerId = "3D86ED3E-BC30-4996-8F23-7FA448982149";
shapes = (
{
ref = B;
},
{
pos = (862,384);
ref = dotaccentcomb;
}
);
width = 2112;
}
);
unicode = 7682;
},
{
glyphname = C;
lastChange = "2023-05-19 11:40:35 +0000";
layers = (
{
anchors = (
{
name = bottom;
pos = (1042,0);
},
{
name = top;
pos = (1063,1536);
}
);
background = {
shapes = (
{
closed = 1;
nodes = (
(1171,1402,l),
(871,1402,l),
(394,1402,o),
(320,1374,o),
(320,788,c),
(128,748,l),
(128,788,l),
(128,1467,o),
(271,1568,o),
(871,1568,c),
(1171,1568,l)
);
},
{
closed = 1;
nodes = (
(128,89,o),
(128,748,c),
(320,788,l),
(320,748,l),
(320,182,o),
(394,134,o),
(871,134,c),
(1171,134,l),
(1171,-32,l),
(871,-32,l),
(271,-32,o)
);
},
{
closed = 1;
nodes = (
(2014,29,o),
(1822,-32,o),
(1274,-32,c),
(974,-32,l),
(974,134,l),
(1274,134,l),
(1702,134,o),
(1822,133,o),
(1822,519,c),
(2014,519,l)
);
},
{
closed = 1;
nodes = (
(1702,1402,o),
(1274,1402,c),
(974,1402,l),
(974,1568,l),
(1274,1568,l),
(1822,1568,o),
(2014,1497,o),
(2014,1007,c),
(1822,1007,l),
(1822,1393,o)
);
}
);
};
layerId = "3D86ED3E-BC30-4996-8F23-7FA448982149";
shapes = (
{
closed = 1;
nodes = (
(128,89,o),
(271,-32,o),
(871,-32,cs),
(1274,-32,ls),
(1822,-32,o),
(2014,29,o),
(2014,519,c),
(1822,519,l),
(1822,134,o),
(1702,134,o),
(1274,134,cs),
(871,134,ls),
(394,134,o),
(320,182,o),
(320,748,cs),
(320,788,ls),
(320,1374,o),
(394,1402,o),
(871,1402,cs),
(1274,1402,ls),
(1702,1402,o),
(1822,1393,o),
(1822,1007,c),
(2014,1007,l),
(2014,1497,o),
(1822,1568,o),
(1274,1568,cs),
(871,1568,ls),
(271,1568,o),
(128,1467,o),
(128,788,cs),
(128,748,ls)
);
}
);
width = 2145;
}
);
unicode = 67;
},
{
glyphname = Cacute;
lastChange = "2023-04-26 15:02:57 +0000";
layers = (
{
background = {
shapes = (
{
closed = 1;
nodes = (
(1171,1402,l),
(871,1402,l),
(394,1402,o),
(320,1374,o),
(320,788,c),
(128,748,l),
(128,788,l),
(128,1467,o),
(271,1568,o),
(871,1568,c),
(1171,1568,l)
);
},
{
closed = 1;
nodes = (
(128,89,o),
(128,748,c),
(320,788,l),
(320,748,l),
(320,182,o),
(394,134,o),
(871,134,c),
(1171,134,l),
(1171,-32,l),
(871,-32,l),
(271,-32,o)
);
},
{
closed = 1;
nodes = (
(2014,29,o),
(1822,-32,o),
(1274,-32,c),
(974,-32,l),
(974,134,l),
(1274,134,l),
(1702,134,o),
(1822,133,o),
(1822,519,c),
(2014,519,l)
);
},
{
closed = 1;
nodes = (
(1702,1402,o),
(1274,1402,c),
(974,1402,l),
(974,1568,l),
(1274,1568,l),
(1822,1568,o),
(2014,1497,o),
(2014,1007,c),
(1822,1007,l),
(1822,1393,o)
);
},
{
closed = 1;
nodes = (
(1056,1690,l),
(992,1786,l),
(1568,2266,l),
(1696,2074,l)
);
}
);
};
layerId = "3D86ED3E-BC30-4996-8F23-7FA448982149";
shapes = (
{
ref = C;
},
{
pos = (647,384);
ref = acutecomb;
}
);
width = 2145;
}
);
unicode = 262;
},
{
glyphname = Ccaron;
lastChange = "2023-04-26 15:02:57 +0000";
layers = (
{
background = {
shapes = (
{
closed = 1;
nodes = (
(1171,1402,l),
(871,1402,l),
(394,1402,o),
(320,1374,o),
(320,788,c),
(128,748,l),
(128,788,l),
(128,1467,o),
(271,1568,o),
(871,1568,c),
(1171,1568,l)
);
},
{
closed = 1;
nodes = (
(128,89,o),
(128,748,c),
(320,788,l),
(320,748,l),
(320,182,o),
(394,134,o),
(871,134,c),
(1171,134,l),
(1171,-32,l),
(871,-32,l),
(271,-32,o)
);
},
{
closed = 1;
nodes = (
(2014,29,o),
(1822,-32,o),
(1274,-32,c),
(974,-32,l),
(974,134,l),
(1274,134,l),
(1702,134,o),
(1822,133,o),
(1822,519,c),
(2014,519,l)
);
},
{
closed = 1;
nodes = (
(1702,1402,o),
(1274,1402,c),
(974,1402,l),
(974,1568,l),
(1274,1568,l),
(1822,1568,o),
(2014,1497,o),
(2014,1007,c),
(1822,1007,l),
(1822,1393,o)
);
},
{
closed = 1;
nodes = (
(1344,2266,l),
(1472,2170,l),
(1152,1690,l),
(960,1690,l),
(640,2170,l),
(768,2266,l),
(1056,1818,l)
);
}
);
};
layerId = "3D86ED3E-BC30-4996-8F23-7FA448982149";
shapes = (
{
ref = C;
},
{
pos = (519,384);
ref = caroncomb;
}
);
width = 2145;
}
);
unicode = 268;
},
{
glyphname = Ccedilla;
lastChange = "2023-04-26 15:03:02 +0000";
layers = (
{
background = {
shapes = (
{
closed = 1;
nodes = (
(1258,-128,o),
(1343,-181,o),
(1343,-288,cs),
(1343,-493,o),
(1187,-544,o),
(959,-544,c),
(959,-384,l),
(1034,-384,o),
(1080,-381,o),
(1099,-374,cs),
(1134,-361,o),
(1151,-332,o),
(1151,-288,cs),
(1151,-267,o),
(1144,-253,o),
(1130,-246,cs),
(1101,-232,o),
(1044,-224,o),
(959,-224,c),
(959,-32,l),
(831,-32,ls),
(604,-32,o),
(439,-4,o),
(336,54,cs),
(191,135,o),
(137,296,o),
(131,520,cs),
(129,595,o),
(128,677,o),
(128,768,cs),
(128,843,ls),
(128,1053,o),
(133,1243,o),
(216,1372,cs),
(244,1416,o),
(284,1453,o),
(336,1482,cs),
(439,1540,o),
(604,1568,o),
(831,1568,cs),
(1280,1568,ls),
(1558,1568,o),
(1747,1527,o),
(1847,1444,cs),
(1948,1361,o),
(1983,1236,o),
(1983,1056,c),
(1791,1056,l),
(1791,1204,o),
(1767,1299,o),
(1679,1352,cs),
(1587,1407,o),
(1455,1408,o),
(1298,1408,cs),
(1280,1408,ls),
(831,1408,ls),
(654,1408,o),
(534,1395,o),
(471,1370,cs),
(393,1338,o),
(356,1283,o),
(338,1190,cs),
(326,1129,o),
(320,988,o),
(320,768,cs),
(320,551,o),
(325,415,o),
(336,359,cs),
(356,255,o),
(387,200,o),
(471,166,cs),
(534,141,o),
(654,128,o),
(831,128,cs),
(1280,128,ls),
(1434,128,o),
(1538,135,o),
(1590,150,cs),
(1680,175,o),
(1726,200,o),
(1758,270,cs),
(1780,319,o),
(1791,400,o),
(1791,512,c),
(1983,512,l),
(1983,237,o),
(1915,96,o),
(1718,24,cs),
(1617,-13,o),
(1471,-32,o),
(1280,-32,cs),
(1087,-32,l),
(1087,-128,l)
);
}
);
};
layerId = "3D86ED3E-BC30-4996-8F23-7FA448982149";
shapes = (
{
ref = C;
},
{
pos = (835,0);
ref = cedillacomb;
}
);
width = 2145;
}
);
unicode = 199;
},
{
glyphname = Ccircumflex;
lastChange = "2023-04-26 15:02:57 +0000";
layers = (
{
background = {
shapes = (
{
closed = 1;
nodes = (
(1171,1402,l),
(871,1402,l),
(394,1402,o),
(320,1374,o),
(320,788,c),
(128,748,l),
(128,788,l),
(128,1467,o),
(271,1568,o),
(871,1568,c),
(1171,1568,l)
);
},
{
closed = 1;
nodes = (
(128,89,o),
(128,748,c),
(320,788,l),
(320,748,l),
(320,182,o),
(394,134,o),
(871,134,c),
(1171,134,l),
(1171,-32,l),
(871,-32,l),
(271,-32,o)
);
},
{
closed = 1;
nodes = (
(2014,29,o),
(1822,-32,o),
(1274,-32,c),
(974,-32,l),
(974,134,l),
(1274,134,l),
(1702,134,o),
(1822,133,o),
(1822,519,c),
(2014,519,l)
);
},
{
closed = 1;
nodes = (
(1702,1402,o),
(1274,1402,c),
(974,1402,l),
(974,1568,l),
(1274,1568,l),
(1822,1568,o),
(2014,1497,o),
(2014,1007,c),
(1822,1007,l),
(1822,1393,o)
);
},
{
closed = 1;
nodes = (
(1055,2138,l),
(767,1690,l),
(639,1786,l),
(959,2266,l),
(1151,2266,l),
(1471,1786,l),
(1343,1690,l)
);
}
);
};
layerId = "3D86ED3E-BC30-4996-8F23-7FA448982149";
shapes = (
{
ref = C;
},
{
pos = (519,384);
ref = circumflexcomb;
}
);
width = 2145;
}
);
unicode = 264;
},
{
glyphname = Cdotaccent;
lastChange = "2023-05-03 13:43:43 +0000";
layers = (
{
background = {
shapes = (
{
closed = 1;
nodes = (
(1171,1402,l),
(871,1402,l),
(394,1402,o),
(320,1374,o),
(320,788,c),
(128,748,l),
(128,788,l),
(128,1467,o),
(271,1568,o),
(871,1568,c),
(1171,1568,l)
);
},
{
closed = 1;
nodes = (
(128,89,o),
(128,748,c),
(320,788,l),
(320,748,l),
(320,182,o),
(394,134,o),
(871,134,c),
(1171,134,l),
(1171,-32,l),
(871,-32,l),
(271,-32,o)
);
},
{
closed = 1;
nodes = (
(2014,29,o),
(1822,-32,o),
(1274,-32,c),
(974,-32,l),
(974,134,l),
(1274,134,l),
(1702,134,o),
(1822,133,o),
(1822,519,c),
(2014,519,l)
);
},
{
closed = 1;
nodes = (
(1702,1402,o),
(1274,1402,c),
(974,1402,l),
(974,1568,l),
(1274,1568,l),
(1822,1568,o),
(2014,1497,o),
(2014,1007,c),
(1822,1007,l),
(1822,1393,o)
);
},
{
closed = 1;
nodes = (
(1151,1690,l),
(959,1690,l),
(959,1882,l),
(1151,1882,l)
);
}
);
};
layerId = "3D86ED3E-BC30-4996-8F23-7FA448982149";
shapes = (
{
ref = C;
},
{
pos = (839,384);
ref = dotaccentcomb;
}
);
width = 2145;
}
);
unicode = 266;
},
{
glyphname = D;
lastChange = "2023-04-26 15:03:12 +0000";
layers = (
{
anchors = (
{
name = bottom;
pos = (1104,0);
},
{
name = center;
pos = (1104,768);
},
{
name = top;
pos = (1116,1536);
}
);
background = {
shapes = (
{
closed = 1;
nodes = (
(196,0,l),
(196,1536,l),
(1233,1536,l),
(1233,1370,l),
(388,1370,l),
(388,166,l),
(1233,166,l),
(1233,0,l)
);
},
{
closed = 1;
nodes = (
(2079,1435,o),
(2079,788,c),
(2079,748,l),
(1887,788,l),
(1887,1342,o),
(1813,1370,o),
(1336,1370,c),
(1042,1370,l),
(1042,1536,l),
(1336,1536,l),
(1936,1536,o)
);
},
{
closed = 1;
nodes = (
(1042,166,l),
(1336,166,l),
(1813,166,o),
(1887,214,o),
(1887,748,c),
(1887,788,l),
(2079,748,l),
(2079,121,o),
(1936,0,o),
(1336,0,c),
(1042,0,l)
);
}
);
};
layerId = "3D86ED3E-BC30-4996-8F23-7FA448982149";
shapes = (
{
closed = 1;
nodes = (
(1336,0,ls),
(1936,0,o),
(2079,121,o),
(2079,748,cs),
(2079,788,ls),
(2079,1435,o),
(1936,1536,o),
(1336,1536,cs),
(196,1536,l),
(196,0,l)
);
},
{
closed = 1;
nodes = (
(388,1370,l),
(1336,1370,ls),
(1813,1370,o),
(1887,1342,o),
(1887,788,cs),
(1887,748,ls),
(1887,214,o),
(1813,166,o),
(1336,166,cs),
(388,166,l)
);
}
);
width = 2207;
}
);
unicode = 68;
},
{
glyphname = DZ;
lastChange = "2023-04-26 14:12:31 +0000";
layers = (
{
background = {
shapes = (
{
closed = 1;
nodes = (
(196,0,l),
(196,1536,l),
(1233,1536,l),
(1233,1370,l),
(388,1370,l),
(388,166,l),
(1233,166,l),
(1233,0,l)
);
},
{
closed = 1;
nodes = (
(2079,1435,o),
(2079,788,c),
(2079,748,l),
(1887,788,l),
(1887,1342,o),
(1813,1370,o),
(1336,1370,c),
(1042,1370,l),
(1042,1536,l),
(1336,1536,l),
(1936,1536,o)
);
},
{
closed = 1;
nodes = (
(1042,166,l),
(1336,166,l),
(1813,166,o),
(1887,214,o),
(1887,748,c),
(1887,788,l),
(2079,748,l),
(2079,121,o),
(1936,0,o),
(1336,0,c),
(1042,0,l)
);
},
{
closed = 1;
nodes = (
(2335,160,l),
(3821,1376,l),
(2399,1376,l),
(2399,1536,l),
(4095,1536,l),
(4095,1376,l),
(2601,160,l),
(4127,160,l),
(4127,0,l),
(2335,0,l)
);
}
);
};
layerId = "3D86ED3E-BC30-4996-8F23-7FA448982149";
shapes = (
{
ref = D;
},
{
pos = (2207,0);
ref = Z;
}
);
width = 4253;
}
);
unicode = 497;
},
{
glyphname = DZcaron;
lastChange = "2023-04-26 14:42:36 +0000";
layers = (
{
background = {
shapes = (
{
closed = 1;
nodes = (
(196,0,l),
(196,1536,l),
(1233,1536,l),
(1233,1370,l),
(388,1370,l),
(388,166,l),
(1233,166,l),
(1233,0,l)
);
},
{
closed = 1;
nodes = (
(2079,1435,o),
(2079,788,c),
(2079,748,l),
(1887,788,l),
(1887,1342,o),
(1813,1370,o),
(1336,1370,c),
(1042,1370,l),
(1042,1536,l),
(1336,1536,l),
(1936,1536,o)
);
},
{
closed = 1;
nodes = (
(1042,166,l),
(1336,166,l),
(1813,166,o),
(1887,214,o),
(1887,748,c),
(1887,788,l),
(2079,748,l),
(2079,121,o),
(1936,0,o),
(1336,0,c),
(1042,0,l)
);
},
{
closed = 1;
nodes = (
(2335,160,l),
(3821,1376,l),
(2399,1376,l),
(2399,1536,l),
(4095,1536,l),
(4095,1376,l),
(2601,160,l),
(4127,160,l),
(4127,0,l),
(2335,0,l)
);
},
{
closed = 1;
nodes = (
(3423,2304,l),
(3551,2208,l),
(3231,1728,l),
(3039,1728,l),
(2719,2208,l),
(2847,2304,l),
(3135,1856,l)
);
}
);
};
layerId = "3D86ED3E-BC30-4996-8F23-7FA448982149";
shapes = (
{
ref = DZ;
},
{
pos = (2686,384);
ref = caroncomb;
}
);
width = 4253;
}
);
unicode = 452;
},
{
glyphname = Dcaron;
lastChange = "2023-04-26 15:03:12 +0000";
layers = (
{
background = {
shapes = (
{
closed = 1;
nodes = (
(196,0,l),
(196,1536,l),
(1233,1536,l),
(1233,1370,l),
(388,1370,l),
(388,166,l),
(1233,166,l),
(1233,0,l)
);
},
{
closed = 1;
nodes = (
(2079,1435,o),
(2079,788,c),
(2079,748,l),
(1887,788,l),
(1887,1342,o),
(1813,1370,o),
(1336,1370,c),
(1042,1370,l),
(1042,1536,l),
(1336,1536,l),
(1936,1536,o)
);
},
{
closed = 1;
nodes = (
(1042,166,l),
(1336,166,l),
(1813,166,o),
(1887,214,o),
(1887,748,c),
(1887,788,l),
(2079,748,l),
(2079,121,o),
(1936,0,o),
(1336,0,c),
(1042,0,l)
);
},
{
closed = 1;
nodes = (
(1408,2266,l),
(1536,2170,l),
(1216,1690,l),
(1024,1690,l),
(704,2170,l),
(832,2266,l),
(1120,1818,l)
);
}
);
};
layerId = "3D86ED3E-BC30-4996-8F23-7FA448982149";
shapes = (
{
ref = D;
},
{
pos = (572,384);
ref = caroncomb;
}
);
width = 2207;
}
);
unicode = 270;
},
{
glyphname = Dcroat;
lastChange = "2023-04-26 14:12:31 +0000";
layers = (
{
background = {
shapes = (
{
closed = 1;
nodes = (
(0,864,l),
(128,864,l),
(128,1536,l),
(1279,1536,ls),
(1506,1536,o),
(1671,1508,o),
(1774,1453,cs),
(1826,1425,o),
(1868,1390,o),
(1896,1348,cs),
(1981,1222,o),
(1984,1031,o),
(1984,820,cs),
(1984,768,ls),
(1984,681,o),
(1982,602,o),
(1980,530,cs),
(1973,313,o),
(1920,161,o),
(1774,83,cs),
(1671,28,o),
(1506,0,o),
(1279,0,cs),
(128,0,l),
(128,704,l),
(0,704,l)
);
},
{
closed = 1;
nodes = (
(1279,160,ls),
(1456,160,o),
(1576,172,o),
(1639,196,cs),
(1722,227,o),
(1754,279,o),
(1775,378,cs),
(1786,431,o),
(1792,561,o),
(1792,768,cs),
(1792,975,o),
(1785,1109,o),
(1772,1170,cs),
(1751,1270,o),
(1714,1313,o),
(1620,1348,cs),
(1570,1367,o),
(1456,1376,o),
(1279,1376,cs),
(320,1376,l),
(320,864,l),
(768,864,l),
(768,704,l),
(320,704,l),
(320,160,l)
);
}
);
};
layerId = "3D86ED3E-BC30-4996-8F23-7FA448982149";
shapes = (
{
ref = Eth;
}
);
width = 2112;
}
);
unicode = 272;
},
{
glyphname = Ddotaccent;
lastChange = "2023-05-03 13:43:43 +0000";
layers = (
{
background = {
shapes = (
{
closed = 1;
nodes = (
(196,0,l),
(196,1536,l),
(1233,1536,l),
(1233,1370,l),
(388,1370,l),
(388,166,l),
(1233,166,l),
(1233,0,l)
);
},
{
closed = 1;
nodes = (
(2079,1435,o),
(2079,788,c),
(2079,748,l),
(1887,788,l),
(1887,1342,o),
(1813,1370,o),
(1336,1370,c),
(1042,1370,l),
(1042,1536,l),
(1336,1536,l),
(1936,1536,o)
);
},
{
closed = 1;
nodes = (
(1042,166,l),
(1336,166,l),
(1813,166,o),
(1887,214,o),
(1887,748,c),
(1887,788,l),
(2079,748,l),
(2079,121,o),
(1936,0,o),
(1336,0,c),
(1042,0,l)
);
},
{
closed = 1;
nodes = (
(1216,1690,l),
(1024,1690,l),
(1024,1882,l),
(1216,1882,l)
);
}
);
};
layerId = "3D86ED3E-BC30-4996-8F23-7FA448982149";
shapes = (
{
ref = D;
},
{
pos = (892,384);
ref = dotaccentcomb;
}
);
width = 2207;
}
);
unicode = 7690;
},
{
glyphname = Dz;
lastChange = "2023-04-26 14:12:31 +0000";
layers = (
{
background = {
shapes = (
{
closed = 1;
nodes = (
(196,0,l),
(196,1536,l),
(1233,1536,l),
(1233,1370,l),
(388,1370,l),
(388,166,l),
(1233,166,l),
(1233,0,l)
);
},
{
closed = 1;
nodes = (
(2079,1435,o),
(2079,788,c),
(2079,748,l),
(1887,788,l),
(1887,1342,o),
(1813,1370,o),
(1336,1370,c),
(1042,1370,l),
(1042,1536,l),
(1336,1536,l),
(1936,1536,o)
);
},
{
closed = 1;
nodes = (
(1042,166,l),
(1336,166,l),
(1813,166,o),
(1887,214,o),
(1887,748,c),
(1887,788,l),
(2079,748,l),
(2079,121,o),
(1936,0,o),
(1336,0,c),
(1042,0,l)
);
},
{
closed = 1;
nodes = (
(3551,1152,l),
(3551,992,l),
(2589,143,l),
(3551,143,l),
(3551,0,l),
(2335,0,l),
(2335,160,l),
(3311,1011,l),
(2399,1011,l),
(2399,1152,l)
);
}
);
};
layerId = "3D86ED3E-BC30-4996-8F23-7FA448982149";
shapes = (
{
ref = D;
},
{
pos = (2207,0);
ref = z;
}
);
width = 3679;
}
);
unicode = 498;
},
{
glyphname = Dzcaron;
lastChange = "2023-04-26 14:12:31 +0000";
layers = (
{
background = {
shapes = (
{
closed = 1;
nodes = (
(196,0,l),
(196,1536,l),
(1233,1536,l),
(1233,1370,l),
(388,1370,l),
(388,166,l),
(1233,166,l),
(1233,0,l)
);
},
{
closed = 1;
nodes = (
(2079,1435,o),
(2079,788,c),
(2079,748,l),
(1887,788,l),
(1887,1342,o),
(1813,1370,o),
(1336,1370,c),
(1042,1370,l),
(1042,1536,l),
(1336,1536,l),
(1936,1536,o)
);
},
{
closed = 1;
nodes = (
(1042,166,l),
(1336,166,l),
(1813,166,o),
(1887,214,o),
(1887,748,c),
(1887,788,l),
(2079,748,l),
(2079,121,o),
(1936,0,o),
(1336,0,c),
(1042,0,l)
);
},
{
closed = 1;
nodes = (
(3136,1856,l),
(3264,1760,l),
(2944,1280,l),
(2752,1280,l),
(2432,1760,l),
(2560,1856,l),
(2848,1408,l)
);
},
{
closed = 1;
nodes = (
(3551,1152,l),
(3551,992,l),
(2589,143,l),
(3551,143,l),
(3551,0,l),
(2335,0,l),
(2335,160,l),
(3311,1011,l),
(2399,1011,l),
(2399,1152,l)
);
}
);
};
layerId = "3D86ED3E-BC30-4996-8F23-7FA448982149";
shapes = (
{
ref = D;
},
{
pos = (2207,0);
ref = zcaron;
}
);
width = 3679;
}
);
unicode = 453;
},
{
glyphname = Eth;
lastChange = "2023-04-26 14:46:50 +0000";
layers = (
{
background = {
shapes = (
{
closed = 1;
nodes = (
(0,864,l),
(128,864,l),
(128,1536,l),
(1279,1536,ls),
(1506,1536,o),
(1671,1508,o),
(1774,1453,cs),
(1826,1425,o),
(1868,1390,o),
(1896,1348,cs),
(1981,1222,o),
(1984,1031,o),
(1984,820,cs),
(1984,768,ls),
(1984,681,o),
(1982,602,o),
(1980,530,cs),
(1973,313,o),
(1920,161,o),
(1774,83,cs),
(1671,28,o),
(1506,0,o),
(1279,0,cs),
(128,0,l),
(128,704,l),
(0,704,l)
);
},
{
closed = 1;
nodes = (
(1279,160,ls),
(1456,160,o),
(1576,172,o),
(1639,196,cs),
(1722,227,o),
(1754,279,o),
(1775,378,cs),
(1786,431,o),
(1792,561,o),
(1792,768,cs),
(1792,975,o),
(1785,1109,o),
(1772,1170,cs),
(1751,1270,o),
(1714,1313,o),
(1620,1348,cs),
(1570,1367,o),
(1456,1376,o),
(1279,1376,cs),
(320,1376,l),
(320,864,l),
(768,864,l),
(768,704,l),
(320,704,l),
(320,160,l)
);
}
);
};
layerId = "3D86ED3E-BC30-4996-8F23-7FA448982149";
shapes = (
{
closed = 1;
nodes = (
(1279,0,ls),
(1506,0,o),
(1671,28,o),
(1774,83,cs),
(1920,161,o),
(1973,313,o),
(1980,530,cs),
(1982,602,o),
(1984,681,o),
(1984,768,cs),
(1984,820,ls),
(1984,1031,o),
(1981,1222,o),
(1896,1348,cs),
(1868,1390,o),
(1826,1425,o),
(1774,1453,cs),
(1671,1508,o),
(1506,1536,o),
(1279,1536,cs),
(128,1536,l),
(128,864,l),
(0,864,l),
(0,704,l),
(128,704,l),
(128,0,l)
);
},
{
closed = 1;
nodes = (
(320,704,l),
(768,704,l),
(768,864,l),
(320,864,l),
(320,1376,l),
(1279,1376,ls),
(1456,1376,o),
(1570,1367,o),
(1620,1348,cs),
(1714,1313,o),
(1751,1270,o),
(1772,1170,cs),
(1785,1109,o),
(1792,975,o),
(1792,768,cs),
(1792,561,o),
(1786,431,o),
(1775,378,cs),
(1754,279,o),
(1722,227,o),
(1639,196,cs),
(1576,172,o),
(1456,160,o),
(1279,160,cs),
(320,160,l)
);
}
);
width = 2112;
}
);
unicode = 208;
},
{
glyphname = E;
lastChange = "2023-04-26 15:03:27 +0000";
layers = (
{
anchors = (
{
name = bottom;
pos = (896,0);
},
{
name = ogonek;
pos = (1714,21);
},
{
name = top;
pos = (956,1536);
},
{
name = topleft;
pos = (20,1536);
}
);
background = {
shapes = (
{
closed = 1;
nodes = (
(192,1536,l),
(1700,1536,l),
(1700,1376,l),
(384,1376,l),
(384,864,l),
(1645,864,l),
(1645,704,l),
(384,704,l),
(384,160,l),
(1728,160,l),
(1728,0,l),
(192,0,l)
);
}
);
};
layerId = "3D86ED3E-BC30-4996-8F23-7FA448982149";
shapes = (
{
closed = 1;
nodes = (
(1728,0,l),
(1728,160,l),
(384,160,l),
(384,704,l),
(1645,704,l),
(1645,864,l),
(384,864,l),
(384,1376,l),
(1700,1376,l),
(1700,1536,l),
(192,1536,l),
(192,0,l)
);
}
);
width = 1792;
}
);
unicode = 69;
},
{
glyphname = Eacute;
lastChange = "2023-04-26 15:03:27 +0000";
layers = (
{
background = {
shapes = (
{
closed = 1;
nodes = (
(192,1536,l),
(1700,1536,l),
(1700,1376,l),
(384,1376,l),
(384,864,l),
(1645,864,l),
(1645,704,l),
(384,704,l),
(384,160,l),
(1728,160,l),
(1728,0,l),
(192,0,l)
);
},
{
closed = 1;
nodes = (
(672,1728,l),
(608,1824,l),
(1184,2304,l),
(1312,2112,l)
);
}
);
};
layerId = "3D86ED3E-BC30-4996-8F23-7FA448982149";
shapes = (
{
ref = E;
},
{
pos = (540,384);
ref = acutecomb;
}
);
width = 1792;
}
);
unicode = 201;
},
{
glyphname = Ebreve;
lastChange = "2023-04-26 15:03:27 +0000";
layers = (
{
background = {
shapes = (
{
closed = 1;
nodes = (
(192,1536,l),
(1700,1536,l),
(1700,1376,l),
(384,1376,l),
(384,864,l),
(1645,864,l),
(1645,704,l),
(384,704,l),
(384,160,l),
(1728,160,l),
(1728,0,l),
(192,0,l)
);
},
{
closed = 1;
nodes = (
(736,2010,l),
(736,1924,o),
(759,1867,o),
(805,1839,cs),
(828,1825,o),
(880,1818,o),
(960,1818,cs),
(1040,1818,o),
(1093,1826,o),
(1120,1842,cs),
(1163,1868,o),
(1184,1924,o),
(1184,2010,c),
(1344,2010,l),
(1344,1774,o),
(1203,1690,o),
(960,1690,cs),
(717,1690,o),
(576,1774,o),
(576,2010,c)
);
}
);
};
layerId = "3D86ED3E-BC30-4996-8F23-7FA448982149";
shapes = (
{
ref = E;
},
{
pos = (316,384);
ref = brevecomb;
}
);
width = 1792;
}
);
unicode = 276;
},
{
glyphname = Ecaron;
lastChange = "2023-04-26 15:03:27 +0000";
layers = (
{
background = {
shapes = (
{
closed = 1;
nodes = (
(192,1536,l),
(1700,1536,l),
(1700,1376,l),
(384,1376,l),
(384,864,l),
(1645,864,l),
(1645,704,l),
(384,704,l),
(384,160,l),
(1728,160,l),
(1728,0,l),
(192,0,l)
);
},
{
closed = 1;
nodes = (
(1248,2266,l),
(1376,2170,l),
(1056,1690,l),
(864,1690,l),
(544,2170,l),
(672,2266,l),
(960,1818,l)
);
}
);
};
layerId = "3D86ED3E-BC30-4996-8F23-7FA448982149";
shapes = (
{
ref = E;
},
{
pos = (412,384);
ref = caroncomb;
}
);
width = 1792;
}
);
unicode = 282;
},
{
glyphname = Ecedilla;
lastChange = "2023-04-27 14:17:45 +0000";
layers = (
{
background = {
shapes = (
{
closed = 1;
nodes = (
(192,1536,l),
(1700,1536,l),
(1700,1376,l),
(384,1376,l),
(384,864,l),
(1645,864,l),
(1645,704,l),
(384,704,l),
(384,160,l),
(1728,160,l),
(1728,0,l),
(192,0,l)
);
},
{
closed = 1;
nodes = (
(1131,-171,o),
(1216,-224,o),
(1216,-331,cs),
(1216,-536,o),
(1060,-587,o),
(832,-587,c),
(832,-427,l),
(907,-427,o),
(953,-424,o),
(972,-417,cs),
(1007,-404,o),
(1024,-375,o),
(1024,-331,cs),
(1024,-310,o),
(1017,-296,o),
(1003,-289,cs),
(974,-275,o),
(917,-267,o),
(832,-267,c),
(832,21,l),
(960,21,l),
(960,-171,l)
);
}
);
};
layerId = "3D86ED3E-BC30-4996-8F23-7FA448982149";
shapes = (
{
ref = E;
},
{
pos = (689,0);
ref = cedillacomb;
}
);
width = 1792;
}
);
unicode = 552;
},
{
glyphname = Ecircumflex;
lastChange = "2023-04-26 15:03:27 +0000";
layers = (
{
background = {
shapes = (
{
closed = 1;
nodes = (
(192,1536,l),
(1700,1536,l),
(1700,1376,l),
(384,1376,l),
(384,864,l),
(1645,864,l),
(1645,704,l),
(384,704,l),
(384,160,l),
(1728,160,l),
(1728,0,l),
(192,0,l)
);
},
{
closed = 1;
nodes = (
(960,2176,l),
(672,1728,l),
(544,1824,l),
(864,2304,l),
(1056,2304,l),
(1376,1824,l),
(1248,1728,l)
);
}
);
};
layerId = "3D86ED3E-BC30-4996-8F23-7FA448982149";
shapes = (
{
ref = E;
},
{
pos = (412,384);
ref = circumflexcomb;
}
);
width = 1792;
}
);
unicode = 202;
},
{
glyphname = Edblgrave;
lastChange = "2023-04-26 15:03:37 +0000";
layers = (
{
background = {
shapes = (
{
closed = 1;
nodes = (
(192,1536,l),
(1700,1536,l),
(1700,1376,l),
(384,1376,l),
(384,864,l),
(1645,864,l),
(1645,704,l),
(384,704,l),
(384,160,l),
(1728,160,l),
(1728,0,l),
(192,0,l)
);
}
);
};
layerId = "3D86ED3E-BC30-4996-8F23-7FA448982149";
shapes = (
{
ref = E;
}
);
width = 1792;
}
);
unicode = 516;
},
{
glyphname = Edieresis;
lastChange = "2023-04-26 15:03:27 +0000";
layers = (
{
background = {
shapes = (
{
closed = 1;
nodes = (
(192,1536,l),
(1700,1536,l),
(1700,1376,l),
(384,1376,l),
(384,864,l),
(1645,864,l),
(1645,704,l),
(384,704,l),
(384,160,l),
(1728,160,l),
(1728,0,l),
(192,0,l)
);
},
{
closed = 1;
nodes = (
(672,1792,l),
(480,1792,l),
(480,1984,l),
(672,1984,l)
);
},
{
closed = 1;
nodes = (
(1440,1792,l),
(1248,1792,l),
(1248,1984,l),
(1440,1984,l)
);
}
);
};
layerId = "3D86ED3E-BC30-4996-8F23-7FA448982149";
shapes = (
{
ref = E;
},
{
pos = (412,384);
ref = dieresiscomb;
}
);
width = 1792;
}
);
unicode = 203;
},
{
glyphname = Edotaccent;
lastChange = "2023-05-03 13:43:43 +0000";
layers = (
{
background = {
shapes = (
{
closed = 1;
nodes = (
(192,1536,l),
(1700,1536,l),
(1700,1376,l),
(384,1376,l),
(384,864,l),
(1645,864,l),
(1645,704,l),
(384,704,l),
(384,160,l),
(1728,160,l),
(1728,0,l),
(192,0,l)
);
},
{
closed = 1;
nodes = (
(1056,1690,l),
(864,1690,l),
(864,1882,l),
(1056,1882,l)
);
}
);
};
layerId = "3D86ED3E-BC30-4996-8F23-7FA448982149";
shapes = (
{
ref = E;
},
{
pos = (732,384);
ref = dotaccentcomb;
}
);
width = 1792;
}
);
unicode = 278;
},
{
glyphname = Egrave;
lastChange = "2023-04-26 15:03:27 +0000";
layers = (
{
background = {
shapes = (
{
closed = 1;
nodes = (
(192,1536,l),
(1700,1536,l),
(1700,1376,l),
(384,1376,l),
(384,864,l),
(1645,864,l),
(1645,704,l),
(384,704,l),
(384,160,l),
(1728,160,l),
(1728,0,l),
(192,0,l)
);
},
{
closed = 1;
nodes = (
(736,2304,l),
(1312,1824,l),
(1248,1728,l),
(608,2112,l)
);
}
);
};
layerId = "3D86ED3E-BC30-4996-8F23-7FA448982149";
shapes = (
{
ref = E;
},
{
pos = (538,444);
ref = gravecomb;
}
);
width = 1792;
}
);
unicode = 200;
},
{
glyphname = Einvertedbreve;
lastChange = "2023-05-03 13:29:42 +0000";
layers = (
{
background = {
shapes = (
{
closed = 1;
nodes = (
(512,1925,o),
(653,2010,o),
(896,2010,cs),
(1139,2010,o),
(1280,1926,o),
(1280,1690,c),
(1120,1690,l),
(1120,1776,o),
(1099,1832,o),
(1056,1858,cs),
(1029,1874,o),
(976,1882,o),
(896,1882,cs),
(816,1882,o),
(764,1875,o),
(741,1861,cs),
(695,1833,o),
(672,1776,o),
(672,1690,c),
(512,1690,l)
);
},
{
closed = 1;
nodes = (
(129,1536,l),
(1637,1536,l),
(1637,1376,l),
(321,1376,l),
(321,864,l),
(1582,864,l),
(1582,704,l),
(321,704,l),
(321,160,l),
(1665,160,l),
(1665,0,l),
(129,0,l)
);
}
);
};
layerId = "3D86ED3E-BC30-4996-8F23-7FA448982149";
shapes = (
{
ref = E;
},
{
pos = (316,384);
ref = breveinvertedcomb;
}
);
width = 1792;
}
);
unicode = 518;
},
{
glyphname = Emacron;
lastChange = "2023-04-26 15:03:27 +0000";
layers = (
{
background = {
shapes = (
{
closed = 1;
nodes = (
(192,1536,l),
(1700,1536,l),
(1700,1376,l),
(384,1376,l),
(384,864,l),
(1645,864,l),
(1645,704,l),
(384,704,l),
(384,160,l),
(1728,160,l),
(1728,0,l),
(192,0,l)
);
},
{
closed = 1;
nodes = (
(576,1850,l),
(1344,1850,l),
(1344,1690,l),
(576,1690,l)
);
}
);
};
layerId = "3D86ED3E-BC30-4996-8F23-7FA448982149";
shapes = (
{
ref = E;
},
{
pos = (444,384);
ref = macroncomb;
}
);
width = 1792;
}
);
unicode = 274;
},
{
glyphname = Eogonek;
lastChange = "2023-04-26 14:45:34 +0000";
layers = (
{
background = {
shapes = (
{
closed = 1;
nodes = (
(192,1536,l),
(1700,1536,l),
(1700,1376,l),
(384,1376,l),
(384,864,l),
(1645,864,l),
(1645,704,l),
(384,704,l),
(384,160,l),
(1728,160,l),
(1728,0,l),
(192,0,l)
);
},
{
closed = 1;
nodes = (
(1522,-373,o),
(1600,-395,o),
(1714,-395,c),
(1714,-555,l),
(1541,-555,o),
(1424,-510,o),
(1363,-420,cs),
(1341,-387,o),
(1330,-353,o),
(1330,-317,cs),
(1330,-247,o),
(1344,-210,o),
(1370,-168,cs),
(1415,-96,o),
(1487,-33,o),
(1586,21,c),
(1714,21,l),
(1586,-64,o),
(1522,-160,o),
(1522,-267,cs)
);
}
);
};
layerId = "3D86ED3E-BC30-4996-8F23-7FA448982149";
shapes = (
{
ref = E;
},
{
pos = (1202,-43);
ref = ogonekcomb;
}
);
width = 1792;
}
);
unicode = 280;
},
{
glyphname = Etilde;
lastChange = "2023-04-26 15:03:27 +0000";
layers = (
{
background = {
shapes = (
{
closed = 1;
nodes = (
(192,1536,l),
(1700,1536,l),
(1700,1376,l),
(384,1376,l),
(384,864,l),
(1645,864,l),
(1645,704,l),
(384,704,l),
(384,160,l),
(1728,160,l),
(1728,0,l),
(192,0,l)
);
},
{
closed = 1;
nodes = (
(512,1690,l),
(512,1855,o),
(622,1947,o),
(768,1947,cs),
(839,1947,o),
(912,1930,o),
(987,1898,cs),
(1031,1879,o),
(1085,1850,o),
(1138,1850,cs),
(1202,1850,o),
(1216,1867,o),
(1216,1946,c),
(1408,1946,l),
(1408,1858,o),
(1377,1790,o),
(1316,1744,cs),
(1268,1708,o),
(1213,1690,o),
(1152,1690,cs),
(1082,1690,o),
(1009,1706,o),
(933,1738,cs),
(889,1757,o),
(835,1786,o),
(782,1786,cs),
(714,1786,o),
(704,1768,o),
(704,1690,c)
);
}
);
};
layerId = "3D86ED3E-BC30-4996-8F23-7FA448982149";
shapes = (
{
ref = E;
},
{
pos = (380,384);
ref = tildecomb;
}
);
width = 1792;
}
);
unicode = 7868;
},
{
glyphname = F;
lastChange = "2023-04-26 14:46:50 +0000";
layers = (
{
anchors = (
{
name = bottom;
pos = (864,0);
},
{
name = top;
pos = (864,1536);
}
);
background = {
shapes = (
{
closed = 1;
nodes = (
(192,1536,l),
(1640,1536,l),
(1640,1376,l),
(384,1376,l),
(384,864,l),
(1583,864,l),
(1583,704,l),
(384,704,l),
(384,0,l),
(192,0,l)
);
}
);
};
layerId = "3D86ED3E-BC30-4996-8F23-7FA448982149";
shapes = (
{
closed = 1;
nodes = (
(384,0,l),
(384,704,l),
(1583,704,l),
(1583,864,l),
(384,864,l),
(384,1376,l),
(1640,1376,l),
(1640,1536,l),
(192,1536,l),
(192,0,l)
);
}
);
width = 1728;
}
);
unicode = 70;
},
{
glyphname = Fdotaccent;
lastChange = "2023-05-03 13:43:43 +0000";
layers = (
{
background = {
shapes = (
{
closed = 1;
nodes = (
(192,1536,l),
(1640,1536,l),
(1640,1376,l),
(384,1376,l),
(384,864,l),
(1583,864,l),
(1583,704,l),
(384,704,l),
(384,0,l),
(192,0,l)
);
},
{
closed = 1;
nodes = (
(1024,1690,l),
(832,1690,l),
(832,1882,l),
(1024,1882,l)
);
}
);
};
layerId = "3D86ED3E-BC30-4996-8F23-7FA448982149";
shapes = (
{
ref = F;
},
{
pos = (640,384);
ref = dotaccentcomb;
}
);
width = 1728;
}
);
unicode = 7710;
},
{
glyphname = G;
lastChange = "2023-04-26 14:46:50 +0000";
layers = (
{
anchors = (
{
name = bottom;
pos = (1089,0);
},
{
name = top;
pos = (1089,1536);
}
);
background = {
shapes = (
{
closed = 1;
nodes = (
(1087,648,l),
(1087,808,l),
(2014,808,l),
(1822,648,l)
);
},
{
closed = 1;
nodes = (
(1154,1402,l),
(871,1402,l),
(394,1402,o),
(320,1374,o),
(320,788,c),
(128,748,l),
(128,788,l),
(128,1467,o),
(271,1568,o),
(871,1568,c),
(1154,1568,l)
);
},
{
closed = 1;
nodes = (
(128,89,o),
(128,748,c),
(320,788,l),
(320,748,l),
(320,182,o),
(394,134,o),
(871,134,c),
(1171,134,l),
(1171,-32,l),
(871,-32,l),
(271,-32,o)
);
},
{
closed = 1;
nodes = (
(2014,808,l),
(2014,589,l),
(2014,69,o),
(1862,-32,o),
(1314,-32,c),
(974,-32,l),
(974,134,l),
(1314,134,l),
(1755,134,o),
(1822,173,o),
(1822,589,c),
(1822,648,l)
);
},
{
closed = 1;
nodes = (
(1725,1402,o),
(1247,1402,c),
(974,1402,l),
(974,1568,l),
(1247,1568,l),
(1875,1568,o),
(1997,1499,o),
(1997,1077,c),
(1805,1077,l),
(1805,1395,o)
);
}
);
};
layerId = "3D86ED3E-BC30-4996-8F23-7FA448982149";
shapes = (
{
closed = 1;
nodes = (
(1314,-32,l),
(1862,-32,o),
(2014,69,o),
(2014,589,c),
(2014,808,l),
(1822,648,l),
(1822,589,l),
(1822,173,o),
(1755,134,o),
(1314,134,c),
(974,134,l),
(974,-32,l)
);
},
{
closed = 1;
nodes = (
(1171,-32,l),
(1171,134,l),
(871,134,l),
(394,134,o),
(320,182,o),
(320,748,c),
(320,788,l),
(128,748,l),
(128,89,o),
(271,-32,o),
(871,-32,c)
);
},
{
closed = 1;
nodes = (
(320,788,l),
(320,1374,o),
(394,1402,o),
(871,1402,c),
(1154,1402,l),
(1154,1568,l),
(871,1568,l),
(271,1568,o),
(128,1467,o),
(128,788,c),
(128,748,l)
);
},
{
closed = 1;
nodes = (
(1822,648,l),
(2014,808,l),
(1087,808,l),
(1087,648,l)
);
},
{
closed = 1;
nodes = (
(1997,1077,l),
(1997,1499,o),
(1875,1568,o),
(1247,1568,c),
(974,1568,l),
(974,1402,l),
(1247,1402,l),
(1725,1402,o),
(1805,1395,o),
(1805,1077,c)
);
}
);
width = 2177;
}
);
unicode = 71;
},
{
glyphname = Gacute;
lastChange = "2023-04-26 14:41:37 +0000";
layers = (
{
background = {
shapes = (
{
closed = 1;
nodes = (
(1087,648,l),
(1087,808,l),
(2014,808,l),
(1822,648,l)
);
},
{
closed = 1;
nodes = (
(1154,1402,l),
(871,1402,l),
(394,1402,o),
(320,1374,o),
(320,788,c),
(128,748,l),
(128,788,l),
(128,1467,o),
(271,1568,o),
(871,1568,c),
(1154,1568,l)
);
},
{
closed = 1;
nodes = (
(128,89,o),
(128,748,c),
(320,788,l),
(320,748,l),
(320,182,o),
(394,134,o),
(871,134,c),
(1171,134,l),
(1171,-32,l),
(871,-32,l),
(271,-32,o)
);
},
{
closed = 1;
nodes = (
(2014,808,l),
(2014,589,l),
(2014,69,o),
(1862,-32,o),
(1314,-32,c),
(974,-32,l),
(974,134,l),
(1314,134,l),
(1755,134,o),
(1822,173,o),
(1822,589,c),
(1822,648,l)
);
},
{
closed = 1;
nodes = (
(1725,1402,o),
(1247,1402,c),
(974,1402,l),
(974,1568,l),
(1247,1568,l),
(1875,1568,o),
(1997,1499,o),
(1997,1077,c),
(1805,1077,l),
(1805,1395,o)
);
},
{
closed = 1;
nodes = (
(1089,1690,l),
(1025,1786,l),
(1601,2266,l),
(1729,2074,l)
);
}
);
};
layerId = "3D86ED3E-BC30-4996-8F23-7FA448982149";
shapes = (
{
ref = G;
},
{
pos = (673,384);
ref = acutecomb;
}
);
width = 2177;
}
);
unicode = 500;
},
{
glyphname = Gbreve;
lastChange = "2023-04-26 14:42:48 +0000";
layers = (
{
background = {
shapes = (
{
closed = 1;
nodes = (
(1087,648,l),
(1087,808,l),
(2014,808,l),
(1822,648,l)
);
},
{
closed = 1;
nodes = (
(1154,1402,l),
(871,1402,l),
(394,1402,o),
(320,1374,o),
(320,788,c),
(128,748,l),
(128,788,l),
(128,1467,o),
(271,1568,o),
(871,1568,c),
(1154,1568,l)
);
},
{
closed = 1;
nodes = (
(128,89,o),
(128,748,c),
(320,788,l),
(320,748,l),
(320,182,o),
(394,134,o),
(871,134,c),
(1171,134,l),
(1171,-32,l),
(871,-32,l),
(271,-32,o)
);
},
{
closed = 1;
nodes = (
(2014,808,l),
(2014,589,l),
(2014,69,o),
(1862,-32,o),
(1314,-32,c),
(974,-32,l),
(974,134,l),
(1314,134,l),
(1755,134,o),
(1822,173,o),
(1822,589,c),
(1822,648,l)
);
},
{
closed = 1;
nodes = (
(1725,1402,o),
(1247,1402,c),
(974,1402,l),
(974,1568,l),
(1247,1568,l),
(1875,1568,o),
(1997,1499,o),
(1997,1077,c),
(1805,1077,l),
(1805,1395,o)
);
},
{
closed = 1;
nodes = (
(864,2010,l),
(864,1924,o),
(887,1867,o),
(933,1839,cs),
(956,1825,o),
(1008,1818,o),
(1088,1818,cs),
(1168,1818,o),
(1221,1826,o),
(1248,1842,cs),
(1291,1868,o),
(1312,1924,o),
(1312,2010,c),
(1472,2010,l),
(1472,1774,o),
(1331,1690,o),
(1088,1690,cs),
(845,1690,o),
(704,1774,o),
(704,2010,c)
);
}
);
};
layerId = "3D86ED3E-BC30-4996-8F23-7FA448982149";
shapes = (
{
ref = G;
},
{
pos = (449,384);
ref = brevecomb;
}
);
width = 2177;
}
);
unicode = 286;
},
{
glyphname = Gcaron;
lastChange = "2023-04-26 14:42:36 +0000";
layers = (
{
background = {
shapes = (
{
closed = 1;
nodes = (
(1087,648,l),
(1087,808,l),
(2014,808,l),
(1822,648,l)
);
},
{
closed = 1;
nodes = (
(1154,1402,l),
(871,1402,l),
(394,1402,o),
(320,1374,o),
(320,788,c),
(128,748,l),
(128,788,l),
(128,1467,o),
(271,1568,o),
(871,1568,c),
(1154,1568,l)
);
},
{
closed = 1;
nodes = (
(128,89,o),
(128,748,c),
(320,788,l),
(320,748,l),
(320,182,o),
(394,134,o),
(871,134,c),
(1171,134,l),
(1171,-32,l),
(871,-32,l),
(271,-32,o)
);
},
{
closed = 1;
nodes = (
(2014,808,l),
(2014,589,l),
(2014,69,o),
(1862,-32,o),
(1314,-32,c),
(974,-32,l),
(974,134,l),
(1314,134,l),
(1755,134,o),
(1822,173,o),
(1822,589,c),
(1822,648,l)
);
},
{
closed = 1;
nodes = (
(1725,1402,o),
(1247,1402,c),
(974,1402,l),
(974,1568,l),
(1247,1568,l),
(1875,1568,o),
(1997,1499,o),
(1997,1077,c),
(1805,1077,l),
(1805,1395,o)
);
},
{
closed = 1;
nodes = (
(1377,2266,l),
(1505,2170,l),
(1185,1690,l),
(993,1690,l),
(673,2170,l),
(801,2266,l),
(1089,1818,l)
);
}
);
};
layerId = "3D86ED3E-BC30-4996-8F23-7FA448982149";
shapes = (
{
ref = G;
},
{
pos = (545,384);
ref = caroncomb;
}
);
width = 2177;
}
);
unicode = 486;
},
{
glyphname = Gcircumflex;
lastChange = "2023-04-26 14:42:14 +0000";
layers = (
{
background = {
shapes = (
{
closed = 1;
nodes = (
(1087,648,l),
(1087,808,l),
(2014,808,l),
(1822,648,l)
);
},
{
closed = 1;
nodes = (
(1154,1402,l),
(871,1402,l),
(394,1402,o),
(320,1374,o),
(320,788,c),
(128,748,l),
(128,788,l),
(128,1467,o),
(271,1568,o),
(871,1568,c),
(1154,1568,l)
);
},
{
closed = 1;
nodes = (
(128,89,o),
(128,748,c),
(320,788,l),
(320,748,l),
(320,182,o),
(394,134,o),
(871,134,c),
(1171,134,l),
(1171,-32,l),
(871,-32,l),
(271,-32,o)
);
},
{
closed = 1;
nodes = (
(2014,808,l),
(2014,589,l),
(2014,69,o),
(1862,-32,o),
(1314,-32,c),
(974,-32,l),
(974,134,l),
(1314,134,l),
(1755,134,o),
(1822,173,o),
(1822,589,c),
(1822,648,l)
);
},
{
closed = 1;
nodes = (
(1725,1402,o),
(1247,1402,c),
(974,1402,l),
(974,1568,l),
(1247,1568,l),
(1875,1568,o),
(1997,1499,o),
(1997,1077,c),
(1805,1077,l),
(1805,1395,o)
);
},
{
closed = 1;
nodes = (
(1088,2138,l),
(800,1690,l),
(672,1786,l),
(992,2266,l),
(1184,2266,l),
(1504,1786,l),
(1376,1690,l)
);
}
);
};
layerId = "3D86ED3E-BC30-4996-8F23-7FA448982149";
shapes = (
{
ref = G;
},
{
pos = (545,384);
ref = circumflexcomb;
}
);
width = 2177;
}
);
unicode = 284;
},
{
glyphname = Gcommaaccent;
lastChange = "2023-04-27 15:48:27 +0000";
layers = (
{
background = {
shapes = (
{
closed = 1;
nodes = (
(1087,648,l),
(1087,808,l),
(2014,808,l),
(1822,648,l)
);
},
{
closed = 1;
nodes = (
(1154,1402,l),
(871,1402,l),
(394,1402,o),
(320,1374,o),
(320,788,c),
(128,748,l),
(128,788,l),
(128,1467,o),
(271,1568,o),
(871,1568,c),
(1154,1568,l)
);
},
{
closed = 1;
nodes = (
(128,89,o),
(128,748,c),
(320,788,l),
(320,748,l),
(320,182,o),
(394,134,o),
(871,134,c),
(1171,134,l),
(1171,-32,l),
(871,-32,l),
(271,-32,o)
);
},
{
closed = 1;
nodes = (
(2014,808,l),
(2014,589,l),
(2014,69,o),
(1862,-32,o),
(1314,-32,c),
(974,-32,l),
(974,134,l),
(1314,134,l),
(1755,134,o),
(1822,173,o),
(1822,589,c),
(1822,648,l)
);
},
{
closed = 1;
nodes = (
(1725,1402,o),
(1247,1402,c),
(974,1402,l),
(974,1568,l),
(1247,1568,l),
(1875,1568,o),
(1997,1499,o),
(1997,1077,c),
(1805,1077,l),
(1805,1395,o)
);
},
{
closed = 1;
nodes = (
(1217,-152,l),
(1089,-536,l),
(961,-536,l),
(1025,-152,l)
);
}
);
};
layerId = "3D86ED3E-BC30-4996-8F23-7FA448982149";
shapes = (
{
ref = G;
},
{
pos = (865,0);
ref = commaaccentcomb;
}
);
width = 2177;
}
);
unicode = 290;
},
{
glyphname = Gdotaccent;
lastChange = "2023-05-03 13:43:43 +0000";
layers = (
{
background = {
shapes = (
{
closed = 1;
nodes = (
(1087,648,l),
(1087,808,l),
(2014,808,l),
(1822,648,l)
);
},
{
closed = 1;
nodes = (
(1154,1402,l),
(871,1402,l),
(394,1402,o),
(320,1374,o),
(320,788,c),
(128,748,l),
(128,788,l),
(128,1467,o),
(271,1568,o),
(871,1568,c),
(1154,1568,l)
);
},
{
closed = 1;
nodes = (
(128,89,o),
(128,748,c),
(320,788,l),
(320,748,l),
(320,182,o),
(394,134,o),
(871,134,c),
(1171,134,l),
(1171,-32,l),
(871,-32,l),
(271,-32,o)
);
},
{
closed = 1;
nodes = (
(2014,808,l),
(2014,589,l),
(2014,69,o),
(1862,-32,o),
(1314,-32,c),
(974,-32,l),
(974,134,l),
(1314,134,l),
(1755,134,o),
(1822,173,o),
(1822,589,c),
(1822,648,l)
);
},
{
closed = 1;
nodes = (
(1725,1402,o),
(1247,1402,c),
(974,1402,l),
(974,1568,l),
(1247,1568,l),
(1875,1568,o),
(1997,1499,o),
(1997,1077,c),
(1805,1077,l),
(1805,1395,o)
);
},
{
closed = 1;
nodes = (
(1184,1690,l),
(992,1690,l),
(992,1882,l),
(1184,1882,l)
);
}
);
};
layerId = "3D86ED3E-BC30-4996-8F23-7FA448982149";
shapes = (
{
ref = G;
},
{
pos = (865,384);
ref = dotaccentcomb;
}
);
width = 2177;
}
);
unicode = 288;
},
{
glyphname = H;
lastChange = "2023-04-26 14:46:50 +0000";
layers = (
{
anchors = (
{
name = bottom;
pos = (1092,0);
},
{
name = center;
pos = (1092,768);
},
{
name = top;
pos = (1092,1536);
},
{
name = topleft;
pos = (20,1536);
}
);
background = {
shapes = (
{
closed = 1;
nodes = (
(1988,1536,l),
(1988,0,l),
(1796,0,l),
(1796,704,l),
(388,704,l),
(388,0,l),
(196,0,l),
(196,1536,l),
(388,1536,l),
(388,864,l),
(1796,864,l),
(1796,1536,l)
);
}
);
};
layerId = "3D86ED3E-BC30-4996-8F23-7FA448982149";
shapes = (
{
closed = 1;
nodes = (
(388,0,l),
(388,704,l),
(1796,704,l),
(1796,0,l),
(1988,0,l),
(1988,1536,l),
(1796,1536,l),
(1796,864,l),
(388,864,l),
(388,1536,l),
(196,1536,l),
(196,0,l)
);
}
);
width = 2184;
}
);
unicode = 72;
},
{
glyphname = Hbar;
lastChange = "2023-04-26 14:46:50 +0000";
layers = (
{
background = {
shapes = (
{
closed = 1;
nodes = (
(1984,1536,l),
(1984,0,l),
(1792,0,l),
(1792,704,l),
(384,704,l),
(384,0,l),
(192,0,l),
(192,1536,l),
(384,1536,l),
(384,864,l),
(1792,864,l),
(1792,1536,l)
);
}
);
};
layerId = "3D86ED3E-BC30-4996-8F23-7FA448982149";
shapes = (
{
closed = 1;
nodes = (
(384,0,l),
(384,704,l),
(1792,704,l),
(1792,0,l),
(1984,0,l),
(1984,1536,l),
(1792,1536,l),
(1792,864,l),
(384,864,l),
(384,1536,l),
(192,1536,l),
(192,0,l)
);
}
);
width = 2176;
}
);
unicode = 294;
},
{
glyphname = Hcaron;
lastChange = "2023-04-27 14:17:45 +0000";
layers = (
{
background = {
shapes = (
{
closed = 1;
nodes = (
(1988,1536,l),
(1988,0,l),
(1796,0,l),
(1796,704,l),
(388,704,l),
(388,0,l),
(196,0,l),
(196,1536,l),
(388,1536,l),
(388,864,l),
(1796,864,l),
(1796,1536,l)
);
},
{
closed = 1;
nodes = (
(1312,2266,l),
(1440,2170,l),
(1120,1690,l),
(928,1690,l),
(608,2170,l),
(736,2266,l),
(1024,1818,l)
);
}
);
};
layerId = "3D86ED3E-BC30-4996-8F23-7FA448982149";
shapes = (
{
ref = H;
},
{
pos = (548,384);
ref = caroncomb;
}
);
width = 2184;
}
);
unicode = 542;
},
{
glyphname = Hcircumflex;
lastChange = "2023-04-26 14:42:14 +0000";
layers = (
{
background = {
shapes = (
{
closed = 1;
nodes = (
(1988,1536,l),
(1988,0,l),
(1796,0,l),
(1796,704,l),
(388,704,l),
(388,0,l),
(196,0,l),
(196,1536,l),
(388,1536,l),
(388,864,l),
(1796,864,l),
(1796,1536,l)
);
},
{
closed = 1;
nodes = (
(1024,2138,l),
(736,1690,l),
(608,1786,l),
(928,2266,l),
(1120,2266,l),
(1440,1786,l),
(1312,1690,l)
);
}
);
};
layerId = "3D86ED3E-BC30-4996-8F23-7FA448982149";
shapes = (
{
ref = H;
},
{
pos = (548,384);
ref = circumflexcomb;
}
);
width = 2184;
}
);
unicode = 292;
},
{
glyphname = I;
lastChange = "2023-04-26 14:46:50 +0000";
layers = (
{
anchors = (
{
name = bottom;
pos = (288,0);
},
{
name = ogonek;
pos = (377,20);
},
{
name = top;
pos = (288,1536);
},
{
name = topleft;
pos = (20,1536);
}
);
background = {
shapes = (
{
closed = 1;
nodes = (
(384,1536,l),
(384,0,l),
(192,0,l),
(192,1536,l)
);
}
);
};
layerId = "3D86ED3E-BC30-4996-8F23-7FA448982149";
shapes = (
{
closed = 1;
nodes = (
(384,0,l),
(384,1536,l),
(192,1536,l),
(192,0,l)
);
}
);
width = 576;
}
);
unicode = 73;
},
{
glyphname = IJ;
lastChange = "2023-04-26 14:12:31 +0000";
layers = (
{
background = {
shapes = (
{
closed = 1;
nodes = (
(1255,156,o),
(1344,223,o),
(1344,448,cs),
(1344,1536,l),
(1536,1536,l),
(1536,448,ls),
(1536,286,o),
(1499,171,o),
(1424,104,cs),
(1347,35,o),
(1214,0,o),
(1024,0,cs),
(576,0,ls),
(321,0,o),
(179,56,o),
(144,270,cs),
(133,335,o),
(128,416,o),
(128,512,cs),
(128,576,l),
(320,576,l),
(320,512,ls),
(320,359,o),
(339,260,o),
(376,214,cs),
(417,163,o),
(483,156,o),
(576,156,cs),
(1024,156,ls)
);
},
{
closed = 1;
nodes = (
(2099,1536,l),
(2099,0,l),
(1907,0,l),
(1907,1536,l)
);
}
);
};
layerId = "3D86ED3E-BC30-4996-8F23-7FA448982149";
shapes = (
{
ref = I;
},
{
pos = (576,0);
ref = J;
}
);
width = 2291;
}
);
unicode = 306;
},
{
glyphname = Iacute;
lastChange = "2023-04-26 14:46:10 +0000";
layers = (
{
background = {
shapes = (
{
closed = 1;
nodes = (
(-61,1728,l),
(-125,1824,l),
(451,2304,l),
(579,2112,l)
);
},
{
closed = 1;
nodes = (
(321,1536,l),
(321,0,l),
(129,0,l),
(129,1536,l)
);
}
);
};
layerId = "3D86ED3E-BC30-4996-8F23-7FA448982149";
shapes = (
{
ref = I;
},
{
pos = (-128,384);
ref = acutecomb;
}
);
width = 576;
}
);
unicode = 205;
},
{
glyphname = Ibreve;
lastChange = "2023-04-26 14:46:10 +0000";
layers = (
{
background = {
shapes = (
{
closed = 1;
nodes = (
(1,2010,l),
(1,1924,o),
(24,1867,o),
(70,1839,cs),
(93,1825,o),
(145,1818,o),
(225,1818,cs),
(305,1818,o),
(358,1826,o),
(385,1842,cs),
(428,1868,o),
(449,1924,o),
(449,2010,c),
(609,2010,l),
(609,1774,o),
(468,1690,o),
(225,1690,cs),
(-18,1690,o),
(-159,1774,o),
(-159,2010,c)
);
},
{
closed = 1;
nodes = (
(321,1536,l),
(321,0,l),
(129,0,l),
(129,1536,l)
);
}
);
};
layerId = "3D86ED3E-BC30-4996-8F23-7FA448982149";
shapes = (
{
ref = I;
},
{
pos = (-352,384);
ref = brevecomb;
}
);
width = 576;
}
);
unicode = 300;
},
{
glyphname = Icaron;
lastChange = "2023-04-26 14:46:10 +0000";
layers = (
{
background = {
shapes = (
{
closed = 1;
nodes = (
(513,2266,l),
(641,2170,l),
(321,1690,l),
(129,1690,l),
(-191,2170,l),
(-63,2266,l),
(225,1818,l)
);
},
{
closed = 1;
nodes = (
(321,1536,l),
(321,0,l),
(129,0,l),
(129,1536,l)
);
}
);
};
layerId = "3D86ED3E-BC30-4996-8F23-7FA448982149";
shapes = (
{
ref = I;
},
{
pos = (-256,384);
ref = caroncomb;
}
);
width = 576;
}
);
unicode = 463;
},
{
glyphname = Icircumflex;
lastChange = "2023-04-26 14:46:10 +0000";
layers = (
{
background = {
shapes = (
{
closed = 1;
nodes = (
(227,2176,l),
(-61,1728,l),
(-189,1824,l),
(131,2304,l),
(323,2304,l),
(643,1824,l),
(515,1728,l)
);
},
{
closed = 1;
nodes = (
(321,1536,l),
(321,0,l),
(129,0,l),
(129,1536,l)
);
}
);
};
layerId = "3D86ED3E-BC30-4996-8F23-7FA448982149";
shapes = (
{
ref = I;
},
{
pos = (-256,384);
ref = circumflexcomb;
}
);
width = 576;
}
);
unicode = 206;
},
{
glyphname = Idblgrave;
lastChange = "2023-04-26 14:02:46 +0000";
layers = (
{
background = {
shapes = (
{
closed = 1;
nodes = (
(384,1536,l),
(384,0,l),
(192,0,l),
(192,1536,l)
);
}
);
};
layerId = "3D86ED3E-BC30-4996-8F23-7FA448982149";
shapes = (
{
ref = l;
}
);
width = 576;
}
);
unicode = 520;
},
{
glyphname = Idieresis;
lastChange = "2023-04-26 14:46:10 +0000";
layers = (
{
background = {
shapes = (
{
closed = 1;
nodes = (
(-61,1792,l),
(-253,1792,l),
(-253,1984,l),
(-61,1984,l)
);
},
{
closed = 1;
nodes = (
(707,1792,l),
(515,1792,l),
(515,1984,l),
(707,1984,l)
);
},
{
closed = 1;
nodes = (
(321,1536,l),
(321,0,l),
(129,0,l),
(129,1536,l)
);
}
);
};
layerId = "3D86ED3E-BC30-4996-8F23-7FA448982149";
shapes = (
{
ref = I;
},
{
pos = (-256,384);
ref = dieresiscomb;
}
);
width = 576;
}
);
unicode = 207;
},
{
glyphname = Idotaccent;
lastChange = "2023-05-03 13:43:43 +0000";
layers = (
{
background = {
shapes = (
{
closed = 1;
nodes = (
(320,1690,l),
(128,1690,l),
(128,1882,l),
(320,1882,l)
);
},
{
closed = 1;
nodes = (
(321,1536,l),
(321,0,l),
(129,0,l),
(129,1536,l)
);
}
);
};
layerId = "3D86ED3E-BC30-4996-8F23-7FA448982149";
shapes = (
{
ref = I;
},
{
pos = (64,384);
ref = dotaccentcomb;
}
);
width = 576;
}
);
unicode = 304;
},
{
glyphname = Igrave;
lastChange = "2023-04-26 14:46:10 +0000";
layers = (
{
background = {
shapes = (
{
closed = 1;
nodes = (
(3,2304,l),
(579,1824,l),
(515,1728,l),
(-125,2112,l)
);
},
{
closed = 1;
nodes = (
(321,1536,l),
(321,0,l),
(129,0,l),
(129,1536,l)
);
}
);
};
layerId = "3D86ED3E-BC30-4996-8F23-7FA448982149";
shapes = (
{
ref = I;
},
{
pos = (-130,444);
ref = gravecomb;
}
);
width = 576;
}
);
unicode = 204;
},
{
glyphname = Iinvertedbreve;
lastChange = "2023-05-03 13:29:42 +0000";
layers = (
{
background = {
shapes = (
{
closed = 1;
nodes = (
(-159,1925,o),
(-18,2010,o),
(225,2010,cs),
(468,2010,o),
(609,1926,o),
(609,1690,c),
(449,1690,l),
(449,1776,o),
(428,1832,o),
(385,1858,cs),
(358,1874,o),
(305,1882,o),
(225,1882,cs),
(145,1882,o),
(93,1875,o),
(70,1861,cs),
(24,1833,o),
(1,1776,o),
(1,1690,c),
(-159,1690,l)
);
},
{
closed = 1;
nodes = (
(321,1536,l),
(321,0,l),
(129,0,l),
(129,1536,l)
);
}
);
};
layerId = "3D86ED3E-BC30-4996-8F23-7FA448982149";
shapes = (
{
ref = I;
},
{
pos = (-352,384);
ref = breveinvertedcomb;
}
);
width = 576;
}
);
unicode = 522;
},
{
glyphname = Imacron;
lastChange = "2023-04-26 14:46:10 +0000";
layers = (
{
background = {
shapes = (
{
closed = 1;
nodes = (
(384,1536,l),
(384,0,l),
(192,0,l),
(192,1536,l)
);
},
{
closed = 1;
nodes = (
(-158,1850,l),
(610,1850,l),
(610,1690,l),
(-158,1690,l)
);
}
);
};
layerId = "3D86ED3E-BC30-4996-8F23-7FA448982149";
shapes = (
{
ref = I;
},
{
pos = (-224,384);
ref = macroncomb;
}
);
width = 576;
}
);
unicode = 298;
},
{
glyphname = Iogonek;
lastChange = "2023-04-26 14:46:17 +0000";
layers = (
{
background = {
shapes = (
{
closed = 1;
nodes = (
(384,1536,l),
(384,0,l),
(192,0,l),
(192,1536,l)
);
},
{
closed = 1;
nodes = (
(98,-373,o),
(176,-395,o),
(290,-395,c),
(290,-555,l),
(117,-555,o),
(0,-510,o),
(-61,-420,cs),
(-83,-387,o),
(-94,-353,o),
(-94,-317,cs),
(-94,-247,o),
(-80,-210,o),
(-54,-168,cs),
(-9,-96,o),
(63,-33,o),
(162,21,c),
(290,21,l),
(162,-64,o),
(98,-160,o),
(98,-267,cs)
);
}
);
};
layerId = "3D86ED3E-BC30-4996-8F23-7FA448982149";
shapes = (
{
ref = I;
},
{
pos = (-135,-44);
ref = ogonekcomb;
}
);
width = 576;
}
);
unicode = 302;
},
{
glyphname = Itilde;
lastChange = "2023-04-26 14:46:10 +0000";
layers = (
{
background = {
shapes = (
{
closed = 1;
nodes = (
(384,1536,l),
(384,0,l),
(192,0,l),
(192,1536,l)
);
},
{
closed = 1;
nodes = (
(-222,1690,l),
(-222,1855,o),
(-112,1947,o),
(34,1947,cs),
(105,1947,o),
(178,1930,o),
(253,1898,cs),
(297,1879,o),
(351,1850,o),
(404,1850,cs),
(468,1850,o),
(482,1867,o),
(482,1946,c),
(674,1946,l),
(674,1858,o),
(643,1790,o),
(582,1744,cs),
(534,1708,o),
(479,1690,o),
(418,1690,cs),
(348,1690,o),
(275,1706,o),
(199,1738,cs),
(155,1757,o),
(101,1786,o),
(48,1786,cs),
(-20,1786,o),
(-30,1768,o),
(-30,1690,c)
);
}
);
};
layerId = "3D86ED3E-BC30-4996-8F23-7FA448982149";
shapes = (
{
ref = I;
},
{
pos = (-288,384);
ref = tildecomb;
}
);
width = 576;
}
);
unicode = 296;
},
{
glyphname = J;
lastChange = "2023-05-03 13:31:24 +0000";
layers = (
{
anchors = (
{
name = bottom;
pos = (858,0);
},
{
name = top;
pos = (1441,1536);
}
);
background = {
shapes = (
{
closed = 1;
nodes = (
(1255,156,o),
(1344,223,o),
(1344,448,cs),
(1344,1536,l),
(1536,1536,l),
(1536,448,ls),
(1536,286,o),
(1499,171,o),
(1424,104,cs),
(1347,35,o),
(1214,0,o),
(1024,0,cs),
(576,0,ls),
(321,0,o),
(179,56,o),
(144,270,cs),
(133,335,o),
(128,416,o),
(128,512,cs),
(128,576,l),
(320,576,l),
(320,512,ls),
(320,359,o),
(339,260,o),
(376,214,cs),
(417,163,o),
(483,156,o),
(576,156,cs),
(1024,156,ls)
);
}
);
};
layerId = "3D86ED3E-BC30-4996-8F23-7FA448982149";
shapes = (
{
closed = 1;
nodes = (
(1024,0,ls),
(1214,0,o),
(1347,35,o),
(1424,104,cs),
(1499,171,o),
(1536,286,o),
(1536,448,cs),
(1536,1536,l),
(1344,1536,l),
(1344,448,ls),
(1344,223,o),
(1255,156,o),
(1024,156,cs),
(576,156,ls),
(483,156,o),
(417,163,o),
(376,214,cs),
(339,260,o),
(320,359,o),
(320,512,cs),
(320,576,l),
(128,576,l),
(128,512,ls),
(128,416,o),
(133,335,o),
(144,270,cs),
(179,56,o),
(321,0,o),
(576,0,cs)
);
}
);
width = 1715;
}
);
unicode = 74;
},
{
glyphname = Jcircumflex;
lastChange = "2023-05-03 13:31:24 +0000";
layers = (
{
background = {
shapes = (
{
closed = 1;
nodes = (
(1255,156,o),
(1344,223,o),
(1344,448,cs),
(1344,1536,l),
(1536,1536,l),
(1536,448,ls),
(1536,286,o),
(1499,171,o),
(1424,104,cs),
(1347,35,o),
(1214,0,o),
(1024,0,cs),
(576,0,ls),
(321,0,o),
(179,56,o),
(144,270,cs),
(133,335,o),
(128,416,o),
(128,512,cs),
(128,576,l),
(320,576,l),
(320,512,ls),
(320,359,o),
(339,260,o),
(376,214,cs),
(417,163,o),
(483,156,o),
(576,156,cs),
(1024,156,ls)
);
},
{
closed = 1;
nodes = (
(1440,2138,l),
(1152,1690,l),
(1024,1786,l),
(1344,2266,l),
(1536,2266,l),
(1856,1786,l),
(1728,1690,l)
);
}
);
};
layerId = "3D86ED3E-BC30-4996-8F23-7FA448982149";
shapes = (
{
ref = J;
},
{
pos = (897,384);
ref = circumflexcomb;
}
);
width = 1715;
}
);
unicode = 308;
},
{
glyphname = K;
lastChange = "2023-04-26 14:46:50 +0000";
layers = (
{
anchors = (
{
name = bottom;
pos = (1008,0);
},
{
name = top;
pos = (1008,1536);
}
);
background = {
shapes = (
{
closed = 1;
nodes = (
(1920,1536,l),
(761,735,l),
(761,834,l),
(1952,0,l),
(1664,0,l),
(569,753,l),
(726,704,l),
(298,704,l),
(384,790,l),
(384,0,l),
(192,0,l),
(192,1536,l),
(384,1536,l),
(384,778,l),
(298,864,l),
(726,864,l),
(568,816,l),
(1632,1536,l)
);
}
);
};
layerId = "3D86ED3E-BC30-4996-8F23-7FA448982149";
shapes = (
{
closed = 1;
nodes = (
(384,0,l),
(384,790,l),
(298,704,l),
(726,704,l),
(569,753,l),
(1664,0,l),
(1952,0,l),
(761,834,l),
(761,735,l),
(1920,1536,l),
(1632,1536,l),
(568,816,l),
(726,864,l),
(298,864,l),
(384,778,l),
(384,1536,l),
(192,1536,l),
(192,0,l)
);
}
);
width = 2016;
}
);
unicode = 75;
},
{
glyphname = Kcaron;
lastChange = "2023-04-26 14:42:36 +0000";
layers = (
{
background = {
shapes = (
{
closed = 1;
nodes = (
(1920,1536,l),
(761,735,l),
(761,834,l),
(1952,0,l),
(1664,0,l),
(569,753,l),
(726,704,l),
(298,704,l),
(384,790,l),
(384,0,l),
(192,0,l),
(192,1536,l),
(384,1536,l),
(384,778,l),
(298,864,l),
(726,864,l),
(568,816,l),
(1632,1536,l)
);
},
{
closed = 1;
nodes = (
(1280,2266,l),
(1408,2170,l),
(1088,1690,l),
(896,1690,l),
(576,2170,l),
(704,2266,l),
(992,1818,l)
);
}
);
};
layerId = "3D86ED3E-BC30-4996-8F23-7FA448982149";
shapes = (
{
ref = K;
},
{
pos = (464,384);
ref = caroncomb;
}
);
width = 2016;
}
);
unicode = 488;
},
{
glyphname = Kcommaaccent;
lastChange = "2023-04-27 15:48:27 +0000";
layers = (
{
background = {
shapes = (
{
closed = 1;
nodes = (
(1920,1536,l),
(761,735,l),
(761,834,l),
(1952,0,l),
(1664,0,l),
(569,753,l),
(726,704,l),
(298,704,l),
(384,790,l),
(384,0,l),
(192,0,l),
(192,1536,l),
(384,1536,l),
(384,778,l),
(298,864,l),
(726,864,l),
(568,816,l),
(1632,1536,l)
);
},
{
closed = 1;
nodes = (
(1136,-120,l),
(1008,-504,l),
(880,-504,l),
(944,-120,l)
);
}
);
};
layerId = "3D86ED3E-BC30-4996-8F23-7FA448982149";
shapes = (
{
ref = K;
},
{
pos = (784,0);
ref = commaaccentcomb;
}
);
width = 2016;
}
);
unicode = 310;
},
{
glyphname = L;
lastChange = "2023-05-19 11:57:16 +0000";
layers = (
{
anchors = (
{
name = bottom;
pos = (832,0);
},
{
name = center;
pos = (832,768);
},
{
name = top;
pos = (832,1536);
},
{
name = topright;
pos = (748,1638);
}
);
background = {
shapes = (
{
closed = 1;
nodes = (
(192,1536,l),
(384,1536,l),
(384,160,l),
(1600,160,l),
(1600,0,l),
(192,0,l)
);
}
);
};
layerId = "3D86ED3E-BC30-4996-8F23-7FA448982149";
shapes = (
{
closed = 1;
nodes = (
(1600,0,l),
(1600,160,l),
(384,160,l),
(384,1536,l),
(192,1536,l),
(192,0,l)
);
}
);
width = 1664;
}
);
unicode = 76;
},
{
glyphname = LJ;
lastChange = "2023-04-26 14:12:31 +0000";
layers = (
{
background = {
shapes = (
{
closed = 1;
nodes = (
(1255,156,o),
(1344,223,o),
(1344,448,cs),
(1344,1536,l),
(1536,1536,l),
(1536,448,ls),
(1536,286,o),
(1499,171,o),
(1424,104,cs),
(1347,35,o),
(1214,0,o),
(1024,0,cs),
(576,0,ls),
(321,0,o),
(179,56,o),
(144,270,cs),
(133,335,o),
(128,416,o),
(128,512,cs),
(128,576,l),
(320,576,l),
(320,512,ls),
(320,359,o),
(339,260,o),
(376,214,cs),
(417,163,o),
(483,156,o),
(576,156,cs),
(1024,156,ls)
);
},
{
closed = 1;
nodes = (
(1907,1536,l),
(2099,1536,l),
(2099,160,l),
(3315,160,l),
(3315,0,l),
(1907,0,l)
);
}
);
};
layerId = "3D86ED3E-BC30-4996-8F23-7FA448982149";
shapes = (
{
ref = L;
},
{
pos = (1664,0);
ref = J;
}
);
width = 3379;
}
);
unicode = 455;
},
{
glyphname = Lacute;
lastChange = "2023-04-26 14:41:37 +0000";
layers = (
{
background = {
shapes = (
{
closed = 1;
nodes = (
(192,1536,l),
(384,1536,l),
(384,160,l),
(1600,160,l),
(1600,0,l),
(192,0,l)
);
},
{
closed = 1;
nodes = (
(896,1690,l),
(832,1786,l),
(1408,2266,l),
(1536,2074,l)
);
}
);
};
layerId = "3D86ED3E-BC30-4996-8F23-7FA448982149";
shapes = (
{
ref = L;
},
{
pos = (416,384);
ref = acutecomb;
}
);
width = 1664;
}
);
unicode = 313;
},
{
glyphname = Lcaron;
lastChange = "2023-05-19 11:57:16 +0000";
layers = (
{
background = {
shapes = (
{
closed = 1;
nodes = (
(192,1536,l),
(384,1536,l),
(384,160,l),
(1600,160,l),
(1600,0,l),
(192,0,l)
);
},
{
closed = 1;
nodes = (
(1023,1568,l),
(895,1184,l),
(767,1184,l),
(831,1568,l)
);
}
);
};
layerId = "3D86ED3E-BC30-4996-8F23-7FA448982149";
shapes = (
{
ref = L;
},
{
pos = (601,0);
ref = caroncomb.alt;
}
);
width = 1664;
}
);
unicode = 317;
},
{
glyphname = Lcommaaccent;
lastChange = "2023-04-27 15:48:27 +0000";
layers = (
{
background = {
shapes = (
{
closed = 1;
nodes = (
(192,1536,l),
(384,1536,l),
(384,160,l),
(1600,160,l),
(1600,0,l),
(192,0,l)
);
},
{
closed = 1;
nodes = (
(1024,-120,l),
(896,-504,l),
(768,-504,l),
(832,-120,l)
);
}
);
};
layerId = "3D86ED3E-BC30-4996-8F23-7FA448982149";
shapes = (
{
ref = L;
},
{
pos = (608,0);
ref = commaaccentcomb;
}
);
width = 1664;
}
);
unicode = 315;
},
{
glyphname = Ldot;
lastChange = "2023-05-03 13:59:19 +0000";
layers = (
{
background = {
shapes = (
{
closed = 1;
nodes = (
(192,1536,l),
(384,1536,l),
(384,160,l),
(1600,160,l),
(1600,0,l),
(192,0,l)
);
},
{
closed = 1;
nodes = (
(992,689,l),
(800,689,l),
(800,881,l),
(992,881,l)
);
}
);
};
layerId = "3D86ED3E-BC30-4996-8F23-7FA448982149";
shapes = (
{
ref = L;
},
{
pos = (674,0);
ref = periodcentered;
}
);
width = 1664;
}
);
unicode = 319;
},
{
glyphname = Lj;
lastChange = "2023-04-26 14:12:31 +0000";
layers = (
{
background = {
shapes = (
{
closed = 1;
nodes = (
(192,1536,l),
(384,1536,l),
(384,160,l),
(1600,160,l),
(1600,0,l),
(192,0,l)
);
},
{
closed = 1;
nodes = (
(1627,-224,l),
(1772,-224,l),
(1901,-224,o),
(1952,-193,o),
(1952,-24,cs),
(1952,1152,l),
(2144,1152,l),
(2144,-24,ls),
(2144,-266,o),
(2046,-384,o),
(1772,-384,c),
(1627,-384,l)
);
},
{
closed = 1;
nodes = (
(1952,1344,l),
(1952,1536,l),
(2144,1536,l),
(2144,1344,l)
);
}
);
};
layerId = "3D86ED3E-BC30-4996-8F23-7FA448982149";
shapes = (
{
ref = L;
},
{
pos = (1664,0);
ref = j;
}
);
width = 2336;
}
);
unicode = 456;
},
{
glyphname = Lslash;
lastChange = "2023-04-26 14:46:50 +0000";
layers = (
{
background = {
shapes = (
{
closed = 1;
nodes = (
(64,928,l),
(768,1088,l),
(768,928,l),
(64,768,l)
);
},
{
closed = 1;
nodes = (
(192,0,l),
(192,1536,l),
(384,1536,l),
(384,160,l),
(1600,160,l),
(1600,0,l)
);
}
);
};
layerId = "3D86ED3E-BC30-4996-8F23-7FA448982149";
shapes = (
{
closed = 1;
nodes = (
(1600,0,l),
(1600,160,l),
(384,160,l),
(384,1536,l),
(192,1536,l),
(192,0,l)
);
},
{
closed = 1;
nodes = (
(768,928,l),
(768,1088,l),
(64,928,l),
(64,768,l)
);
}
);
width = 1664;
}
);
unicode = 321;
},
{
glyphname = M;
lastChange = "2023-04-26 14:46:50 +0000";
layers = (
{
anchors = (
{
name = bottom;
pos = (1404,0);
},
{
name = top;
pos = (1404,1536);
}
);
background = {
shapes = (
{
closed = 1;
nodes = (
(388,0,l),
(196,0,l),
(196,1536,l),
(482,1536,l),
(1411,283,l),
(2326,1536,l),
(2612,1536,l),
(2612,0,l),
(2420,0,l),
(2420,1362,l),
(1503,101,l),
(1329,101,l),
(388,1362,l)
);
}
);
};
layerId = "3D86ED3E-BC30-4996-8F23-7FA448982149";
shapes = (
{
closed = 1;
nodes = (
(388,0,l),
(388,1362,l),
(1329,101,l),
(1503,101,l),
(2420,1362,l),
(2420,0,l),
(2612,0,l),
(2612,1536,l),
(2326,1536,l),
(1411,283,l),
(482,1536,l),
(196,1536,l),
(196,0,l)
);
}
);
width = 2808;
}
);
unicode = 77;
},
{
glyphname = Mdotaccent;
lastChange = "2023-05-03 13:43:43 +0000";
layers = (
{
background = {
shapes = (
{
closed = 1;
nodes = (
(388,0,l),
(196,0,l),
(196,1536,l),
(482,1536,l),
(1411,283,l),
(2326,1536,l),
(2612,1536,l),
(2612,0,l),
(2420,0,l),
(2420,1362,l),
(1503,101,l),
(1329,101,l),
(388,1362,l)
);
},
{
closed = 1;
nodes = (
(1496,1690,l),
(1304,1690,l),
(1304,1882,l),
(1496,1882,l)
);
}
);
};
layerId = "3D86ED3E-BC30-4996-8F23-7FA448982149";
shapes = (
{
ref = M;
},
{
pos = (1180,384);
ref = dotaccentcomb;
}
);
width = 2808;
}
);
unicode = 7744;
},
{
glyphname = N;
lastChange = "2023-04-26 14:46:50 +0000";
layers = (
{
anchors = (
{
name = bottom;
pos = (1161,0);
},
{
name = top;
pos = (1161,1536);
}
);
background = {
shapes = (
{
closed = 1;
nodes = (
(384,0,l),
(192,0,l),
(192,1536,l),
(392,1536,l),
(1935,237,l),
(1937,237,l),
(1937,1536,l),
(2129,1536,l),
(2129,0,l),
(1929,0,l),
(386,1310,l),
(384,1310,l)
);
}
);
};
layerId = "3D86ED3E-BC30-4996-8F23-7FA448982149";
shapes = (
{
closed = 1;
nodes = (
(384,0,l),
(384,1310,l),
(386,1310,l),
(1929,0,l),
(2129,0,l),
(2129,1536,l),
(1937,1536,l),
(1937,237,l),
(1935,237,l),
(392,1536,l),
(192,1536,l),
(192,0,l)
);
}
);
width = 2321;
}
);
unicode = 78;
},
{
glyphname = NJ;
lastChange = "2023-04-26 14:12:31 +0000";
layers = (
{
background = {
shapes = (
{
closed = 1;
nodes = (
(1255,156,o),
(1344,223,o),
(1344,448,cs),
(1344,1536,l),
(1536,1536,l),
(1536,448,ls),
(1536,286,o),
(1499,171,o),
(1424,104,cs),
(1347,35,o),
(1214,0,o),
(1024,0,cs),
(576,0,ls),
(321,0,o),
(179,56,o),
(144,270,cs),
(133,335,o),
(128,416,o),
(128,512,cs),
(128,576,l),
(320,576,l),
(320,512,ls),
(320,359,o),
(339,260,o),
(376,214,cs),
(417,163,o),
(483,156,o),
(576,156,cs),
(1024,156,ls)
);
},
{
closed = 1;
nodes = (
(2099,0,l),
(1907,0,l),
(1907,1536,l),
(2107,1536,l),
(3650,237,l),
(3652,237,l),
(3652,1536,l),
(3844,1536,l),
(3844,0,l),
(3644,0,l),
(2101,1310,l),
(2099,1310,l)
);
}
);
};
layerId = "3D86ED3E-BC30-4996-8F23-7FA448982149";
shapes = (
{
ref = N;
},
{
pos = (2321,0);
ref = J;
}
);
width = 4036;
}
);
unicode = 458;
},
{
glyphname = Nacute;
lastChange = "2023-04-26 14:41:37 +0000";
layers = (
{
background = {
shapes = (
{
closed = 1;
nodes = (
(384,0,l),
(192,0,l),
(192,1536,l),
(392,1536,l),
(1935,237,l),
(1937,237,l),
(1937,1536,l),
(2129,1536,l),
(2129,0,l),
(1929,0,l),
(386,1310,l),
(384,1310,l)
);
},
{
closed = 1;
nodes = (
(1096,1690,l),
(1032,1786,l),
(1608,2266,l),
(1736,2074,l)
);
}
);
};
layerId = "3D86ED3E-BC30-4996-8F23-7FA448982149";
shapes = (
{
ref = N;
},
{
pos = (745,384);
ref = acutecomb;
}
);
width = 2321;
}
);
unicode = 323;
},
{
glyphname = Ncaron;
lastChange = "2023-04-26 14:42:36 +0000";
layers = (
{
background = {
shapes = (
{
closed = 1;
nodes = (
(384,0,l),
(192,0,l),
(192,1536,l),
(392,1536,l),
(1935,237,l),
(1937,237,l),
(1937,1536,l),
(2129,1536,l),
(2129,0,l),
(1929,0,l),
(386,1310,l),
(384,1310,l)
);
},
{
closed = 1;
nodes = (
(1384,2266,l),
(1512,2170,l),
(1192,1690,l),
(1000,1690,l),
(680,2170,l),
(808,2266,l),
(1096,1818,l)
);
}
);
};
layerId = "3D86ED3E-BC30-4996-8F23-7FA448982149";
shapes = (
{
ref = N;
},
{
pos = (617,384);
ref = caroncomb;
}
);
width = 2321;
}
);
unicode = 327;
},
{
glyphname = Ncommaaccent;
lastChange = "2023-04-27 15:48:27 +0000";
layers = (
{
background = {
shapes = (
{
closed = 1;
nodes = (
(384,0,l),
(192,0,l),
(192,1536,l),
(392,1536,l),
(1935,237,l),
(1937,237,l),
(1937,1536,l),
(2129,1536,l),
(2129,0,l),
(1929,0,l),
(386,1310,l),
(384,1310,l)
);
},
{
closed = 1;
nodes = (
(1224,-121,l),
(1096,-505,l),
(968,-505,l),
(1032,-121,l)
);
}
);
};
layerId = "3D86ED3E-BC30-4996-8F23-7FA448982149";
shapes = (
{
ref = N;
},
{
pos = (937,0);
ref = commaaccentcomb;
}
);
width = 2321;
}
);
unicode = 325;
},
{
glyphname = Ngrave;
lastChange = "2023-04-27 14:17:45 +0000";
layers = (
{
background = {
shapes = (
{
closed = 1;
nodes = (
(384,0,l),
(192,0,l),
(192,1536,l),
(392,1536,l),
(1935,237,l),
(1937,237,l),
(1937,1536,l),
(2129,1536,l),
(2129,0,l),
(1929,0,l),
(386,1310,l),
(384,1310,l)
);
},
{
closed = 1;
nodes = (
(584,2266,l),
(1160,1786,l),
(1096,1690,l),
(456,2074,l)
);
}
);
};
layerId = "3D86ED3E-BC30-4996-8F23-7FA448982149";
shapes = (
{
ref = N;
},
{
pos = (743,444);
ref = gravecomb;
}
);
width = 2321;
}
);
unicode = 504;
},
{
glyphname = Nj;
lastChange = "2023-04-26 14:12:31 +0000";
layers = (
{
background = {
shapes = (
{
closed = 1;
nodes = (
(384,0,l),
(192,0,l),
(192,1536,l),
(392,1536,l),
(1935,237,l),
(1937,237,l),
(1937,1536,l),
(2129,1536,l),
(2129,0,l),
(1929,0,l),
(386,1310,l),
(384,1310,l)
);
},
{
closed = 1;
nodes = (
(2284,-224,l),
(2429,-224,l),
(2558,-224,o),
(2609,-193,o),
(2609,-24,cs),
(2609,1152,l),
(2801,1152,l),
(2801,-24,ls),
(2801,-266,o),
(2703,-384,o),
(2429,-384,c),
(2284,-384,l)
);
},
{
closed = 1;
nodes = (
(2609,1344,l),
(2609,1536,l),
(2801,1536,l),
(2801,1344,l)
);
}
);
};
layerId = "3D86ED3E-BC30-4996-8F23-7FA448982149";
shapes = (
{
ref = N;
},
{
pos = (2321,0);
ref = j;
}
);
width = 2993;
}
);
unicode = 459;
},
{
glyphname = Ntilde;
lastChange = "2023-04-26 14:43:40 +0000";
layers = (
{
background = {
shapes = (
{
closed = 1;
nodes = (
(384,0,l),
(192,0,l),
(192,1536,l),
(392,1536,l),
(1935,237,l),
(1937,237,l),
(1937,1536,l),
(2129,1536,l),
(2129,0,l),
(1929,0,l),
(386,1310,l),
(384,1310,l)
);
},
{
closed = 1;
nodes = (
(648,1792,l),
(648,1957,o),
(758,2049,o),
(904,2049,cs),
(975,2049,o),
(1048,2032,o),
(1123,2000,cs),
(1167,1981,o),
(1221,1952,o),
(1274,1952,cs),
(1338,1952,o),
(1352,1969,o),
(1352,2048,c),
(1544,2048,l),
(1544,1960,o),
(1513,1892,o),
(1452,1846,cs),
(1404,1810,o),
(1349,1792,o),
(1288,1792,cs),
(1218,1792,o),
(1145,1808,o),
(1069,1840,cs),
(1025,1859,o),
(971,1888,o),
(918,1888,cs),
(850,1888,o),
(840,1870,o),
(840,1792,c)
);
}
);
};
layerId = "3D86ED3E-BC30-4996-8F23-7FA448982149";
shapes = (
{
ref = N;
},
{
pos = (585,384);
ref = tildecomb;
}
);
width = 2321;
}
);
unicode = 209;
},
{
glyphname = Eng;
lastChange = "2023-04-26 14:02:46 +0000";
layers = (
{
background = {
shapes = (
{
closed = 1;
nodes = (
(1152,1819,l),
(1280,1723,l),
(960,1243,l),
(768,1243,l),
(448,1723,l),
(576,1819,l),
(864,1371,l)
);
},
{
closed = 1;
nodes = (
(1348,653,ls),
(1348,968,o),
(1259,1014,o),
(910,1014,cs),
(510,1014,o),
(388,920,o),
(388,694,cs),
(388,0,l),
(196,0,l),
(196,1152,l),
(388,1152,l),
(388,913,l),
(364,964,l),
(453,1103,o),
(565,1174,o),
(944,1174,cs),
(1396,1174,o),
(1542,1067,o),
(1541,653,cs),
(1540,0,l),
(1348,0,l)
);
}
);
};
layerId = "3D86ED3E-BC30-4996-8F23-7FA448982149";
shapes = (
{
alignment = -1;
pos = (320,-37);
ref = caron;
},
{
alignment = -1;
pos = (64,0);
ref = n;
}
);
width = 1601;
}
);
unicode = 330;
},
{
glyphname = O;
lastChange = "2023-05-03 13:29:50 +0000";
layers = (
{
anchors = (
{
name = bottom;
pos = (836,0);
},
{
name = center;
pos = (836,768);
},
{
name = ogonek;
pos = (1204,20);
},
{
name = top;
pos = (1073,1536);
},
{
name = topleft;
pos = (-217,1536);
},
{
name = topright;
pos = (1888,1536);
}
);
background = {
shapes = (
{
closed = 1;
nodes = (
(1171,1402,l),
(871,1402,l),
(394,1402,o),
(320,1374,o),
(320,788,c),
(128,748,l),
(128,788,l),
(128,1467,o),
(271,1568,o),
(871,1568,c),
(1171,1568,l)
);
},
{
closed = 1;
nodes = (
(128,89,o),
(128,748,c),
(320,788,l),
(320,748,l),
(320,182,o),
(394,134,o),
(871,134,c),
(1171,134,l),
(1171,-32,l),
(871,-32,l),
(271,-32,o)
);
},
{
closed = 1;
nodes = (
(2017,1467,o),
(2017,788,c),
(2017,748,l),
(1825,788,l),
(1825,1374,o),
(1751,1402,o),
(1274,1402,c),
(974,1402,l),
(974,1568,l),
(1274,1568,l),
(1874,1568,o)
);
},
{
closed = 1;
nodes = (
(974,134,l),
(1274,134,l),
(1751,134,o),
(1825,182,o),
(1825,748,c),
(1825,788,l),
(2017,748,l),
(2017,89,o),
(1874,-32,o),
(1274,-32,c),
(974,-32,l)
);
}
);
};
layerId = "3D86ED3E-BC30-4996-8F23-7FA448982149";
shapes = (
{
closed = 1;
nodes = (
(1274,-32,ls),
(1874,-32,o),
(2017,89,o),
(2017,748,cs),
(2017,788,ls),
(2017,1467,o),
(1874,1568,o),
(1274,1568,cs),
(871,1568,ls),
(271,1568,o),
(128,1467,o),
(128,788,cs),
(128,748,ls),
(128,89,o),
(271,-32,o),
(871,-32,cs)
);
},
{
closed = 1;
nodes = (
(394,134,o),
(320,182,o),
(320,748,cs),
(320,788,ls),
(320,1374,o),
(394,1402,o),
(871,1402,cs),
(1274,1402,ls),
(1751,1402,o),
(1825,1374,o),
(1825,788,cs),
(1825,748,ls),
(1825,182,o),
(1751,134,o),
(1274,134,cs),
(871,134,ls)
);
}
);
width = 2145;
}
);
unicode = 79;
},
{
glyphname = Oacute;
lastChange = "2023-05-03 13:33:04 +0000";
layers = (
{
background = {
shapes = (
{
closed = 1;
nodes = (
(1171,1402,l),
(871,1402,l),
(394,1402,o),
(320,1374,o),
(320,788,c),
(128,748,l),
(128,788,l),
(128,1467,o),
(271,1568,o),
(871,1568,c),
(1171,1568,l)
);
},
{
closed = 1;
nodes = (
(128,89,o),
(128,748,c),
(320,788,l),
(320,748,l),
(320,182,o),
(394,134,o),
(871,134,c),
(1171,134,l),
(1171,-32,l),
(871,-32,l),
(271,-32,o)
);
},
{
closed = 1;
nodes = (
(2017,1467,o),
(2017,788,c),
(2017,748,l),
(1825,788,l),
(1825,1374,o),
(1751,1402,o),
(1274,1402,c),
(974,1402,l),
(974,1568,l),
(1274,1568,l),
(1874,1568,o)
);
},
{
closed = 1;
nodes = (
(974,134,l),
(1274,134,l),
(1751,134,o),
(1825,182,o),
(1825,748,c),
(1825,788,l),
(2017,748,l),
(2017,89,o),
(1874,-32,o),
(1274,-32,c),
(974,-32,l)
);
},
{
closed = 1;
nodes = (
(831,1728,l),
(767,1824,l),
(1343,2304,l),
(1471,2112,l)
);
}
);
};
layerId = "3D86ED3E-BC30-4996-8F23-7FA448982149";
shapes = (
{
ref = O;
},
{
pos = (657,384);
ref = acutecomb;
}
);
width = 2145;
}
);
unicode = 211;
},
{
glyphname = Obreve;
lastChange = "2023-05-03 13:33:04 +0000";
layers = (
{
background = {
shapes = (
{
closed = 1;
nodes = (
(1171,1402,l),
(871,1402,l),
(394,1402,o),
(320,1374,o),
(320,788,c),
(128,748,l),
(128,788,l),
(128,1467,o),
(271,1568,o),
(871,1568,c),
(1171,1568,l)
);
},
{
closed = 1;
nodes = (
(128,89,o),
(128,748,c),
(320,788,l),
(320,748,l),
(320,182,o),
(394,134,o),
(871,134,c),
(1171,134,l),
(1171,-32,l),
(871,-32,l),
(271,-32,o)
);
},
{
closed = 1;
nodes = (
(2017,1467,o),
(2017,788,c),
(2017,748,l),
(1825,788,l),
(1825,1374,o),
(1751,1402,o),
(1274,1402,c),
(974,1402,l),
(974,1568,l),
(1274,1568,l),
(1874,1568,o)
);
},
{
closed = 1;
nodes = (
(974,134,l),
(1274,134,l),
(1751,134,o),
(1825,182,o),
(1825,748,c),
(1825,788,l),
(2017,748,l),
(2017,89,o),
(1874,-32,o),
(1274,-32,c),
(974,-32,l)
);
},
{
closed = 1;
nodes = (
(897,2010,l),
(897,1924,o),
(920,1867,o),
(966,1839,cs),
(989,1825,o),
(1041,1818,o),
(1121,1818,cs),
(1201,1818,o),
(1254,1826,o),
(1281,1842,cs),
(1324,1868,o),
(1345,1924,o),
(1345,2010,c),
(1505,2010,l),
(1505,1774,o),
(1364,1690,o),
(1121,1690,cs),
(878,1690,o),
(737,1774,o),
(737,2010,c)
);
}
);
};
layerId = "3D86ED3E-BC30-4996-8F23-7FA448982149";
shapes = (
{
ref = O;
},
{
pos = (433,384);
ref = brevecomb;
}
);
width = 2145;
}
);
unicode = 334;
},
{
glyphname = Ocaron;
lastChange = "2023-05-03 13:33:04 +0000";
layers = (
{
background = {
shapes = (
{
closed = 1;
nodes = (
(1171,1402,l),
(871,1402,l),
(394,1402,o),
(320,1374,o),
(320,788,c),
(128,748,l),
(128,788,l),
(128,1467,o),
(271,1568,o),
(871,1568,c),
(1171,1568,l)
);
},
{
closed = 1;
nodes = (
(128,89,o),
(128,748,c),
(320,788,l),
(320,748,l),
(320,182,o),
(394,134,o),
(871,134,c),
(1171,134,l),
(1171,-32,l),
(871,-32,l),
(271,-32,o)
);
},
{
closed = 1;
nodes = (
(2017,1467,o),
(2017,788,c),
(2017,748,l),
(1825,788,l),
(1825,1374,o),
(1751,1402,o),
(1274,1402,c),
(974,1402,l),
(974,1568,l),
(1274,1568,l),
(1874,1568,o)
);
},
{
closed = 1;
nodes = (
(974,134,l),
(1274,134,l),
(1751,134,o),
(1825,182,o),
(1825,748,c),
(1825,788,l),
(2017,748,l),
(2017,89,o),
(1874,-32,o),
(1274,-32,c),
(974,-32,l)
);
},
{
closed = 1;
nodes = (
(1409,2266,l),
(1537,2170,l),
(1217,1690,l),
(1025,1690,l),
(705,2170,l),
(833,2266,l),
(1121,1818,l)
);
}
);
};
layerId = "3D86ED3E-BC30-4996-8F23-7FA448982149";
shapes = (
{
ref = O;
},
{
pos = (529,384);
ref = caroncomb;
}
);
width = 2145;
}
);
unicode = 465;
},
{
glyphname = Ocircumflex;
lastChange = "2023-05-03 13:33:04 +0000";
layers = (
{
background = {
shapes = (
{
closed = 1;
nodes = (
(1171,1402,l),
(871,1402,l),
(394,1402,o),
(320,1374,o),
(320,788,c),
(128,748,l),
(128,788,l),
(128,1467,o),
(271,1568,o),
(871,1568,c),
(1171,1568,l)
);
},
{
closed = 1;
nodes = (
(128,89,o),
(128,748,c),
(320,788,l),
(320,748,l),
(320,182,o),
(394,134,o),
(871,134,c),
(1171,134,l),
(1171,-32,l),
(871,-32,l),
(271,-32,o)
);
},
{
closed = 1;
nodes = (
(2017,1467,o),
(2017,788,c),
(2017,748,l),
(1825,788,l),
(1825,1374,o),
(1751,1402,o),
(1274,1402,c),
(974,1402,l),
(974,1568,l),
(1274,1568,l),
(1874,1568,o)
);
},
{
closed = 1;
nodes = (
(974,134,l),
(1274,134,l),
(1751,134,o),
(1825,182,o),
(1825,748,c),
(1825,788,l),
(2017,748,l),
(2017,89,o),
(1874,-32,o),
(1274,-32,c),
(974,-32,l)
);
},
{
closed = 1;
nodes = (
(1119,2176,l),
(831,1728,l),
(703,1824,l),
(1023,2304,l),
(1215,2304,l),
(1535,1824,l),
(1407,1728,l)
);
}
);
};
layerId = "3D86ED3E-BC30-4996-8F23-7FA448982149";
shapes = (
{
ref = O;
},
{
pos = (529,384);
ref = circumflexcomb;
}
);
width = 2145;
}
);
unicode = 212;
},
{
glyphname = Odblgrave;
lastChange = "2023-04-26 14:02:46 +0000";
layers = (
{
background = {
shapes = (
{
closed = 1;
nodes = (
(1171,1402,l),
(871,1402,l),
(394,1402,o),
(320,1374,o),
(320,788,c),
(128,748,l),
(128,788,l),
(128,1467,o),
(271,1568,o),
(871,1568,c),
(1171,1568,l)
);
},
{
closed = 1;
nodes = (
(128,89,o),
(128,748,c),
(320,788,l),
(320,748,l),
(320,182,o),
(394,134,o),
(871,134,c),
(1171,134,l),
(1171,-32,l),
(871,-32,l),
(271,-32,o)
);
},
{
closed = 1;
nodes = (
(2017,1467,o),
(2017,788,c),
(2017,748,l),
(1825,788,l),
(1825,1374,o),
(1751,1402,o),
(1274,1402,c),
(974,1402,l),
(974,1568,l),
(1274,1568,l),
(1874,1568,o)
);
},
{
closed = 1;
nodes = (
(974,134,l),
(1274,134,l),
(1751,134,o),
(1825,182,o),
(1825,748,c),
(1825,788,l),
(2017,748,l),
(2017,89,o),
(1874,-32,o),
(1274,-32,c),
(974,-32,l)
);
}
);
};
layerId = "3D86ED3E-BC30-4996-8F23-7FA448982149";
shapes = (
{
ref = O;
}
);
width = 2145;
}
);
unicode = 524;
},
{
glyphname = Odieresis;
lastChange = "2023-05-03 13:33:04 +0000";
layers = (
{
background = {
shapes = (
{
closed = 1;
nodes = (
(1171,1402,l),
(871,1402,l),
(394,1402,o),
(320,1374,o),
(320,788,c),
(128,748,l),
(128,788,l),
(128,1467,o),
(271,1568,o),
(871,1568,c),
(1171,1568,l)
);
},
{
closed = 1;
nodes = (
(128,89,o),
(128,748,c),
(320,788,l),
(320,748,l),
(320,182,o),
(394,134,o),
(871,134,c),
(1171,134,l),
(1171,-32,l),
(871,-32,l),
(271,-32,o)
);
},
{
closed = 1;
nodes = (
(2017,1467,o),
(2017,788,c),
(2017,748,l),
(1825,788,l),
(1825,1374,o),
(1751,1402,o),
(1274,1402,c),
(974,1402,l),
(974,1568,l),
(1274,1568,l),
(1874,1568,o)
);
},
{
closed = 1;
nodes = (
(974,134,l),
(1274,134,l),
(1751,134,o),
(1825,182,o),
(1825,748,c),
(1825,788,l),
(2017,748,l),
(2017,89,o),
(1874,-32,o),
(1274,-32,c),
(974,-32,l)
);
},
{
closed = 1;
nodes = (
(831,1792,l),
(639,1792,l),
(639,1984,l),
(831,1984,l)
);
},
{
closed = 1;
nodes = (
(1599,1792,l),
(1407,1792,l),
(1407,1984,l),
(1599,1984,l)
);
}
);
};
layerId = "3D86ED3E-BC30-4996-8F23-7FA448982149";
shapes = (
{
ref = O;
},
{
pos = (529,384);
ref = dieresiscomb;
}
);
width = 2145;
}
);
unicode = 214;
},
{
glyphname = Odotaccent;
lastChange = "2023-05-03 13:43:43 +0000";
layers = (
{
background = {
shapes = (
{
closed = 1;
nodes = (
(1171,1402,l),
(871,1402,l),
(394,1402,o),
(320,1374,o),
(320,788,c),
(128,748,l),
(128,788,l),
(128,1467,o),
(271,1568,o),
(871,1568,c),
(1171,1568,l)
);
},
{
closed = 1;
nodes = (
(128,89,o),
(128,748,c),
(320,788,l),
(320,748,l),
(320,182,o),
(394,134,o),
(871,134,c),
(1171,134,l),
(1171,-32,l),
(871,-32,l),
(271,-32,o)
);
},
{
closed = 1;
nodes = (
(2017,1467,o),
(2017,788,c),
(2017,748,l),
(1825,788,l),
(1825,1374,o),
(1751,1402,o),
(1274,1402,c),
(974,1402,l),
(974,1568,l),
(1274,1568,l),
(1874,1568,o)
);
},
{
closed = 1;
nodes = (
(974,134,l),
(1274,134,l),
(1751,134,o),
(1825,182,o),
(1825,748,c),
(1825,788,l),
(2017,748,l),
(2017,89,o),
(1874,-32,o),
(1274,-32,c),
(974,-32,l)
);
},
{
closed = 1;
nodes = (
(1217,1690,l),
(1025,1690,l),
(1025,1882,l),
(1217,1882,l)
);
}
);
};
layerId = "3D86ED3E-BC30-4996-8F23-7FA448982149";
shapes = (
{
ref = O;
},
{
pos = (849,384);
ref = dotaccentcomb;
}
);
width = 2145;
}
);
unicode = 558;
},
{
glyphname = Ograve;
lastChange = "2023-05-03 13:33:04 +0000";
layers = (
{
background = {
shapes = (
{
closed = 1;
nodes = (
(1171,1402,l),
(871,1402,l),
(394,1402,o),
(320,1374,o),
(320,788,c),
(128,748,l),
(128,788,l),
(128,1467,o),
(271,1568,o),
(871,1568,c),
(1171,1568,l)
);
},
{
closed = 1;
nodes = (
(128,89,o),
(128,748,c),
(320,788,l),
(320,748,l),
(320,182,o),
(394,134,o),
(871,134,c),
(1171,134,l),
(1171,-32,l),
(871,-32,l),
(271,-32,o)
);
},
{
closed = 1;
nodes = (
(2017,1467,o),
(2017,788,c),
(2017,748,l),
(1825,788,l),
(1825,1374,o),
(1751,1402,o),
(1274,1402,c),
(974,1402,l),
(974,1568,l),
(1274,1568,l),
(1874,1568,o)
);
},
{
closed = 1;
nodes = (
(974,134,l),
(1274,134,l),
(1751,134,o),
(1825,182,o),
(1825,748,c),
(1825,788,l),
(2017,748,l),
(2017,89,o),
(1874,-32,o),
(1274,-32,c),
(974,-32,l)
);
},
{
closed = 1;
nodes = (
(895,2304,l),
(1471,1824,l),
(1407,1728,l),
(767,2112,l)
);
}
);
};
layerId = "3D86ED3E-BC30-4996-8F23-7FA448982149";
shapes = (
{
ref = O;
},
{
pos = (655,444);
ref = gravecomb;
}
);
width = 2145;
}
);
unicode = 210;
},
{
glyphname = Ohungarumlaut;
lastChange = "2023-05-03 13:33:04 +0000";
layers = (
{
background = {
shapes = (
{
closed = 1;
nodes = (
(1171,1402,l),
(871,1402,l),
(394,1402,o),
(320,1374,o),
(320,788,c),
(128,748,l),
(128,788,l),
(128,1467,o),
(271,1568,o),
(871,1568,c),
(1171,1568,l)
);
},
{
closed = 1;
nodes = (
(128,89,o),
(128,748,c),
(320,788,l),
(320,748,l),
(320,182,o),
(394,134,o),
(871,134,c),
(1171,134,l),
(1171,-32,l),
(871,-32,l),
(271,-32,o)
);
},
{
closed = 1;
nodes = (
(2017,1467,o),
(2017,788,c),
(2017,748,l),
(1825,788,l),
(1825,1374,o),
(1751,1402,o),
(1274,1402,c),
(974,1402,l),
(974,1568,l),
(1274,1568,l),
(1874,1568,o)
);
},
{
closed = 1;
nodes = (
(974,134,l),
(1274,134,l),
(1751,134,o),
(1825,182,o),
(1825,748,c),
(1825,788,l),
(2017,748,l),
(2017,89,o),
(1874,-32,o),
(1274,-32,c),
(974,-32,l)
);
},
{
closed = 1;
nodes = (
(844,1690,l),
(780,1786,l),
(1356,2266,l),
(1484,2074,l)
);
},
{
closed = 1;
nodes = (
(1397,1690,l),
(1333,1786,l),
(1909,2266,l),
(2037,2074,l)
);
}
);
};
layerId = "3D86ED3E-BC30-4996-8F23-7FA448982149";
shapes = (
{
ref = O;
},
{
pos = (602,408);
ref = hungarumlautcomb;
}
);
width = 2145;
}
);
unicode = 336;
},
{
glyphname = Oinvertedbreve;
lastChange = "2023-05-03 13:29:50 +0000";
layers = (
{
background = {
shapes = (
{
closed = 1;
nodes = (
(737,1925,o),
(878,2010,o),
(1121,2010,cs),
(1364,2010,o),
(1505,1926,o),
(1505,1690,c),
(1345,1690,l),
(1345,1776,o),
(1324,1832,o),
(1281,1858,cs),
(1254,1874,o),
(1201,1882,o),
(1121,1882,cs),
(1041,1882,o),
(989,1875,o),
(966,1861,cs),
(920,1833,o),
(897,1776,o),
(897,1690,c),
(737,1690,l)
);
},
{
closed = 1;
nodes = (
(1172,1402,l),
(872,1402,l),
(395,1402,o),
(321,1374,o),
(321,788,c),
(129,748,l),
(129,788,l),
(129,1467,o),
(272,1568,o),
(872,1568,c),
(1172,1568,l)
);
},
{
closed = 1;
nodes = (
(129,89,o),
(129,748,c),
(321,788,l),
(321,748,l),
(321,182,o),
(395,134,o),
(872,134,c),
(1172,134,l),
(1172,-32,l),
(872,-32,l),
(272,-32,o)
);
},
{
closed = 1;
nodes = (
(2018,1467,o),
(2018,788,c),
(2018,748,l),
(1826,788,l),
(1826,1374,o),
(1752,1402,o),
(1275,1402,c),
(975,1402,l),
(975,1568,l),
(1275,1568,l),
(1875,1568,o)
);
},
{
closed = 1;
nodes = (
(975,134,l),
(1275,134,l),
(1752,134,o),
(1826,182,o),
(1826,748,c),
(1826,788,l),
(2018,748,l),
(2018,89,o),
(1875,-32,o),
(1275,-32,c),
(975,-32,l)
);
}
);
};
layerId = "3D86ED3E-BC30-4996-8F23-7FA448982149";
shapes = (
{
ref = O;
},
{
pos = (433,384);
ref = breveinvertedcomb;
}
);
width = 2145;
}
);
unicode = 526;
},
{
glyphname = Omacron;
lastChange = "2023-05-03 13:33:04 +0000";
layers = (
{
background = {
shapes = (
{
closed = 1;
nodes = (
(1171,1402,l),
(871,1402,l),
(394,1402,o),
(320,1374,o),
(320,788,c),
(128,748,l),
(128,788,l),
(128,1467,o),
(271,1568,o),
(871,1568,c),
(1171,1568,l)
);
},
{
closed = 1;
nodes = (
(128,89,o),
(128,748,c),
(320,788,l),
(320,748,l),
(320,182,o),
(394,134,o),
(871,134,c),
(1171,134,l),
(1171,-32,l),
(871,-32,l),
(271,-32,o)
);
},
{
closed = 1;
nodes = (
(2017,1467,o),
(2017,788,c),
(2017,748,l),
(1825,788,l),
(1825,1374,o),
(1751,1402,o),
(1274,1402,c),
(974,1402,l),
(974,1568,l),
(1274,1568,l),
(1874,1568,o)
);
},
{
closed = 1;
nodes = (
(974,134,l),
(1274,134,l),
(1751,134,o),
(1825,182,o),
(1825,748,c),
(1825,788,l),
(2017,748,l),
(2017,89,o),
(1874,-32,o),
(1274,-32,c),
(974,-32,l)
);
},
{
closed = 1;
nodes = (
(737,1850,l),
(1505,1850,l),
(1505,1690,l),
(737,1690,l)
);
}
);
};
layerId = "3D86ED3E-BC30-4996-8F23-7FA448982149";
shapes = (
{
ref = O;
},
{
pos = (561,384);
ref = macroncomb;
}
);
width = 2145;
}
);
unicode = 332;
},
{
glyphname = Oogonek;
lastChange = "2023-04-26 14:47:05 +0000";
layers = (
{
background = {
shapes = (
{
closed = 1;
nodes = (
(1171,1402,l),
(871,1402,l),
(394,1402,o),
(320,1374,o),
(320,788,c),
(128,748,l),
(128,788,l),
(128,1467,o),
(271,1568,o),
(871,1568,c),
(1171,1568,l)
);
},
{
closed = 1;
nodes = (
(128,89,o),
(128,748,c),
(320,788,l),
(320,748,l),
(320,182,o),
(394,134,o),
(871,134,c),
(1171,134,l),
(1171,-32,l),
(871,-32,l),
(271,-32,o)
);
},
{
closed = 1;
nodes = (
(2017,1467,o),
(2017,788,c),
(2017,748,l),
(1825,788,l),
(1825,1374,o),
(1751,1402,o),
(1274,1402,c),
(974,1402,l),
(974,1568,l),
(1274,1568,l),
(1874,1568,o)
);
},
{
closed = 1;
nodes = (
(974,134,l),
(1274,134,l),
(1751,134,o),
(1825,182,o),
(1825,748,c),
(1825,788,l),
(2017,748,l),
(2017,89,o),
(1874,-32,o),
(1274,-32,c),
(974,-32,l)
);
},
{
closed = 1;
nodes = (
(993,-406,o),
(1071,-428,o),
(1185,-428,c),
(1185,-588,l),
(1012,-588,o),
(895,-543,o),
(834,-453,cs),
(812,-420,o),
(801,-386,o),
(801,-350,cs),
(801,-280,o),
(815,-243,o),
(841,-201,cs),
(886,-129,o),
(958,-66,o),
(1057,-12,c),
(1185,-12,l),
(1057,-97,o),
(993,-193,o),
(993,-300,cs)
);
}
);
};
layerId = "3D86ED3E-BC30-4996-8F23-7FA448982149";
shapes = (
{
ref = O;
},
{
pos = (692,-44);
ref = ogonekcomb;
}
);
width = 2145;
}
);
unicode = 490;
},
{
glyphname = Oslash;
lastChange = "2023-04-26 14:46:50 +0000";
layers = (
{
background = {
shapes = (
{
closed = 1;
nodes = (
(1644,1740,l),
(664,-254,l),
(538,-202,l),
(1518,1792,l)
);
},
{
closed = 1;
nodes = (
(1171,1402,l),
(871,1402,l),
(394,1402,o),
(320,1374,o),
(320,788,c),
(128,748,l),
(128,788,l),
(128,1467,o),
(271,1568,o),
(871,1568,c),
(1171,1568,l)
);
},
{
closed = 1;
nodes = (
(128,89,o),
(128,748,c),
(320,788,l),
(320,748,l),
(320,182,o),
(394,134,o),
(871,134,c),
(1171,134,l),
(1171,-32,l),
(871,-32,l),
(271,-32,o)
);
},
{
closed = 1;
nodes = (
(2017,1467,o),
(2017,788,c),
(2017,748,l),
(1825,788,l),
(1825,1374,o),
(1751,1402,o),
(1274,1402,c),
(974,1402,l),
(974,1568,l),
(1274,1568,l),
(1874,1568,o)
);
},
{
closed = 1;
nodes = (
(974,134,l),
(1274,134,l),
(1751,134,o),
(1825,182,o),
(1825,748,c),
(1825,788,l),
(2017,748,l),
(2017,89,o),
(1874,-32,o),
(1274,-32,c),
(974,-32,l)
);
}
);
};
layerId = "3D86ED3E-BC30-4996-8F23-7FA448982149";
shapes = (
{
closed = 1;
nodes = (
(1644,1740,l),
(1518,1792,l),
(538,-202,l),
(664,-254,l)
);
},
{
ref = O;
}
);
width = 2145;
}
);
unicode = 216;
},
{
glyphname = Oslashacute;
lastChange = "2023-05-03 13:33:04 +0000";
layers = (
{
background = {
shapes = (
{
closed = 1;
nodes = (
(1644,1740,l),
(664,-254,l),
(538,-202,l),
(1518,1792,l)
);
},
{
closed = 1;
nodes = (
(1171,1402,l),
(871,1402,l),
(394,1402,o),
(320,1374,o),
(320,788,c),
(128,748,l),
(128,788,l),
(128,1467,o),
(271,1568,o),
(871,1568,c),
(1171,1568,l)
);
},
{
closed = 1;
nodes = (
(128,89,o),
(128,748,c),
(320,788,l),
(320,748,l),
(320,182,o),
(394,134,o),
(871,134,c),
(1171,134,l),
(1171,-32,l),
(871,-32,l),
(271,-32,o)
);
},
{
closed = 1;
nodes = (
(2017,1467,o),
(2017,788,c),
(2017,748,l),
(1825,788,l),
(1825,1374,o),
(1751,1402,o),
(1274,1402,c),
(974,1402,l),
(974,1568,l),
(1274,1568,l),
(1874,1568,o)
);
},
{
closed = 1;
nodes = (
(974,134,l),
(1274,134,l),
(1751,134,o),
(1825,182,o),
(1825,748,c),
(1825,788,l),
(2017,748,l),
(2017,89,o),
(1874,-32,o),
(1274,-32,c),
(974,-32,l)
);
},
{
closed = 1;
nodes = (
(1121,1914,l),
(1057,2010,l),
(1633,2490,l),
(1761,2298,l)
);
}
);
};
layerId = "3D86ED3E-BC30-4996-8F23-7FA448982149";
shapes = (
{
ref = Oslash;
},
{
pos = (657,384);
ref = acutecomb;
}
);
width = 2145;
}
);
unicode = 510;
},
{
glyphname = Otilde;
lastChange = "2023-05-03 13:33:04 +0000";
layers = (
{
background = {
shapes = (
{
closed = 1;
nodes = (
(1171,1402,l),
(871,1402,l),
(394,1402,o),
(320,1374,o),
(320,788,c),
(128,748,l),
(128,788,l),
(128,1467,o),
(271,1568,o),
(871,1568,c),
(1171,1568,l)
);
},
{
closed = 1;
nodes = (
(128,89,o),
(128,748,c),
(320,788,l),
(320,748,l),
(320,182,o),
(394,134,o),
(871,134,c),
(1171,134,l),
(1171,-32,l),
(871,-32,l),
(271,-32,o)
);
},
{
closed = 1;
nodes = (
(2017,1467,o),
(2017,788,c),
(2017,748,l),
(1825,788,l),
(1825,1374,o),
(1751,1402,o),
(1274,1402,c),
(974,1402,l),
(974,1568,l),
(1274,1568,l),
(1874,1568,o)
);
},
{
closed = 1;
nodes = (
(974,134,l),
(1274,134,l),
(1751,134,o),
(1825,182,o),
(1825,748,c),
(1825,788,l),
(2017,748,l),
(2017,89,o),
(1874,-32,o),
(1274,-32,c),
(974,-32,l)
);
},
{
closed = 1;
nodes = (
(671,1792,l),
(671,1957,o),
(781,2049,o),
(927,2049,cs),
(998,2049,o),
(1071,2032,o),
(1146,2000,cs),
(1190,1981,o),
(1244,1952,o),
(1297,1952,cs),
(1361,1952,o),
(1375,1969,o),
(1375,2048,c),
(1567,2048,l),
(1567,1960,o),
(1536,1892,o),
(1475,1846,cs),
(1427,1810,o),
(1372,1792,o),
(1311,1792,cs),
(1241,1792,o),
(1168,1808,o),
(1092,1840,cs),
(1048,1859,o),
(994,1888,o),
(941,1888,cs),
(873,1888,o),
(863,1870,o),
(863,1792,c)
);
}
);
};
layerId = "3D86ED3E-BC30-4996-8F23-7FA448982149";
shapes = (
{
ref = O;
},
{
pos = (497,384);
ref = tildecomb;
}
);
width = 2145;
}
);
unicode = 213;
},
{
glyphname = OE;
lastChange = "2023-05-19 11:41:04 +0000";
layers = (
{
anchors = (
{
name = bottom;
pos = (1760,0);
},
{
name = top;
pos = (1760,1536);
}
);
background = {
shapes = (
{
closed = 1;
nodes = (
(1425,1564,o),
(1441,1565,o),
(1457,1565,cs),
(1665,1565,o),
(1820,1534,o),
(1920,1472,c),
(1920,1536,l),
(3456,1536,l),
(3456,1376,l),
(2112,1376,l),
(2112,864,l),
(3392,864,l),
(3392,704,l),
(2112,704,l),
(2112,160,l),
(3456,160,l),
(3456,0,l),
(1920,0,l),
(1920,64,l),
(1816,0,o),
(1646,-32,o),
(1409,-32,cs),
(831,-32,ls),
(604,-32,o),
(439,-4,o),
(336,54,cs),
(191,135,o),
(137,296,o),
(131,520,cs),
(129,595,o),
(128,677,o),
(128,768,cs),
(128,843,ls),
(128,1053,o),
(133,1243,o),
(216,1372,cs),
(244,1416,o),
(284,1453,o),
(336,1482,cs),
(435,1537,o),
(583,1565,o),
(780,1565,cs),
(797,1565,o),
(814,1564,o),
(831,1564,cs),
(1409,1564,ls)
);
},
{
closed = 1;
nodes = (
(1586,128,o),
(1705,141,o),
(1768,166,cs),
(1846,198,o),
(1883,253,o),
(1901,346,cs),
(1914,410,o),
(1920,551,o),
(1920,768,cs),
(1920,985,o),
(1915,1121,o),
(1904,1177,cs),
(1884,1280,o),
(1851,1336,o),
(1768,1370,cs),
(1691,1401,o),
(1596,1404,o),
(1484,1404,cs),
(1409,1404,ls),
(831,1404,ls),
(804,1405,o),
(778,1405,o),
(753,1405,cs),
(505,1405,o),
(375,1380,o),
(338,1190,cs),
(326,1129,o),
(320,988,o),
(320,768,cs),
(320,551,o),
(325,415,o),
(336,359,cs),
(356,255,o),
(387,200,o),
(471,166,cs),
(534,141,o),
(654,128,o),
(831,128,cs),
(1409,128,ls)
);
}
);
};
layerId = "3D86ED3E-BC30-4996-8F23-7FA448982149";
shapes = (
{
closed = 1;
nodes = (
(1409,-32,ls),
(1646,-32,o),
(1816,0,o),
(1920,64,c),
(1920,0,l),
(3456,0,l),
(3456,160,l),
(2112,160,l),
(2112,704,l),
(3392,704,l),
(3392,864,l),
(2112,864,l),
(2112,1376,l),
(3456,1376,l),
(3456,1536,l),
(1920,1536,l),
(1920,1472,l),
(1820,1534,o),
(1665,1565,o),
(1457,1565,cs),
(780,1565,ls),
(583,1565,o),
(435,1537,o),
(336,1482,cs),
(284,1453,o),
(244,1416,o),
(216,1372,cs),
(133,1243,o),
(131,1053,o),
(131,843,cs),
(131,520,ls),
(131,296,o),
(191,135,o),
(336,54,cs),
(439,-4,o),
(604,-32,o),
(831,-32,cs)
);
},
{
closed = 1;
nodes = (
(654,128,o),
(534,141,o),
(471,166,cs),
(387,200,o),
(356,255,o),
(336,359,cs),
(325,415,o),
(320,551,o),
(320,768,cs),
(320,988,o),
(326,1129,o),
(338,1190,cs),
(375,1380,o),
(505,1404,o),
(753,1404,cs),
(1484,1404,ls),
(1596,1404,o),
(1691,1401,o),
(1768,1370,cs),
(1851,1336,o),
(1884,1280,o),
(1904,1177,cs),
(1915,1121,o),
(1920,985,o),
(1920,768,cs),
(1920,551,o),
(1914,410,o),
(1901,346,cs),
(1883,253,o),
(1846,198,o),
(1768,166,cs),
(1705,141,o),
(1586,128,o),
(1409,128,cs),
(831,128,ls)
);
}
);
width = 3520;
}
);
unicode = 338;
},
{
glyphname = P;
lastChange = "2023-04-26 14:46:50 +0000";
layers = (
{
anchors = (
{
name = bottom;
pos = (996,0);
},
{
name = top;
pos = (996,1536);
}
);
background = {
shapes = (
{
closed = 1;
nodes = (
(196,592,l),
(196,1536,l),
(1107,1536,l),
(1107,1370,l),
(388,1370,l),
(388,758,l),
(1107,758,l),
(1107,592,l)
);
},
{
closed = 1;
nodes = (
(1916,1431,o),
(1916,1084,c),
(1916,1044,l),
(1724,1084,l),
(1724,1338,o),
(1664,1370,o),
(1187,1370,c),
(1026,1370,l),
(1026,1536,l),
(1224,1536,l),
(1824,1536,o)
);
},
{
closed = 1;
nodes = (
(1026,758,l),
(1187,758,l),
(1664,758,o),
(1724,806,o),
(1724,1044,c),
(1724,1084,l),
(1916,1044,l),
(1916,713,o),
(1818,592,o),
(1218,592,c),
(1026,592,l)
);
},
{
closed = 1;
nodes = (
(388,0,l),
(196,0,l),
(196,649,l),
(388,649,l)
);
}
);
};
layerId = "3D86ED3E-BC30-4996-8F23-7FA448982149";
shapes = (
{
closed = 1;
nodes = (
(1107,592,l),
(1107,758,l),
(388,758,l),
(388,1370,l),
(1107,1370,l),
(1107,1536,l),
(196,1536,l),
(196,592,l)
);
},
{
closed = 1;
nodes = (
(388,0,l),
(388,649,l),
(196,649,l),
(196,0,l)
);
},
{
closed = 1;
nodes = (
(1218,592,l),
(1818,592,o),
(1916,713,o),
(1916,1044,c),
(1724,1084,l),
(1724,1044,l),
(1724,806,o),
(1664,758,o),
(1187,758,c),
(1026,758,l),
(1026,592,l)
);
},
{
closed = 1;
nodes = (
(1916,1084,l),
(1916,1431,o),
(1824,1536,o),
(1224,1536,c),
(1026,1536,l),
(1026,1370,l),
(1187,1370,l),
(1664,1370,o),
(1724,1338,o),
(1724,1084,c),
(1916,1044,l)
);
}
);
width = 1991;
}
);
unicode = 80;
},
{
glyphname = Pdotaccent;
lastChange = "2023-05-03 13:43:43 +0000";
layers = (
{
background = {
shapes = (
{
closed = 1;
nodes = (
(196,592,l),
(196,1536,l),
(1107,1536,l),
(1107,1370,l),
(388,1370,l),
(388,758,l),
(1107,758,l),
(1107,592,l)
);
},
{
closed = 1;
nodes = (
(1916,1431,o),
(1916,1084,c),
(1916,1044,l),
(1724,1084,l),
(1724,1338,o),
(1664,1370,o),
(1187,1370,c),
(1026,1370,l),
(1026,1536,l),
(1224,1536,l),
(1824,1536,o)
);
},
{
closed = 1;
nodes = (
(1026,758,l),
(1187,758,l),
(1664,758,o),
(1724,806,o),
(1724,1044,c),
(1724,1084,l),
(1916,1044,l),
(1916,713,o),
(1818,592,o),
(1218,592,c),
(1026,592,l)
);
},
{
closed = 1;
nodes = (
(388,0,l),
(196,0,l),
(196,649,l),
(388,649,l)
);
},
{
closed = 1;
nodes = (
(865,1690,l),
(673,1690,l),
(673,1882,l),
(865,1882,l)
);
}
);
};
layerId = "3D86ED3E-BC30-4996-8F23-7FA448982149";
shapes = (
{
ref = P;
},
{
pos = (772,384);
ref = dotaccentcomb;
}
);
width = 1991;
}
);
unicode = 7766;
},
{
glyphname = Thorn;
lastChange = "2023-04-26 14:46:50 +0000";
layers = (
{
anchors = (
{
name = bottom;
pos = (960,0);
},
{
name = top;
pos = (960,1536);
}
);
background = {
shapes = (
{
closed = 1;
nodes = (
(128,1536,l),
(320,1536,l),
(320,1344,l),
(1282,1344,ls),
(1466,1344,o),
(1601,1327,o),
(1686,1294,cs),
(1729,1277,o),
(1761,1257,o),
(1784,1232,cs),
(1854,1157,o),
(1856,1040,o),
(1856,894,cs),
(1856,843,o),
(1854,796,o),
(1852,752,cs),
(1847,659,o),
(1820,587,o),
(1768,538,cs),
(1682,456,o),
(1476,416,o),
(1151,416,cs),
(320,416,l),
(320,0,l),
(128,0,l)
);
},
{
closed = 1;
nodes = (
(320,576,l),
(1151,576,ls),
(1325,576,o),
(1445,583,o),
(1511,597,cs),
(1610,618,o),
(1656,664,o),
(1662,776,cs),
(1664,810,o),
(1664,862,o),
(1664,935,cs),
(1664,1106,o),
(1636,1144,o),
(1495,1170,cs),
(1446,1179,o),
(1331,1184,o),
(1151,1184,cs),
(320,1184,l)
);
}
);
};
layerId = "3D86ED3E-BC30-4996-8F23-7FA448982149";
shapes = (
{
closed = 1;
nodes = (
(320,0,l),
(320,416,l),
(1151,416,ls),
(1476,416,o),
(1682,456,o),
(1768,538,cs),
(1820,587,o),
(1847,659,o),
(1852,752,cs),
(1854,796,o),
(1856,843,o),
(1856,894,cs),
(1856,1040,o),
(1854,1157,o),
(1784,1232,cs),
(1761,1257,o),
(1729,1277,o),
(1686,1294,cs),
(1601,1327,o),
(1466,1344,o),
(1282,1344,cs),
(320,1344,l),
(320,1536,l),
(128,1536,l),
(128,0,l)
);
},
{
closed = 1;
nodes = (
(320,1184,l),
(1151,1184,ls),
(1331,1184,o),
(1446,1179,o),
(1495,1170,cs),
(1636,1144,o),
(1664,1106,o),
(1664,935,cs),
(1664,862,o),
(1664,810,o),
(1662,776,cs),
(1656,664,o),
(1610,618,o),
(1511,597,cs),
(1445,583,o),
(1325,576,o),
(1151,576,cs),
(320,576,l)
);
}
);
width = 1920;
}
);
unicode = 222;
},
{
glyphname = Q;
lastChange = "2023-04-26 14:46:50 +0000";
layers = (
{
background = {
shapes = (
{
closed = 1;
nodes = (
(2048,-212,l),
(1107,525,l),
(1204,644,l),
(2145,-93,l)
);
},
{
closed = 1;
nodes = (
(1171,1402,l),
(871,1402,l),
(394,1402,o),
(320,1374,o),
(320,788,c),
(128,748,l),
(128,788,l),
(128,1467,o),
(271,1568,o),
(871,1568,c),
(1171,1568,l)
);
},
{
closed = 1;
nodes = (
(128,89,o),
(128,748,c),
(320,788,l),
(320,748,l),
(320,182,o),
(394,134,o),
(871,134,c),
(1171,134,l),
(1171,-32,l),
(871,-32,l),
(271,-32,o)
);
},
{
closed = 1;
nodes = (
(2017,1467,o),
(2017,788,c),
(2017,748,l),
(1825,788,l),
(1825,1374,o),
(1751,1402,o),
(1274,1402,c),
(974,1402,l),
(974,1568,l),
(1274,1568,l),
(1874,1568,o)
);
},
{
closed = 1;
nodes = (
(974,134,l),
(1274,134,l),
(1751,134,o),
(1825,182,o),
(1825,748,c),
(1825,788,l),
(2017,748,l),
(2017,89,o),
(1874,-32,o),
(1274,-32,c),
(974,-32,l)
);
}
);
};
layerId = "3D86ED3E-BC30-4996-8F23-7FA448982149";
shapes = (
{
closed = 1;
nodes = (
(2145,-93,l),
(1204,644,l),
(1107,525,l),
(2048,-212,l)
);
},
{
ref = O;
}
);
width = 2145;
}
);
unicode = 81;
},
{
glyphname = R;
lastChange = "2023-05-03 13:30:02 +0000";
layers = (
{
anchors = (
{
name = bottom;
pos = (1044,0);
},
{
name = top;
pos = (1004,1536);
}
);
background = {
shapes = (
{
closed = 1;
nodes = (
(1724,835,o),
(1694,787,o),
(1237,787,cs),
(1026,787,l),
(1026,621,l),
(1267,621,l),
(1823,621,o),
(1916,760,o),
(1916,1058,c),
(1724,1098,l),
(1724,1058,ls)
);
},
{
closed = 1;
nodes = (
(196,0,l),
(388,0,l),
(388,678,l),
(196,678,l)
);
},
{
closed = 1;
nodes = (
(196,621,l),
(1107,621,l),
(1107,787,l),
(388,787,l),
(388,1370,l),
(1107,1370,l),
(1107,1536,l),
(196,1536,l)
);
},
{
closed = 1;
nodes = (
(1026,1370,l),
(1187,1370,l),
(1664,1370,o),
(1724,1352,o),
(1724,1098,c),
(1916,1058,l),
(1916,1098,l),
(1916,1445,o),
(1824,1536,o),
(1224,1536,c),
(1026,1536,l)
);
},
{
closed = 1;
nodes = (
(1680,0,l),
(1872,0,l),
(1516,678,l),
(1324,678,l)
);
}
);
};
layerId = "3D86ED3E-BC30-4996-8F23-7FA448982149";
shapes = (
{
closed = 1;
nodes = (
(196,0,l),
(388,0,l),
(388,621,l),
(1267,621,ls),
(1297,621,o),
(1326,621,o),
(1353,622,c),
(1680,0,l),
(1872,0,l),
(1538,636,l),
(1855,680,o),
(1916,817,o),
(1916,1058,cs),
(1916,1098,ls),
(1916,1445,o),
(1824,1536,o),
(1224,1536,cs),
(196,1536,l)
);
},
{
closed = 1;
nodes = (
(388,1370,l),
(1187,1370,ls),
(1664,1370,o),
(1724,1352,o),
(1724,1098,cs),
(1724,1058,ls),
(1724,835,o),
(1694,787,o),
(1237,787,cs),
(388,787,l)
);
}
);
width = 2087;
}
);
unicode = 82;
},
{
glyphname = Racute;
lastChange = "2023-05-03 13:33:04 +0000";
layers = (
{
background = {
shapes = (
{
closed = 1;
nodes = (
(1724,835,o),
(1694,787,o),
(1237,787,cs),
(1026,787,l),
(1026,621,l),
(1267,621,l),
(1823,621,o),
(1916,760,o),
(1916,1058,c),
(1724,1098,l),
(1724,1058,ls)
);
},
{
closed = 1;
nodes = (
(196,0,l),
(388,0,l),
(388,678,l),
(196,678,l)
);
},
{
closed = 1;
nodes = (
(196,621,l),
(1107,621,l),
(1107,787,l),
(388,787,l),
(388,1370,l),
(1107,1370,l),
(1107,1536,l),
(196,1536,l)
);
},
{
closed = 1;
nodes = (
(1026,1370,l),
(1187,1370,l),
(1664,1370,o),
(1724,1352,o),
(1724,1098,c),
(1916,1058,l),
(1916,1098,l),
(1916,1445,o),
(1824,1536,o),
(1224,1536,c),
(1026,1536,l)
);
},
{
closed = 1;
nodes = (
(1680,0,l),
(1872,0,l),
(1516,678,l),
(1324,678,l)
);
},
{
closed = 1;
nodes = (
(736,1690,l),
(672,1786,l),
(1248,2266,l),
(1376,2074,l)
);
}
);
};
layerId = "3D86ED3E-BC30-4996-8F23-7FA448982149";
shapes = (
{
ref = R;
},
{
pos = (588,384);
ref = acutecomb;
}
);
width = 2087;
}
);
unicode = 340;
},
{
glyphname = Rcaron;
lastChange = "2023-05-03 13:33:04 +0000";
layers = (
{
background = {
shapes = (
{
closed = 1;
nodes = (
(1724,835,o),
(1694,787,o),
(1237,787,cs),
(1026,787,l),
(1026,621,l),
(1267,621,l),
(1823,621,o),
(1916,760,o),
(1916,1058,c),
(1724,1098,l),
(1724,1058,ls)
);
},
{
closed = 1;
nodes = (
(196,0,l),
(388,0,l),
(388,678,l),
(196,678,l)
);
},
{
closed = 1;
nodes = (
(196,621,l),
(1107,621,l),
(1107,787,l),
(388,787,l),
(388,1370,l),
(1107,1370,l),
(1107,1536,l),
(196,1536,l)
);
},
{
closed = 1;
nodes = (
(1026,1370,l),
(1187,1370,l),
(1664,1370,o),
(1724,1352,o),
(1724,1098,c),
(1916,1058,l),
(1916,1098,l),
(1916,1445,o),
(1824,1536,o),
(1224,1536,c),
(1026,1536,l)
);
},
{
closed = 1;
nodes = (
(1680,0,l),
(1872,0,l),
(1516,678,l),
(1324,678,l)
);
},
{
closed = 1;
nodes = (
(1024,2266,l),
(1152,2170,l),
(832,1690,l),
(640,1690,l),
(320,2170,l),
(448,2266,l),
(736,1818,l)
);
}
);
};
layerId = "3D86ED3E-BC30-4996-8F23-7FA448982149";
shapes = (
{
ref = R;
},
{
pos = (460,384);
ref = caroncomb;
}
);
width = 2087;
}
);
unicode = 344;
},
{
glyphname = Rcommaaccent;
lastChange = "2023-04-27 15:48:27 +0000";
layers = (
{
background = {
shapes = (
{
closed = 1;
nodes = (
(1724,835,o),
(1694,787,o),
(1237,787,cs),
(1026,787,l),
(1026,621,l),
(1267,621,l),
(1823,621,o),
(1916,760,o),
(1916,1058,c),
(1724,1098,l),
(1724,1058,ls)
);
},
{
closed = 1;
nodes = (
(196,0,l),
(388,0,l),
(388,678,l),
(196,678,l)
);
},
{
closed = 1;
nodes = (
(196,621,l),
(1107,621,l),
(1107,787,l),
(388,787,l),
(388,1370,l),
(1107,1370,l),
(1107,1536,l),
(196,1536,l)
);
},
{
closed = 1;
nodes = (
(1026,1370,l),
(1187,1370,l),
(1664,1370,o),
(1724,1352,o),
(1724,1098,c),
(1916,1058,l),
(1916,1098,l),
(1916,1445,o),
(1824,1536,o),
(1224,1536,c),
(1026,1536,l)
);
},
{
closed = 1;
nodes = (
(1680,0,l),
(1872,0,l),
(1516,678,l),
(1324,678,l)
);
},
{
closed = 1;
nodes = (
(1200,-121,l),
(1072,-505,l),
(944,-505,l),
(1008,-121,l)
);
}
);
};
layerId = "3D86ED3E-BC30-4996-8F23-7FA448982149";
shapes = (
{
ref = R;
},
{
pos = (820,0);
ref = commaaccentcomb;
}
);
width = 2087;
}
);
unicode = 342;
},
{
glyphname = Rdblgrave;
lastChange = "2023-04-26 14:02:46 +0000";
layers = (
{
background = {
shapes = (
{
closed = 1;
nodes = (
(1724,835,o),
(1694,787,o),
(1237,787,cs),
(1026,787,l),
(1026,621,l),
(1267,621,l),
(1823,621,o),
(1916,760,o),
(1916,1058,c),
(1724,1098,l),
(1724,1058,ls)
);
},
{
closed = 1;
nodes = (
(196,0,l),
(388,0,l),
(388,678,l),
(196,678,l)
);
},
{
closed = 1;
nodes = (
(196,621,l),
(1107,621,l),
(1107,787,l),
(388,787,l),
(388,1370,l),
(1107,1370,l),
(1107,1536,l),
(196,1536,l)
);
},
{
closed = 1;
nodes = (
(1026,1370,l),
(1187,1370,l),
(1664,1370,o),
(1724,1352,o),
(1724,1098,c),
(1916,1058,l),
(1916,1098,l),
(1916,1445,o),
(1824,1536,o),
(1224,1536,c),
(1026,1536,l)
);
},
{
closed = 1;
nodes = (
(1680,0,l),
(1872,0,l),
(1516,678,l),
(1324,678,l)
);
}
);
};
layerId = "3D86ED3E-BC30-4996-8F23-7FA448982149";
shapes = (
{
ref = R;
}
);
width = 2087;
}
);
unicode = 528;
},
{
glyphname = Rinvertedbreve;
lastChange = "2023-05-03 13:30:02 +0000";
layers = (
{
background = {
shapes = (
{
closed = 1;
nodes = (
(288,1925,o),
(429,2010,o),
(672,2010,cs),
(915,2010,o),
(1056,1926,o),
(1056,1690,c),
(896,1690,l),
(896,1776,o),
(875,1832,o),
(832,1858,cs),
(805,1874,o),
(752,1882,o),
(672,1882,cs),
(592,1882,o),
(540,1875,o),
(517,1861,cs),
(471,1833,o),
(448,1776,o),
(448,1690,c),
(288,1690,l)
);
},
{
closed = 1;
nodes = (
(1661,835,o),
(1631,787,o),
(1174,787,cs),
(963,787,l),
(963,621,l),
(1204,621,l),
(1760,621,o),
(1853,760,o),
(1853,1058,c),
(1661,1098,l),
(1661,1058,ls)
);
},
{
closed = 1;
nodes = (
(133,0,l),
(325,0,l),
(325,678,l),
(133,678,l)
);
},
{
closed = 1;
nodes = (
(133,621,l),
(1044,621,l),
(1044,787,l),
(325,787,l),
(325,1370,l),
(1044,1370,l),
(1044,1536,l),
(133,1536,l)
);
},
{
closed = 1;
nodes = (
(963,1370,l),
(1124,1370,l),
(1601,1370,o),
(1661,1352,o),
(1661,1098,c),
(1853,1058,l),
(1853,1098,l),
(1853,1445,o),
(1761,1536,o),
(1161,1536,c),
(963,1536,l)
);
},
{
closed = 1;
nodes = (
(1617,0,l),
(1809,0,l),
(1453,678,l),
(1261,678,l)
);
}
);
};
layerId = "3D86ED3E-BC30-4996-8F23-7FA448982149";
shapes = (
{
ref = R;
},
{
pos = (364,384);
ref = breveinvertedcomb;
}
);
width = 2087;
}
);
unicode = 530;
},
{
glyphname = S;
lastChange = "2023-05-19 11:41:12 +0000";
layers = (
{
anchors = (
{
name = bottom;
pos = (1071,0);
},
{
name = top;
pos = (1071,1536);
}
);
background = {
shapes = (
{
closed = 1;
nodes = (
(359,887,o),
(325,916,o),
(325,1132,c),
(133,1132,l),
(133,813,o),
(210,718,o),
(760,710,cs),
(1316,702,ls),
(1793,695,o),
(1827,681,o),
(1827,444,c),
(2019,444,l),
(2019,774,o),
(1952,865,o),
(1392,873,cs),
(796,881,ls)
);
},
{
closed = 1;
nodes = (
(1181,1402,l),
(866,1402,l),
(389,1402,o),
(325,1388,o),
(325,1132,c),
(133,1132,l),
(133,1481,o),
(256,1568,o),
(856,1568,c),
(1181,1568,l)
);
},
{
closed = 1;
nodes = (
(976,134,l),
(1311,134,l),
(1788,134,o),
(1827,178,o),
(1827,444,c),
(2019,444,l),
(2019,85,o),
(1921,-32,o),
(1321,-32,c),
(976,-32,l)
);
},
{
closed = 1;
nodes = (
(425,134,o),
(853,134,c),
(1173,134,l),
(1173,-32,l),
(853,-32,l),
(305,-32,o),
(133,29,o),
(133,509,c),
(325,509,l),
(325,133,o)
);
},
{
closed = 1;
nodes = (
(1677,1402,o),
(1284,1402,c),
(979,1402,l),
(979,1568,l),
(1284,1568,l),
(1827,1568,o),
(1989,1537,o),
(1989,1077,c),
(1797,1077,l),
(1797,1433,o)
);
}
);
};
layerId = "3D86ED3E-BC30-4996-8F23-7FA448982149";
shapes = (
{
closed = 1;
nodes = (
(1827,178,o),
(1788,134,o),
(1311,134,cs),
(853,134,ls),
(425,134,o),
(325,133,o),
(325,509,c),
(133,509,l),
(133,29,o),
(305,-32,o),
(853,-32,cs),
(1321,-32,ls),
(1921,-32,o),
(2019,85,o),
(2019,444,cs),
(2019,774,o),
(1952,865,o),
(1392,873,cs),
(796,881,ls),
(359,887,o),
(325,916,o),
(325,1132,cs),
(325,1388,o),
(389,1402,o),
(866,1402,cs),
(1284,1402,ls),
(1677,1402,o),
(1797,1433,o),
(1797,1077,c),
(1989,1077,l),
(1989,1537,o),
(1827,1568,o),
(1284,1568,cs),
(856,1568,ls),
(256,1568,o),
(133,1481,o),
(133,1132,cs),
(133,813,o),
(210,718,o),
(760,710,cs),
(1316,702,ls),
(1793,695,o),
(1827,681,o),
(1827,444,cs)
);
}
);
width = 2142;
}
);
unicode = 83;
},
{
glyphname = Sacute;
lastChange = "2023-04-26 14:41:37 +0000";
layers = (
{
background = {
shapes = (
{
closed = 1;
nodes = (
(359,887,o),
(325,916,o),
(325,1132,c),
(133,1132,l),
(133,813,o),
(210,718,o),
(760,710,cs),
(1316,702,ls),
(1793,695,o),
(1827,681,o),
(1827,444,c),
(2019,444,l),
(2019,774,o),
(1952,865,o),
(1392,873,cs),
(796,881,ls)
);
},
{
closed = 1;
nodes = (
(1181,1402,l),
(866,1402,l),
(389,1402,o),
(325,1388,o),
(325,1132,c),
(133,1132,l),
(133,1481,o),
(256,1568,o),
(856,1568,c),
(1181,1568,l)
);
},
{
closed = 1;
nodes = (
(976,134,l),
(1311,134,l),
(1788,134,o),
(1827,178,o),
(1827,444,c),
(2019,444,l),
(2019,85,o),
(1921,-32,o),
(1321,-32,c),
(976,-32,l)
);
},
{
closed = 1;
nodes = (
(425,134,o),
(853,134,c),
(1173,134,l),
(1173,-32,l),
(853,-32,l),
(305,-32,o),
(133,29,o),
(133,509,c),
(325,509,l),
(325,133,o)
);
},
{
closed = 1;
nodes = (
(1677,1402,o),
(1284,1402,c),
(979,1402,l),
(979,1568,l),
(1284,1568,l),
(1827,1568,o),
(1989,1537,o),
(1989,1077,c),
(1797,1077,l),
(1797,1433,o)
);
},
{
closed = 1;
nodes = (
(1056,1690,l),
(992,1786,l),
(1568,2266,l),
(1696,2074,l)
);
}
);
};
layerId = "3D86ED3E-BC30-4996-8F23-7FA448982149";
shapes = (
{
ref = S;
},
{
pos = (655,384);
ref = acutecomb;
}
);
width = 2142;
}
);
unicode = 346;
},
{
glyphname = Scaron;
lastChange = "2023-04-26 14:42:36 +0000";
layers = (
{
background = {
shapes = (
{
closed = 1;
nodes = (
(359,887,o),
(325,916,o),
(325,1132,c),
(133,1132,l),
(133,813,o),
(210,718,o),
(760,710,cs),
(1316,702,ls),
(1793,695,o),
(1827,681,o),
(1827,444,c),
(2019,444,l),
(2019,774,o),
(1952,865,o),
(1392,873,cs),
(796,881,ls)
);
},
{
closed = 1;
nodes = (
(1181,1402,l),
(866,1402,l),
(389,1402,o),
(325,1388,o),
(325,1132,c),
(133,1132,l),
(133,1481,o),
(256,1568,o),
(856,1568,c),
(1181,1568,l)
);
},
{
closed = 1;
nodes = (
(976,134,l),
(1311,134,l),
(1788,134,o),
(1827,178,o),
(1827,444,c),
(2019,444,l),
(2019,85,o),
(1921,-32,o),
(1321,-32,c),
(976,-32,l)
);
},
{
closed = 1;
nodes = (
(425,134,o),
(853,134,c),
(1173,134,l),
(1173,-32,l),
(853,-32,l),
(305,-32,o),
(133,29,o),
(133,509,c),
(325,509,l),
(325,133,o)
);
},
{
closed = 1;
nodes = (
(1677,1402,o),
(1284,1402,c),
(979,1402,l),
(979,1568,l),
(1284,1568,l),
(1827,1568,o),
(1989,1537,o),
(1989,1077,c),
(1797,1077,l),
(1797,1433,o)
);
},
{
closed = 1;
nodes = (
(1280,2304,l),
(1408,2208,l),
(1088,1728,l),
(896,1728,l),
(576,2208,l),
(704,2304,l),
(992,1856,l)
);
}
);
};
layerId = "3D86ED3E-BC30-4996-8F23-7FA448982149";
shapes = (
{
ref = S;
},
{
pos = (527,384);
ref = caroncomb;
}
);
width = 2142;
}
);
unicode = 352;
},
{
glyphname = Scedilla;
lastChange = "2023-04-26 14:44:38 +0000";
layers = (
{
background = {
shapes = (
{
closed = 1;
nodes = (
(359,887,o),
(325,916,o),
(325,1132,c),
(133,1132,l),
(133,813,o),
(210,718,o),
(760,710,cs),
(1316,702,ls),
(1793,695,o),
(1827,681,o),
(1827,444,c),
(2019,444,l),
(2019,774,o),
(1952,865,o),
(1392,873,cs),
(796,881,ls)
);
},
{
closed = 1;
nodes = (
(1181,1402,l),
(866,1402,l),
(389,1402,o),
(325,1388,o),
(325,1132,c),
(133,1132,l),
(133,1481,o),
(256,1568,o),
(856,1568,c),
(1181,1568,l)
);
},
{
closed = 1;
nodes = (
(976,134,l),
(1311,134,l),
(1788,134,o),
(1827,178,o),
(1827,444,c),
(2019,444,l),
(2019,85,o),
(1921,-32,o),
(1321,-32,c),
(976,-32,l)
);
},
{
closed = 1;
nodes = (
(425,134,o),
(853,134,c),
(1173,134,l),
(1173,-32,l),
(853,-32,l),
(305,-32,o),
(133,29,o),
(133,509,c),
(325,509,l),
(325,133,o)
);
},
{
closed = 1;
nodes = (
(1677,1402,o),
(1284,1402,c),
(979,1402,l),
(979,1568,l),
(1284,1568,l),
(1827,1568,o),
(1989,1537,o),
(1989,1077,c),
(1797,1077,l),
(1797,1433,o)
);
},
{
closed = 1;
nodes = (
(1195,-206,o),
(1280,-259,o),
(1280,-366,cs),
(1280,-571,o),
(1124,-622,o),
(896,-622,c),
(896,-462,l),
(971,-462,o),
(1017,-459,o),
(1036,-452,cs),
(1071,-439,o),
(1088,-410,o),
(1088,-366,cs),
(1088,-345,o),
(1081,-331,o),
(1067,-324,cs),
(1038,-310,o),
(981,-302,o),
(896,-302,c),
(896,-14,l),
(1024,-14,l),
(1024,-206,l)
);
}
);
};
layerId = "3D86ED3E-BC30-4996-8F23-7FA448982149";
shapes = (
{
ref = S;
},
{
pos = (864,0);
ref = cedillacomb;
}
);
width = 2142;
}
);
unicode = 350;
},
{
glyphname = Scircumflex;
lastChange = "2023-04-26 14:42:14 +0000";
layers = (
{
background = {
shapes = (
{
closed = 1;
nodes = (
(359,887,o),
(325,916,o),
(325,1132,c),
(133,1132,l),
(133,813,o),
(210,718,o),
(760,710,cs),
(1316,702,ls),
(1793,695,o),
(1827,681,o),
(1827,444,c),
(2019,444,l),
(2019,774,o),
(1952,865,o),
(1392,873,cs),
(796,881,ls)
);
},
{
closed = 1;
nodes = (
(1181,1402,l),
(866,1402,l),
(389,1402,o),
(325,1388,o),
(325,1132,c),
(133,1132,l),
(133,1481,o),
(256,1568,o),
(856,1568,c),
(1181,1568,l)
);
},
{
closed = 1;
nodes = (
(976,134,l),
(1311,134,l),
(1788,134,o),
(1827,178,o),
(1827,444,c),
(2019,444,l),
(2019,85,o),
(1921,-32,o),
(1321,-32,c),
(976,-32,l)
);
},
{
closed = 1;
nodes = (
(425,134,o),
(853,134,c),
(1173,134,l),
(1173,-32,l),
(853,-32,l),
(305,-32,o),
(133,29,o),
(133,509,c),
(325,509,l),
(325,133,o)
);
},
{
closed = 1;
nodes = (
(1677,1402,o),
(1284,1402,c),
(979,1402,l),
(979,1568,l),
(1284,1568,l),
(1827,1568,o),
(1989,1537,o),
(1989,1077,c),
(1797,1077,l),
(1797,1433,o)
);
},
{
closed = 1;
nodes = (
(1056,2138,l),
(768,1690,l),
(640,1786,l),
(960,2266,l),
(1152,2266,l),
(1472,1786,l),
(1344,1690,l)
);
}
);
};
layerId = "3D86ED3E-BC30-4996-8F23-7FA448982149";
shapes = (
{
ref = S;
},
{
pos = (527,384);
ref = circumflexcomb;
}
);
width = 2142;
}
);
unicode = 348;
},
{
glyphname = Scommaaccent;
lastChange = "2023-04-27 15:48:27 +0000";
layers = (
{
background = {
shapes = (
{
closed = 1;
nodes = (
(359,887,o),
(325,916,o),
(325,1132,c),
(133,1132,l),
(133,813,o),
(210,718,o),
(760,710,cs),
(1316,702,ls),
(1793,695,o),
(1827,681,o),
(1827,444,c),
(2019,444,l),
(2019,774,o),
(1952,865,o),
(1392,873,cs),
(796,881,ls)
);
},
{
closed = 1;
nodes = (
(1181,1402,l),
(866,1402,l),
(389,1402,o),
(325,1388,o),
(325,1132,c),
(133,1132,l),
(133,1481,o),
(256,1568,o),
(856,1568,c),
(1181,1568,l)
);
},
{
closed = 1;
nodes = (
(976,134,l),
(1311,134,l),
(1788,134,o),
(1827,178,o),
(1827,444,c),
(2019,444,l),
(2019,85,o),
(1921,-32,o),
(1321,-32,c),
(976,-32,l)
);
},
{
closed = 1;
nodes = (
(425,134,o),
(853,134,c),
(1173,134,l),
(1173,-32,l),
(853,-32,l),
(305,-32,o),
(133,29,o),
(133,509,c),
(325,509,l),
(325,133,o)
);
},
{
closed = 1;
nodes = (
(1677,1402,o),
(1284,1402,c),
(979,1402,l),
(979,1568,l),
(1284,1568,l),
(1827,1568,o),
(1989,1537,o),
(1989,1077,c),
(1797,1077,l),
(1797,1433,o)
);
},
{
closed = 1;
nodes = (
(1088,-157,l),
(960,-541,l),
(832,-541,l),
(896,-157,l)
);
}
);
};
layerId = "3D86ED3E-BC30-4996-8F23-7FA448982149";
shapes = (
{
ref = S;
},
{
pos = (847,0);
ref = commaaccentcomb;
}
);
width = 2142;
}
);
unicode = 536;
},
{
glyphname = Sdotaccent;
lastChange = "2023-05-03 13:43:43 +0000";
layers = (
{
background = {
shapes = (
{
closed = 1;
nodes = (
(359,887,o),
(325,916,o),
(325,1132,c),
(133,1132,l),
(133,813,o),
(210,718,o),
(760,710,cs),
(1316,702,ls),
(1793,695,o),
(1827,681,o),
(1827,444,c),
(2019,444,l),
(2019,774,o),
(1952,865,o),
(1392,873,cs),
(796,881,ls)
);
},
{
closed = 1;
nodes = (
(1181,1402,l),
(866,1402,l),
(389,1402,o),
(325,1388,o),
(325,1132,c),
(133,1132,l),
(133,1481,o),
(256,1568,o),
(856,1568,c),
(1181,1568,l)
);
},
{
closed = 1;
nodes = (
(976,134,l),
(1311,134,l),
(1788,134,o),
(1827,178,o),
(1827,444,c),
(2019,444,l),
(2019,85,o),
(1921,-32,o),
(1321,-32,c),
(976,-32,l)
);
},
{
closed = 1;
nodes = (
(425,134,o),
(853,134,c),
(1173,134,l),
(1173,-32,l),
(853,-32,l),
(305,-32,o),
(133,29,o),
(133,509,c),
(325,509,l),
(325,133,o)
);
},
{
closed = 1;
nodes = (
(1677,1402,o),
(1284,1402,c),
(979,1402,l),
(979,1568,l),
(1284,1568,l),
(1827,1568,o),
(1989,1537,o),
(1989,1077,c),
(1797,1077,l),
(1797,1433,o)
);
},
{
closed = 1;
nodes = (
(1152,1690,l),
(960,1690,l),
(960,1882,l),
(1152,1882,l)
);
}
);
};
layerId = "3D86ED3E-BC30-4996-8F23-7FA448982149";
shapes = (
{
ref = S;
},
{
pos = (847,384);
ref = dotaccentcomb;
}
);
width = 2142;
}
);
unicode = 7776;
},
{
glyphname = T;
lastChange = "2023-04-26 14:46:50 +0000";
layers = (
{
anchors = (
{
name = bottom;
pos = (958,0);
},
{
name = center;
pos = (958,768);
},
{
name = top;
pos = (958,1536);
}
);
background = {
shapes = (
{
closed = 1;
nodes = (
(1822,1376,l),
(1054,1376,l),
(1054,0,l),
(862,0,l),
(862,1376,l),
(94,1376,l),
(94,1536,l),
(1822,1536,l)
);
}
);
};
layerId = "3D86ED3E-BC30-4996-8F23-7FA448982149";
shapes = (
{
closed = 1;
nodes = (
(1054,0,l),
(1054,1376,l),
(1822,1376,l),
(1822,1536,l),
(94,1536,l),
(94,1376,l),
(862,1376,l),
(862,0,l)
);
}
);
width = 1916;
}
);
unicode = 84;
},
{
glyphname = Tbar;
lastChange = "2023-05-03 13:50:05 +0000";
layers = (
{
background = {
shapes = (
{
closed = 1;
nodes = (
(1822,1376,l),
(1054,1376,l),
(1054,0,l),
(862,0,l),
(862,1376,l),
(94,1376,l),
(94,1536,l),
(1822,1536,l)
);
},
{
closed = 1;
nodes = (
(1373,672,l),
(1373,512,l),
(605,512,l),
(605,672,l)
);
}
);
};
layerId = "3D86ED3E-BC30-4996-8F23-7FA448982149";
shapes = (
{
ref = T;
},
{
closed = 1;
nodes = (
(1342,652,l),
(1342,812,l),
(574,812,l),
(574,652,l)
);
}
);
width = 1916;
}
);
unicode = 358;
},
{
glyphname = Tcaron;
lastChange = "2023-04-26 14:42:36 +0000";
layers = (
{
background = {
shapes = (
{
closed = 1;
nodes = (
(1822,1376,l),
(1054,1376,l),
(1054,0,l),
(862,0,l),
(862,1376,l),
(94,1376,l),
(94,1536,l),
(1822,1536,l)
);
},
{
closed = 1;
nodes = (
(1280,2266,l),
(1408,2170,l),
(1088,1690,l),
(896,1690,l),
(576,2170,l),
(704,2266,l),
(992,1818,l)
);
}
);
};
layerId = "3D86ED3E-BC30-4996-8F23-7FA448982149";
shapes = (
{
ref = T;
},
{
pos = (414,384);
ref = caroncomb;
}
);
width = 1916;
}
);
unicode = 356;
},
{
glyphname = Tcommaaccent;
lastChange = "2023-04-27 15:48:27 +0000";
layers = (
{
background = {
shapes = (
{
closed = 1;
nodes = (
(1822,1376,l),
(1054,1376,l),
(1054,0,l),
(862,0,l),
(862,1376,l),
(94,1376,l),
(94,1536,l),
(1822,1536,l)
);
},
{
closed = 1;
nodes = (
(1227,-172,o),
(1312,-225,o),
(1312,-332,cs),
(1312,-537,o),
(1156,-588,o),
(928,-588,c),
(928,-428,l),
(1003,-428,o),
(1049,-425,o),
(1068,-418,cs),
(1103,-405,o),
(1120,-376,o),
(1120,-332,cs),
(1120,-311,o),
(1113,-297,o),
(1099,-290,cs),
(1070,-276,o),
(1013,-268,o),
(928,-268,c),
(928,20,l),
(1056,20,l),
(1056,-172,l)
);
}
);
};
layerId = "3D86ED3E-BC30-4996-8F23-7FA448982149";
shapes = (
{
ref = T;
},
{
pos = (734,0);
ref = commaaccentcomb;
}
);
width = 1916;
}
);
unicode = 538;
},
{
glyphname = Tdotaccent;
lastChange = "2023-05-03 13:43:43 +0000";
layers = (
{
background = {
shapes = (
{
closed = 1;
nodes = (
(1822,1376,l),
(1054,1376,l),
(1054,0,l),
(862,0,l),
(862,1376,l),
(94,1376,l),
(94,1536,l),
(1822,1536,l)
);
},
{
closed = 1;
nodes = (
(1088,1690,l),
(896,1690,l),
(896,1882,l),
(1088,1882,l)
);
}
);
};
layerId = "3D86ED3E-BC30-4996-8F23-7FA448982149";
shapes = (
{
ref = T;
},
{
pos = (734,384);
ref = dotaccentcomb;
}
);
width = 1916;
}
);
unicode = 7786;
},
{
glyphname = U;
lastChange = "2023-04-26 14:47:24 +0000";
layers = (
{
anchors = (
{
name = bottom;
pos = (1060,0);
},
{
name = ogonek;
pos = (1121,21);
},
{
name = top;
pos = (1060,1536);
},
{
name = topright;
pos = (2100,1536);
}
);
background = {
shapes = (
{
closed = 1;
nodes = (
(328,788,l),
(136,748,l),
(136,1536,l),
(328,1536,l)
);
},
{
closed = 1;
nodes = (
(136,89,o),
(136,748,c),
(328,788,l),
(328,748,ls),
(328,181,o),
(404,134,o),
(879,134,c),
(1171,134,l),
(1171,-32,l),
(879,-32,l),
(279,-32,o)
);
},
{
closed = 1;
nodes = (
(1792,788,l),
(1792,1536,l),
(1984,1536,l),
(1984,748,l)
);
},
{
closed = 1;
nodes = (
(949,134,l),
(1241,134,l),
(1716,134,o),
(1792,181,o),
(1792,748,cs),
(1792,788,l),
(1984,748,l),
(1984,89,o),
(1841,-32,o),
(1241,-32,c),
(949,-32,l)
);
}
);
};
layerId = "3D86ED3E-BC30-4996-8F23-7FA448982149";
shapes = (
{
closed = 1;
nodes = (
(1241,-32,ls),
(1841,-32,o),
(1984,89,o),
(1984,748,cs),
(1984,1536,l),
(1792,1536,l),
(1792,748,ls),
(1792,181,o),
(1716,134,o),
(1241,134,cs),
(879,134,ls),
(404,134,o),
(328,181,o),
(328,748,cs),
(328,1536,l),
(136,1536,l),
(136,748,ls),
(136,89,o),
(279,-32,o),
(879,-32,cs)
);
}
);
width = 2120;
}
);
unicode = 85;
},
{
glyphname = Uacute;
lastChange = "2023-04-26 14:41:37 +0000";
layers = (
{
background = {
shapes = (
{
closed = 1;
nodes = (
(328,788,l),
(136,748,l),
(136,1536,l),
(328,1536,l)
);
},
{
closed = 1;
nodes = (
(136,89,o),
(136,748,c),
(328,788,l),
(328,748,ls),
(328,181,o),
(404,134,o),
(879,134,c),
(1171,134,l),
(1171,-32,l),
(879,-32,l),
(279,-32,o)
);
},
{
closed = 1;
nodes = (
(1792,788,l),
(1792,1536,l),
(1984,1536,l),
(1984,748,l)
);
},
{
closed = 1;
nodes = (
(949,134,l),
(1241,134,l),
(1716,134,o),
(1792,181,o),
(1792,748,cs),
(1792,788,l),
(1984,748,l),
(1984,89,o),
(1841,-32,o),
(1241,-32,c),
(949,-32,l)
);
},
{
closed = 1;
nodes = (
(768,1728,l),
(704,1824,l),
(1280,2304,l),
(1408,2112,l)
);
}
);
};
layerId = "3D86ED3E-BC30-4996-8F23-7FA448982149";
shapes = (
{
ref = U;
},
{
pos = (644,384);
ref = acutecomb;
}
);
width = 2120;
}
);
unicode = 218;
},
{
glyphname = Ubreve;
lastChange = "2023-04-26 14:42:48 +0000";
layers = (
{
background = {
shapes = (
{
closed = 1;
nodes = (
(328,788,l),
(136,748,l),
(136,1536,l),
(328,1536,l)
);
},
{
closed = 1;
nodes = (
(136,89,o),
(136,748,c),
(328,788,l),
(328,748,ls),
(328,181,o),
(404,134,o),
(879,134,c),
(1171,134,l),
(1171,-32,l),
(879,-32,l),
(279,-32,o)
);
},
{
closed = 1;
nodes = (
(1792,788,l),
(1792,1536,l),
(1984,1536,l),
(1984,748,l)
);
},
{
closed = 1;
nodes = (
(949,134,l),
(1241,134,l),
(1716,134,o),
(1792,181,o),
(1792,748,cs),
(1792,788,l),
(1984,748,l),
(1984,89,o),
(1841,-32,o),
(1241,-32,c),
(949,-32,l)
);
},
{
closed = 1;
nodes = (
(833,2010,l),
(833,1924,o),
(856,1867,o),
(902,1839,cs),
(925,1825,o),
(977,1818,o),
(1057,1818,cs),
(1137,1818,o),
(1190,1826,o),
(1217,1842,cs),
(1260,1868,o),
(1281,1924,o),
(1281,2010,c),
(1441,2010,l),
(1441,1774,o),
(1300,1690,o),
(1057,1690,cs),
(814,1690,o),
(673,1774,o),
(673,2010,c)
);
}
);
};
layerId = "3D86ED3E-BC30-4996-8F23-7FA448982149";
shapes = (
{
ref = U;
},
{
pos = (420,384);
ref = brevecomb;
}
);
width = 2120;
}
);
unicode = 364;
},
{
glyphname = Ucaron;
lastChange = "2023-04-26 14:42:36 +0000";
layers = (
{
background = {
shapes = (
{
closed = 1;
nodes = (
(328,788,l),
(136,748,l),
(136,1536,l),
(328,1536,l)
);
},
{
closed = 1;
nodes = (
(136,89,o),
(136,748,c),
(328,788,l),
(328,748,ls),
(328,181,o),
(404,134,o),
(879,134,c),
(1171,134,l),
(1171,-32,l),
(879,-32,l),
(279,-32,o)
);
},
{
closed = 1;
nodes = (
(1792,788,l),
(1792,1536,l),
(1984,1536,l),
(1984,748,l)
);
},
{
closed = 1;
nodes = (
(949,134,l),
(1241,134,l),
(1716,134,o),
(1792,181,o),
(1792,748,cs),
(1792,788,l),
(1984,748,l),
(1984,89,o),
(1841,-32,o),
(1241,-32,c),
(949,-32,l)
);
},
{
closed = 1;
nodes = (
(1345,2266,l),
(1473,2170,l),
(1153,1690,l),
(961,1690,l),
(641,2170,l),
(769,2266,l),
(1057,1818,l)
);
}
);
};
layerId = "3D86ED3E-BC30-4996-8F23-7FA448982149";
shapes = (
{
ref = U;
},
{
pos = (516,384);
ref = caroncomb;
}
);
width = 2120;
}
);
unicode = 467;
},
{
glyphname = Ucircumflex;
lastChange = "2023-04-26 14:42:14 +0000";
layers = (
{
background = {
shapes = (
{
closed = 1;
nodes = (
(328,788,l),
(136,748,l),
(136,1536,l),
(328,1536,l)
);
},
{
closed = 1;
nodes = (
(136,89,o),
(136,748,c),
(328,788,l),
(328,748,ls),
(328,181,o),
(404,134,o),
(879,134,c),
(1171,134,l),
(1171,-32,l),
(879,-32,l),
(279,-32,o)
);
},
{
closed = 1;
nodes = (
(1792,788,l),
(1792,1536,l),
(1984,1536,l),
(1984,748,l)
);
},
{
closed = 1;
nodes = (
(949,134,l),
(1241,134,l),
(1716,134,o),
(1792,181,o),
(1792,748,cs),
(1792,788,l),
(1984,748,l),
(1984,89,o),
(1841,-32,o),
(1241,-32,c),
(949,-32,l)
);
},
{
closed = 1;
nodes = (
(1056,2176,l),
(768,1728,l),
(640,1824,l),
(960,2304,l),
(1152,2304,l),
(1472,1824,l),
(1344,1728,l)
);
}
);
};
layerId = "3D86ED3E-BC30-4996-8F23-7FA448982149";
shapes = (
{
ref = U;
},
{
pos = (516,384);
ref = circumflexcomb;
}
);
width = 2120;
}
);
unicode = 219;
},
{
glyphname = Udblgrave;
lastChange = "2023-04-26 14:02:46 +0000";
layers = (
{
background = {
shapes = (
{
closed = 1;
nodes = (
(328,788,l),
(136,748,l),
(136,1536,l),
(328,1536,l)
);
},
{
closed = 1;
nodes = (
(136,89,o),
(136,748,c),
(328,788,l),
(328,748,ls),
(328,181,o),
(404,134,o),
(879,134,c),
(1171,134,l),
(1171,-32,l),
(879,-32,l),
(279,-32,o)
);
},
{
closed = 1;
nodes = (
(1792,788,l),
(1792,1536,l),
(1984,1536,l),
(1984,748,l)
);
},
{
closed = 1;
nodes = (
(949,134,l),
(1241,134,l),
(1716,134,o),
(1792,181,o),
(1792,748,cs),
(1792,788,l),
(1984,748,l),
(1984,89,o),
(1841,-32,o),
(1241,-32,c),
(949,-32,l)
);
}
);
};
layerId = "3D86ED3E-BC30-4996-8F23-7FA448982149";
shapes = (
{
ref = U;
}
);
width = 2120;
}
);
unicode = 532;
},
{
glyphname = Udieresis;
lastChange = "2023-04-26 14:40:05 +0000";
layers = (
{
background = {
shapes = (
{
closed = 1;
nodes = (
(328,788,l),
(136,748,l),
(136,1536,l),
(328,1536,l)
);
},
{
closed = 1;
nodes = (
(136,89,o),
(136,748,c),
(328,788,l),
(328,748,ls),
(328,181,o),
(404,134,o),
(879,134,c),
(1171,134,l),
(1171,-32,l),
(879,-32,l),
(279,-32,o)
);
},
{
closed = 1;
nodes = (
(1792,788,l),
(1792,1536,l),
(1984,1536,l),
(1984,748,l)
);
},
{
closed = 1;
nodes = (
(949,134,l),
(1241,134,l),
(1716,134,o),
(1792,181,o),
(1792,748,cs),
(1792,788,l),
(1984,748,l),
(1984,89,o),
(1841,-32,o),
(1241,-32,c),
(949,-32,l)
);
},
{
closed = 1;
nodes = (
(768,1792,l),
(576,1792,l),
(576,1984,l),
(768,1984,l)
);
},
{
closed = 1;
nodes = (
(1536,1792,l),
(1344,1792,l),
(1344,1984,l),
(1536,1984,l)
);
}
);
};
layerId = "3D86ED3E-BC30-4996-8F23-7FA448982149";
shapes = (
{
ref = U;
},
{
pos = (516,384);
ref = dieresiscomb;
}
);
width = 2120;
}
);
unicode = 220;
},
{
glyphname = Ugrave;
lastChange = "2023-04-26 14:40:59 +0000";
layers = (
{
background = {
shapes = (
{
closed = 1;
nodes = (
(328,788,l),
(136,748,l),
(136,1536,l),
(328,1536,l)
);
},
{
closed = 1;
nodes = (
(136,89,o),
(136,748,c),
(328,788,l),
(328,748,ls),
(328,181,o),
(404,134,o),
(879,134,c),
(1171,134,l),
(1171,-32,l),
(879,-32,l),
(279,-32,o)
);
},
{
closed = 1;
nodes = (
(1792,788,l),
(1792,1536,l),
(1984,1536,l),
(1984,748,l)
);
},
{
closed = 1;
nodes = (
(949,134,l),
(1241,134,l),
(1716,134,o),
(1792,181,o),
(1792,748,cs),
(1792,788,l),
(1984,748,l),
(1984,89,o),
(1841,-32,o),
(1241,-32,c),
(949,-32,l)
);
},
{
closed = 1;
nodes = (
(832,2304,l),
(1408,1824,l),
(1344,1728,l),
(704,2112,l)
);
}
);
};
layerId = "3D86ED3E-BC30-4996-8F23-7FA448982149";
shapes = (
{
ref = U;
},
{
pos = (642,444);
ref = gravecomb;
}
);
width = 2120;
}
);
unicode = 217;
},
{
glyphname = Uhungarumlaut;
lastChange = "2023-04-26 14:41:59 +0000";
layers = (
{
background = {
shapes = (
{
closed = 1;
nodes = (
(328,788,l),
(136,748,l),
(136,1536,l),
(328,1536,l)
);
},
{
closed = 1;
nodes = (
(136,89,o),
(136,748,c),
(328,788,l),
(328,748,ls),
(328,181,o),
(404,134,o),
(879,134,c),
(1171,134,l),
(1171,-32,l),
(879,-32,l),
(279,-32,o)
);
},
{
closed = 1;
nodes = (
(1792,788,l),
(1792,1536,l),
(1984,1536,l),
(1984,748,l)
);
},
{
closed = 1;
nodes = (
(949,134,l),
(1241,134,l),
(1716,134,o),
(1792,181,o),
(1792,748,cs),
(1792,788,l),
(1984,748,l),
(1984,89,o),
(1841,-32,o),
(1241,-32,c),
(949,-32,l)
);
},
{
closed = 1;
nodes = (
(780,1690,l),
(716,1786,l),
(1292,2266,l),
(1420,2074,l)
);
},
{
closed = 1;
nodes = (
(1333,1690,l),
(1269,1786,l),
(1845,2266,l),
(1973,2074,l)
);
}
);
};
layerId = "3D86ED3E-BC30-4996-8F23-7FA448982149";
shapes = (
{
ref = U;
},
{
pos = (589,408);
ref = hungarumlautcomb;
}
);
width = 2120;
}
);
unicode = 368;
},
{
glyphname = Uinvertedbreve;
lastChange = "2023-05-03 13:29:42 +0000";
layers = (
{
background = {
shapes = (
{
closed = 1;
nodes = (
(673,1925,o),
(814,2010,o),
(1057,2010,cs),
(1300,2010,o),
(1441,1926,o),
(1441,1690,c),
(1281,1690,l),
(1281,1776,o),
(1260,1832,o),
(1217,1858,cs),
(1190,1874,o),
(1137,1882,o),
(1057,1882,cs),
(977,1882,o),
(925,1875,o),
(902,1861,cs),
(856,1833,o),
(833,1776,o),
(833,1690,c),
(673,1690,l)
);
},
{
closed = 1;
nodes = (
(328,788,l),
(136,748,l),
(136,1536,l),
(328,1536,l)
);
},
{
closed = 1;
nodes = (
(136,89,o),
(136,748,c),
(328,788,l),
(328,748,ls),
(328,181,o),
(404,134,o),
(879,134,c),
(1171,134,l),
(1171,-32,l),
(879,-32,l),
(279,-32,o)
);
},
{
closed = 1;
nodes = (
(1792,788,l),
(1792,1536,l),
(1984,1536,l),
(1984,748,l)
);
},
{
closed = 1;
nodes = (
(949,134,l),
(1241,134,l),
(1716,134,o),
(1792,181,o),
(1792,748,cs),
(1792,788,l),
(1984,748,l),
(1984,89,o),
(1841,-32,o),
(1241,-32,c),
(949,-32,l)
);
}
);
};
layerId = "3D86ED3E-BC30-4996-8F23-7FA448982149";
shapes = (
{
ref = U;
},
{
pos = (420,384);
ref = breveinvertedcomb;
}
);
width = 2120;
}
);
unicode = 534;
},
{
glyphname = Umacron;
lastChange = "2023-04-26 14:44:09 +0000";
layers = (
{
background = {
shapes = (
{
closed = 1;
nodes = (
(328,788,l),
(136,748,l),
(136,1536,l),
(328,1536,l)
);
},
{
closed = 1;
nodes = (
(136,89,o),
(136,748,c),
(328,788,l),
(328,748,ls),
(328,181,o),
(404,134,o),
(879,134,c),
(1171,134,l),
(1171,-32,l),
(879,-32,l),
(279,-32,o)
);
},
{
closed = 1;
nodes = (
(1792,788,l),
(1792,1536,l),
(1984,1536,l),
(1984,748,l)
);
},
{
closed = 1;
nodes = (
(949,134,l),
(1241,134,l),
(1716,134,o),
(1792,181,o),
(1792,748,cs),
(1792,788,l),
(1984,748,l),
(1984,89,o),
(1841,-32,o),
(1241,-32,c),
(949,-32,l)
);
},
{
closed = 1;
nodes = (
(673,1850,l),
(1441,1850,l),
(1441,1690,l),
(673,1690,l)
);
}
);
};
layerId = "3D86ED3E-BC30-4996-8F23-7FA448982149";
shapes = (
{
ref = U;
},
{
pos = (548,384);
ref = macroncomb;
}
);
width = 2120;
}
);
unicode = 362;
},
{
glyphname = Uogonek;
lastChange = "2023-04-26 14:47:24 +0000";
layers = (
{
background = {
shapes = (
{
closed = 1;
nodes = (
(328,788,l),
(136,748,l),
(136,1536,l),
(328,1536,l)
);
},
{
closed = 1;
nodes = (
(136,89,o),
(136,748,c),
(328,788,l),
(328,748,ls),
(328,181,o),
(404,134,o),
(879,134,c),
(1171,134,l),
(1171,-32,l),
(879,-32,l),
(279,-32,o)
);
},
{
closed = 1;
nodes = (
(1792,788,l),
(1792,1536,l),
(1984,1536,l),
(1984,748,l)
);
},
{
closed = 1;
nodes = (
(949,134,l),
(1241,134,l),
(1716,134,o),
(1792,181,o),
(1792,748,cs),
(1792,788,l),
(1984,748,l),
(1984,89,o),
(1841,-32,o),
(1241,-32,c),
(949,-32,l)
);
},
{
closed = 1;
nodes = (
(929,-405,o),
(1007,-427,o),
(1121,-427,c),
(1121,-587,l),
(948,-587,o),
(831,-542,o),
(770,-452,cs),
(748,-419,o),
(737,-385,o),
(737,-349,cs),
(737,-279,o),
(751,-242,o),
(777,-200,cs),
(822,-128,o),
(894,-65,o),
(993,-11,c),
(1121,-11,l),
(993,-96,o),
(929,-192,o),
(929,-299,cs)
);
}
);
};
layerId = "3D86ED3E-BC30-4996-8F23-7FA448982149";
shapes = (
{
ref = U;
},
{
pos = (609,-43);
ref = ogonekcomb;
}
);
width = 2120;
}
);
unicode = 370;
},
{
glyphname = Uring;
lastChange = "2023-04-26 14:43:16 +0000";
layers = (
{
background = {
shapes = (
{
closed = 1;
nodes = (
(328,788,l),
(136,748,l),
(136,1536,l),
(328,1536,l)
);
},
{
closed = 1;
nodes = (
(136,89,o),
(136,748,c),
(328,788,l),
(328,748,ls),
(328,181,o),
(404,134,o),
(879,134,c),
(1171,134,l),
(1171,-32,l),
(879,-32,l),
(279,-32,o)
);
},
{
closed = 1;
nodes = (
(1792,788,l),
(1792,1536,l),
(1984,1536,l),
(1984,748,l)
);
},
{
closed = 1;
nodes = (
(949,134,l),
(1241,134,l),
(1716,134,o),
(1792,181,o),
(1792,748,cs),
(1792,788,l),
(1984,748,l),
(1984,89,o),
(1841,-32,o),
(1241,-32,c),
(949,-32,l)
);
},
{
closed = 1;
nodes = (
(1409,1805,o),
(1266,1690,o),
(1057,1690,cs),
(836,1690,o),
(705,1813,o),
(705,2010,cs),
(705,2215,o),
(848,2330,o),
(1057,2330,cs),
(1278,2330,o),
(1409,2207,o),
(1409,2010,cs)
);
},
{
closed = 1;
nodes = (
(984,2202,o),
(929,2178,o),
(893,2132,cs),
(874,2108,o),
(865,2067,o),
(865,2010,cs),
(865,1882,o),
(923,1818,o),
(1057,1818,cs),
(1130,1818,o),
(1185,1842,o),
(1221,1888,cs),
(1240,1912,o),
(1249,1953,o),
(1249,2010,cs),
(1249,2138,o),
(1191,2202,o),
(1057,2202,cs)
);
}
);
};
layerId = "3D86ED3E-BC30-4996-8F23-7FA448982149";
shapes = (
{
ref = U;
},
{
pos = (420,384);
ref = ringcomb;
}
);
width = 2120;
}
);
unicode = 366;
},
{
glyphname = Utilde;
lastChange = "2023-04-26 14:43:40 +0000";
layers = (
{
background = {
shapes = (
{
closed = 1;
nodes = (
(328,788,l),
(136,748,l),
(136,1536,l),
(328,1536,l)
);
},
{
closed = 1;
nodes = (
(136,89,o),
(136,748,c),
(328,788,l),
(328,748,ls),
(328,181,o),
(404,134,o),
(879,134,c),
(1171,134,l),
(1171,-32,l),
(879,-32,l),
(279,-32,o)
);
},
{
closed = 1;
nodes = (
(1792,788,l),
(1792,1536,l),
(1984,1536,l),
(1984,748,l)
);
},
{
closed = 1;
nodes = (
(949,134,l),
(1241,134,l),
(1716,134,o),
(1792,181,o),
(1792,748,cs),
(1792,788,l),
(1984,748,l),
(1984,89,o),
(1841,-32,o),
(1241,-32,c),
(949,-32,l)
);
},
{
closed = 1;
nodes = (
(609,1690,l),
(609,1855,o),
(719,1947,o),
(865,1947,cs),
(936,1947,o),
(1009,1930,o),
(1084,1898,cs),
(1128,1879,o),
(1182,1850,o),
(1235,1850,cs),
(1299,1850,o),
(1313,1867,o),
(1313,1946,c),
(1505,1946,l),
(1505,1858,o),
(1474,1790,o),
(1413,1744,cs),
(1365,1708,o),
(1310,1690,o),
(1249,1690,cs),
(1179,1690,o),
(1106,1706,o),
(1030,1738,cs),
(986,1757,o),
(932,1786,o),
(879,1786,cs),
(811,1786,o),
(801,1768,o),
(801,1690,c)
);
}
);
};
layerId = "3D86ED3E-BC30-4996-8F23-7FA448982149";
shapes = (
{
ref = U;
},
{
pos = (484,384);
ref = tildecomb;
}
);
width = 2120;
}
);
unicode = 360;
},
{
glyphname = V;
lastChange = "2023-04-26 14:46:50 +0000";
layers = (
{
anchors = (
{
name = bottom;
pos = (1024,0);
},
{
name = top;
pos = (1024,1536);
}
);
background = {
shapes = (
{
closed = 1;
nodes = (
(1977,1536,l),
(1152,0,l),
(896,0,l),
(68,1536,l),
(288,1536,l),
(1064,60,l),
(984,60,l),
(1760,1536,l)
);
}
);
};
layerId = "3D86ED3E-BC30-4996-8F23-7FA448982149";
shapes = (
{
closed = 1;
nodes = (
(1152,0,l),
(1977,1536,l),
(1760,1536,l),
(984,60,l),
(1064,60,l),
(288,1536,l),
(68,1536,l),
(896,0,l)
);
}
);
width = 2048;
}
);
unicode = 86;
},
{
glyphname = W;
lastChange = "2023-05-19 11:39:40 +0000";
layers = (
{
anchors = (
{
name = bottom;
pos = (1664,0);
},
{
name = top;
pos = (1664,1536);
}
);
background = {
shapes = (
{
closed = 1;
nodes = (
(1808,1536,l),
(2468,83,l),
(2397,83,l),
(3030,1536,l),
(3251,1536,l),
(2560,0,l),
(2304,0,l),
(1660,1423,l),
(1732,1423,l),
(1088,0,l),
(832,0,l),
(77,1536,l),
(298,1536,l),
(998,84,l),
(924,83,l),
(1584,1536,l)
);
}
);
};
layerId = "3D86ED3E-BC30-4996-8F23-7FA448982149";
shapes = (
{
closed = 1;
nodes = (
(1088,0,l),
(1732,1423,l),
(1660,1423,l),
(2304,0,l),
(2560,0,l),
(3251,1536,l),
(3030,1536,l),
(2397,83,l),
(2468,83,l),
(1808,1536,l),
(1584,1536,l),
(924,84,l),
(998,84,l),
(298,1536,l),
(77,1536,l),
(832,0,l)
);
}
);
width = 3328;
}
);
unicode = 87;
},
{
glyphname = Wacute;
lastChange = "2023-04-26 14:41:37 +0000";
layers = (
{
background = {
shapes = (
{
closed = 1;
nodes = (
(1808,1536,l),
(2468,83,l),
(2397,83,l),
(3030,1536,l),
(3251,1536,l),
(2560,0,l),
(2304,0,l),
(1660,1423,l),
(1732,1423,l),
(1088,0,l),
(832,0,l),
(77,1536,l),
(298,1536,l),
(998,84,l),
(924,83,l),
(1584,1536,l)
);
},
{
closed = 1;
nodes = (
(1664,1690,l),
(1600,1786,l),
(2176,2266,l),
(2304,2074,l)
);
}
);
};
layerId = "3D86ED3E-BC30-4996-8F23-7FA448982149";
shapes = (
{
ref = W;
},
{
pos = (1248,384);
ref = acutecomb;
}
);
width = 3328;
}
);
unicode = 7810;
},
{
glyphname = Wcircumflex;
lastChange = "2023-04-26 14:42:14 +0000";
layers = (
{
background = {
shapes = (
{
closed = 1;
nodes = (
(1808,1536,l),
(2468,83,l),
(2397,83,l),
(3030,1536,l),
(3251,1536,l),
(2560,0,l),
(2304,0,l),
(1660,1423,l),
(1732,1423,l),
(1088,0,l),
(832,0,l),
(77,1536,l),
(298,1536,l),
(998,84,l),
(924,83,l),
(1584,1536,l)
);
},
{
closed = 1;
nodes = (
(1728,2138,l),
(1440,1690,l),
(1312,1786,l),
(1632,2266,l),
(1824,2266,l),
(2144,1786,l),
(2016,1690,l)
);
}
);
};
layerId = "3D86ED3E-BC30-4996-8F23-7FA448982149";
shapes = (
{
ref = W;
},
{
pos = (1120,384);
ref = circumflexcomb;
}
);
width = 3328;
}
);
unicode = 372;
},
{
glyphname = Wdieresis;
lastChange = "2023-04-26 14:40:05 +0000";
layers = (
{
background = {
shapes = (
{
closed = 1;
nodes = (
(1808,1536,l),
(2468,83,l),
(2397,83,l),
(3030,1536,l),
(3251,1536,l),
(2560,0,l),
(2304,0,l),
(1660,1423,l),
(1732,1423,l),
(1088,0,l),
(832,0,l),
(77,1536,l),
(298,1536,l),
(998,84,l),
(924,83,l),
(1584,1536,l)
);
},
{
closed = 1;
nodes = (
(1376,1690,l),
(1184,1690,l),
(1184,1882,l),
(1376,1882,l)
);
},
{
closed = 1;
nodes = (
(2144,1690,l),
(1952,1690,l),
(1952,1882,l),
(2144,1882,l)
);
}
);
};
layerId = "3D86ED3E-BC30-4996-8F23-7FA448982149";
shapes = (
{
ref = W;
},
{
pos = (1120,384);
ref = dieresiscomb;
}
);
width = 3328;
}
);
unicode = 7812;
},
{
glyphname = Wgrave;
lastChange = "2023-04-26 14:40:59 +0000";
layers = (
{
background = {
shapes = (
{
closed = 1;
nodes = (
(1808,1536,l),
(2468,83,l),
(2397,83,l),
(3030,1536,l),
(3251,1536,l),
(2560,0,l),
(2304,0,l),
(1660,1423,l),
(1732,1423,l),
(1088,0,l),
(832,0,l),
(77,1536,l),
(298,1536,l),
(998,84,l),
(924,83,l),
(1584,1536,l)
);
},
{
closed = 1;
nodes = (
(1152,2266,l),
(1728,1786,l),
(1664,1690,l),
(1024,2074,l)
);
}
);
};
layerId = "3D86ED3E-BC30-4996-8F23-7FA448982149";
shapes = (
{
ref = W;
},
{
pos = (1246,444);
ref = gravecomb;
}
);
width = 3328;
}
);
unicode = 7808;
},
{
glyphname = X;
lastChange = "2023-04-26 14:46:50 +0000";
layers = (
{
anchors = (
{
name = bottom;
pos = (1088,0);
},
{
name = top;
pos = (1088,1536);
}
);
background = {
shapes = (
{
closed = 1;
nodes = (
(2112,0,l),
(1840,0,l),
(1075,686,l),
(336,0,l),
(64,0,l),
(937,810,l),
(128,1536,l),
(400,1536,l),
(1070,934,l),
(1719,1536,l),
(1991,1536,l),
(1209,810,l)
);
}
);
};
layerId = "3D86ED3E-BC30-4996-8F23-7FA448982149";
shapes = (
{
closed = 1;
nodes = (
(336,0,l),
(1075,686,l),
(1840,0,l),
(2112,0,l),
(1209,810,l),
(1991,1536,l),
(1719,1536,l),
(1070,934,l),
(400,1536,l),
(128,1536,l),
(937,810,l),
(64,0,l)
);
}
);
width = 2176;
}
);
unicode = 88;
},
{
glyphname = Y;
lastChange = "2023-04-26 14:46:50 +0000";
layers = (
{
anchors = (
{
name = bottom;
pos = (1088,0);
},
{
name = top;
pos = (1088,1536);
},
{
name = topleft;
pos = (20,1536);
}
);
background = {
shapes = (
{
closed = 1;
nodes = (
(384,1536,l),
(1088,784,l),
(1792,1536,l),
(2048,1536,l),
(1184,640,l),
(1184,0,l),
(992,0,l),
(992,640,l),
(128,1536,l)
);
}
);
};
layerId = "3D86ED3E-BC30-4996-8F23-7FA448982149";
shapes = (
{
closed = 1;
nodes = (
(1184,0,l),
(1184,640,l),
(2048,1536,l),
(1792,1536,l),
(1088,784,l),
(384,1536,l),
(128,1536,l),
(992,640,l),
(992,0,l)
);
}
);
width = 2176;
}
);
unicode = 89;
},
{
glyphname = Yacute;
lastChange = "2023-04-26 14:41:37 +0000";
layers = (
{
background = {
shapes = (
{
closed = 1;
nodes = (
(384,1536,l),
(1088,784,l),
(1792,1536,l),
(2048,1536,l),
(1184,640,l),
(1184,0,l),
(992,0,l),
(992,640,l),
(128,1536,l)
);
},
{
closed = 1;
nodes = (
(812,1728,l),
(748,1824,l),
(1324,2304,l),
(1452,2112,l)
);
}
);
};
layerId = "3D86ED3E-BC30-4996-8F23-7FA448982149";
shapes = (
{
ref = Y;
},
{
pos = (672,384);
ref = acutecomb;
}
);
width = 2176;
}
);
unicode = 221;
},
{
glyphname = Ycircumflex;
lastChange = "2023-04-26 14:42:14 +0000";
layers = (
{
background = {
shapes = (
{
closed = 1;
nodes = (
(384,1536,l),
(1088,784,l),
(1792,1536,l),
(2048,1536,l),
(1184,640,l),
(1184,0,l),
(992,0,l),
(992,640,l),
(128,1536,l)
);
},
{
closed = 1;
nodes = (
(1088,2138,l),
(800,1690,l),
(672,1786,l),
(992,2266,l),
(1184,2266,l),
(1504,1786,l),
(1376,1690,l)
);
}
);
};
layerId = "3D86ED3E-BC30-4996-8F23-7FA448982149";
shapes = (
{
ref = Y;
},
{
pos = (544,384);
ref = circumflexcomb;
}
);
width = 2176;
}
);
unicode = 374;
},
{
glyphname = Ydieresis;
lastChange = "2023-04-26 14:40:05 +0000";
layers = (
{
background = {
shapes = (
{
closed = 1;
nodes = (
(384,1536,l),
(1088,784,l),
(1792,1536,l),
(2048,1536,l),
(1184,640,l),
(1184,0,l),
(992,0,l),
(992,640,l),
(128,1536,l)
);
},
{
closed = 1;
nodes = (
(812,1792,l),
(620,1792,l),
(620,1984,l),
(812,1984,l)
);
},
{
closed = 1;
nodes = (
(1580,1792,l),
(1388,1792,l),
(1388,1984,l),
(1580,1984,l)
);
}
);
};
layerId = "3D86ED3E-BC30-4996-8F23-7FA448982149";
shapes = (
{
ref = Y;
},
{
pos = (544,384);
ref = dieresiscomb;
}
);
width = 2176;
}
);
unicode = 376;
},
{
glyphname = Ygrave;
lastChange = "2023-04-26 14:40:59 +0000";
layers = (
{
background = {
shapes = (
{
closed = 1;
nodes = (
(384,1536,l),
(1088,784,l),
(1792,1536,l),
(2048,1536,l),
(1184,640,l),
(1184,0,l),
(992,0,l),
(992,640,l),
(128,1536,l)
);
},
{
closed = 1;
nodes = (
(576,2266,l),
(1152,1786,l),
(1088,1690,l),
(448,2074,l)
);
}
);
};
layerId = "3D86ED3E-BC30-4996-8F23-7FA448982149";
shapes = (
{
ref = Y;
},
{
pos = (670,444);
ref = gravecomb;
}
);
width = 2176;
}
);
unicode = 7922;
},
{
glyphname = Ymacron;
lastChange = "2023-04-26 14:44:09 +0000";
layers = (
{
background = {
shapes = (
{
closed = 1;
nodes = (
(384,1536,l),
(1088,784,l),
(1792,1536,l),
(2048,1536,l),
(1184,640,l),
(1184,0,l),
(992,0,l),
(992,640,l),
(128,1536,l)
);
},
{
closed = 1;
nodes = (
(704,1850,l),
(1472,1850,l),
(1472,1690,l),
(704,1690,l)
);
}
);
};
layerId = "3D86ED3E-BC30-4996-8F23-7FA448982149";
shapes = (
{
ref = Y;
},
{
pos = (576,384);
ref = macroncomb;
}
);
width = 2176;
}
);
unicode = 562;
},
{
glyphname = Ytilde;
lastChange = "2023-04-26 14:43:40 +0000";
layers = (
{
background = {
shapes = (
{
closed = 1;
nodes = (
(384,1536,l),
(1088,784,l),
(1792,1536,l),
(2048,1536,l),
(1184,640,l),
(1184,0,l),
(992,0,l),
(992,640,l),
(128,1536,l)
);
},
{
closed = 1;
nodes = (
(640,1690,l),
(640,1855,o),
(750,1947,o),
(896,1947,cs),
(967,1947,o),
(1040,1930,o),
(1115,1898,cs),
(1159,1879,o),
(1213,1850,o),
(1266,1850,cs),
(1330,1850,o),
(1344,1867,o),
(1344,1946,c),
(1536,1946,l),
(1536,1858,o),
(1505,1790,o),
(1444,1744,cs),
(1396,1708,o),
(1341,1690,o),
(1280,1690,cs),
(1210,1690,o),
(1137,1706,o),
(1061,1738,cs),
(1017,1757,o),
(963,1786,o),
(910,1786,cs),
(842,1786,o),
(832,1768,o),
(832,1690,c)
);
}
);
};
layerId = "3D86ED3E-BC30-4996-8F23-7FA448982149";
shapes = (
{
ref = Y;
},
{
pos = (512,384);
ref = tildecomb;
}
);
width = 2176;
}
);
unicode = 7928;
},
{
glyphname = Z;
lastChange = "2023-04-26 14:46:50 +0000";
layers = (
{
anchors = (
{
name = bottom;
pos = (1023,0);
},
{
name = center;
pos = (1023,768);
},
{
name = top;
pos = (1023,1536);
}
);
background = {
shapes = (
{
closed = 1;
nodes = (
(128,160,l),
(1614,1376,l),
(192,1376,l),
(192,1536,l),
(1888,1536,l),
(1888,1376,l),
(394,160,l),
(1920,160,l),
(1920,0,l),
(128,0,l)
);
}
);
};
layerId = "3D86ED3E-BC30-4996-8F23-7FA448982149";
shapes = (
{
closed = 1;
nodes = (
(1920,0,l),
(1920,160,l),
(394,160,l),
(1888,1376,l),
(1888,1536,l),
(192,1536,l),
(192,1376,l),
(1614,1376,l),
(128,160,l),
(128,0,l)
);
}
);
width = 2046;
}
);
unicode = 90;
},
{
glyphname = Zacute;
lastChange = "2023-04-26 14:41:37 +0000";
layers = (
{
background = {
shapes = (
{
closed = 1;
nodes = (
(128,160,l),
(1614,1376,l),
(192,1376,l),
(192,1536,l),
(1888,1536,l),
(1888,1376,l),
(394,160,l),
(1920,160,l),
(1920,0,l),
(128,0,l)
);
},
{
closed = 1;
nodes = (
(1040,1690,l),
(976,1786,l),
(1552,2266,l),
(1680,2074,l)
);
}
);
};
layerId = "3D86ED3E-BC30-4996-8F23-7FA448982149";
shapes = (
{
ref = Z;
},
{
pos = (607,384);
ref = acutecomb;
}
);
width = 2046;
}
);
unicode = 377;
},
{
glyphname = Zcaron;
lastChange = "2023-04-26 14:42:36 +0000";
layers = (
{
background = {
shapes = (
{
closed = 1;
nodes = (
(128,160,l),
(1614,1376,l),
(192,1376,l),
(192,1536,l),
(1888,1536,l),
(1888,1376,l),
(394,160,l),
(1920,160,l),
(1920,0,l),
(128,0,l)
);
},
{
closed = 1;
nodes = (
(1311,2304,l),
(1439,2208,l),
(1119,1728,l),
(927,1728,l),
(607,2208,l),
(735,2304,l),
(1023,1856,l)
);
}
);
};
layerId = "3D86ED3E-BC30-4996-8F23-7FA448982149";
shapes = (
{
ref = Z;
},
{
pos = (479,384);
ref = caroncomb;
}
);
width = 2046;
}
);
unicode = 381;
},
{
glyphname = Zdotaccent;
lastChange = "2023-05-03 13:43:43 +0000";
layers = (
{
background = {
shapes = (
{
closed = 1;
nodes = (
(128,160,l),
(1614,1376,l),
(192,1376,l),
(192,1536,l),
(1888,1536,l),
(1888,1376,l),
(394,160,l),
(1920,160,l),
(1920,0,l),
(128,0,l)
);
},
{
closed = 1;
nodes = (
(1136,1690,l),
(944,1690,l),
(944,1882,l),
(1136,1882,l)
);
}
);
};
layerId = "3D86ED3E-BC30-4996-8F23-7FA448982149";
shapes = (
{
ref = Z;
},
{
pos = (799,384);
ref = dotaccentcomb;
}
);
width = 2046;
}
);
unicode = 379;
},
{
glyphname = R.ss02;
lastChange = "2023-05-19 11:48:43 +0000";
layers = (
{
anchors = (
{
name = bottom;
pos = (1044,0);
},
{
name = top;
pos = (1044,1536);
}
);
background = {
shapes = (
{
closed = 1;
nodes = (
(1724,835,o),
(1694,787,o),
(1237,787,cs),
(1026,787,l),
(1026,621,l),
(1227,621,ls),
(1704,621,o),
(1724,573,o),
(1724,335,cs),
(1724,0,l),
(1916,0,l),
(1916,365,ls),
(1916,565,o),
(1847,673,o),
(1664,703,c),
(1847,732,o),
(1916,841,o),
(1916,1058,c),
(1724,1098,l),
(1724,1058,ls)
);
},
{
closed = 1;
nodes = (
(196,0,l),
(388,0,l),
(388,678,l),
(196,678,l)
);
},
{
closed = 1;
nodes = (
(196,621,l),
(1107,621,l),
(1107,787,l),
(388,787,l),
(388,1370,l),
(1107,1370,l),
(1107,1536,l),
(196,1536,l)
);
},
{
closed = 1;
nodes = (
(1026,1370,l),
(1187,1370,l),
(1664,1370,o),
(1724,1352,o),
(1724,1098,c),
(1916,1058,l),
(1916,1098,l),
(1916,1445,o),
(1824,1536,o),
(1224,1536,c),
(1026,1536,l)
);
}
);
};
layerId = "3D86ED3E-BC30-4996-8F23-7FA448982149";
shapes = (
{
closed = 1;
nodes = (
(1916,0,l),
(1916,365,ls),
(1916,565,o),
(1847,673,o),
(1664,703,c),
(1847,732,o),
(1916,841,o),
(1916,1058,c),
(1724,1098,l),
(1724,1058,ls),
(1724,835,o),
(1694,787,o),
(1237,787,cs),
(1026,787,l),
(1026,621,l),
(1227,621,ls),
(1704,621,o),
(1724,573,o),
(1724,335,cs),
(1724,0,l)
);
},
{
closed = 1;
nodes = (
(388,0,l),
(388,678,l),
(196,678,l),
(196,0,l)
);
},
{
closed = 1;
nodes = (
(1107,621,l),
(1107,787,l),
(388,787,l),
(388,1370,l),
(1107,1370,l),
(1107,1536,l),
(196,1536,l),
(196,621,l)
);
},
{
closed = 1;
nodes = (
(1916,1098,l),
(1916,1445,o),
(1824,1536,o),
(1224,1536,c),
(1026,1536,l),
(1026,1370,l),
(1187,1370,l),
(1664,1370,o),
(1724,1352,o),
(1724,1098,c),
(1916,1058,l)
);
}
);
width = 2087;
}
);
},
{
glyphname = a;
lastChange = "2023-05-03 13:30:19 +0000";
layers = (
{
anchors = (
{
name = bottom;
pos = (780,0);
},
{
name = ogonek;
pos = (1413,20);
},
{
name = top;
pos = (804,1152);
}
);
background = {
shapes = (
{
closed = 1;
nodes = (
(1007,669,o),
(1163,656,o),
(1301,620,c),
(1244,448,l),
(1247,977,o),
(1242,1014,o),
(813,1014,cs),
(386,1014,o),
(369,986,o),
(369,842,c),
(177,842,l),
(177,1131,o),
(312,1174,o),
(813,1174,cs),
(1352,1174,o),
(1436,1062,o),
(1436,554,cs),
(1436,0,l),
(1244,0,l),
(1244,224,l),
(1311,211,l),
(1259,41,o),
(1190,-22,o),
(736,-22,cs),
(321,-22,o),
(129,13,o),
(129,321,cs),
(129,634,o),
(302,669,o),
(736,669,cs)
);
},
{
closed = 1;
nodes = (
(736,134,cs),
(1193,134,o),
(1244,139,o),
(1244,330,c),
(1244,507,l),
(736,513,l),
(375,513,o),
(321,500,o),
(321,321,cs),
(321,147,o),
(375,134,o)
);
}
);
};
layerId = "3D86ED3E-BC30-4996-8F23-7FA448982149";
shapes = (
{
closed = 1;
nodes = (
(1190,-22,o),
(1259,41,o),
(1311,211,c),
(1244,224,l),
(1244,0,l),
(1436,0,l),
(1436,554,ls),
(1436,1062,o),
(1352,1174,o),
(813,1174,cs),
(312,1174,o),
(177,1131,o),
(177,842,c),
(369,842,l),
(369,986,o),
(386,1014,o),
(813,1014,cs),
(1242,1014,o),
(1247,977,o),
(1244,448,c),
(1301,620,l),
(1163,656,o),
(1007,669,o),
(736,669,cs),
(302,669,o),
(129,634,o),
(129,321,cs),
(129,13,o),
(321,-22,o),
(736,-22,cs)
);
},
{
closed = 1;
nodes = (
(375,134,o),
(321,147,o),
(321,321,cs),
(321,500,o),
(375,517,o),
(736,513,cs),
(1244,507,l),
(1244,330,l),
(1244,139,o),
(1193,134,o),
(736,134,cs)
);
}
);
width = 1560;
}
);
unicode = 97;
},
{
glyphname = aacute;
lastChange = "2023-05-03 13:33:04 +0000";
layers = (
{
background = {
shapes = (
{
closed = 1;
nodes = (
(1007,669,o),
(1163,656,o),
(1301,620,c),
(1244,448,l),
(1247,977,o),
(1242,1014,o),
(813,1014,cs),
(386,1014,o),
(369,986,o),
(369,842,c),
(177,842,l),
(177,1131,o),
(312,1174,o),
(813,1174,cs),
(1352,1174,o),
(1436,1062,o),
(1436,554,cs),
(1436,0,l),
(1244,0,l),
(1244,224,l),
(1311,211,l),
(1259,41,o),
(1190,-22,o),
(736,-22,cs),
(321,-22,o),
(129,13,o),
(129,321,cs),
(129,634,o),
(302,669,o),
(736,669,cs)
);
},
{
closed = 1;
nodes = (
(736,134,cs),
(1193,134,o),
(1244,139,o),
(1244,330,c),
(1244,507,l),
(736,513,l),
(375,513,o),
(321,500,o),
(321,321,cs),
(321,147,o),
(375,134,o)
);
},
{
closed = 1;
nodes = (
(512,1280,l),
(448,1376,l),
(1024,1856,l),
(1152,1664,l)
);
}
);
};
layerId = "3D86ED3E-BC30-4996-8F23-7FA448982149";
shapes = (
{
ref = a;
},
{
pos = (388,0);
ref = acutecomb;
}
);
width = 1560;
}
);
unicode = 225;
},
{
glyphname = abreve;
lastChange = "2023-05-03 13:33:04 +0000";
layers = (
{
background = {
shapes = (
{
closed = 1;
nodes = (
(1007,669,o),
(1163,656,o),
(1301,620,c),
(1244,448,l),
(1247,977,o),
(1242,1014,o),
(813,1014,cs),
(386,1014,o),
(369,986,o),
(369,842,c),
(177,842,l),
(177,1131,o),
(312,1174,o),
(813,1174,cs),
(1352,1174,o),
(1436,1062,o),
(1436,554,cs),
(1436,0,l),
(1244,0,l),
(1244,224,l),
(1311,211,l),
(1259,41,o),
(1190,-22,o),
(736,-22,cs),
(321,-22,o),
(129,13,o),
(129,321,cs),
(129,634,o),
(302,669,o),
(736,669,cs)
);
},
{
closed = 1;
nodes = (
(736,134,cs),
(1193,134,o),
(1244,139,o),
(1244,330,c),
(1244,507,l),
(736,513,l),
(375,513,o),
(321,500,o),
(321,321,cs),
(321,147,o),
(375,134,o)
);
},
{
closed = 1;
nodes = (
(605,1626,l),
(605,1540,o),
(628,1483,o),
(674,1455,cs),
(697,1441,o),
(749,1434,o),
(829,1434,cs),
(909,1434,o),
(962,1442,o),
(989,1458,cs),
(1032,1484,o),
(1053,1540,o),
(1053,1626,c),
(1213,1626,l),
(1213,1390,o),
(1072,1306,o),
(829,1306,cs),
(586,1306,o),
(445,1390,o),
(445,1626,c)
);
}
);
};
layerId = "3D86ED3E-BC30-4996-8F23-7FA448982149";
shapes = (
{
ref = a;
},
{
pos = (164,0);
ref = brevecomb;
}
);
width = 1560;
}
);
unicode = 259;
},
{
glyphname = acaron;
lastChange = "2023-05-03 13:33:04 +0000";
layers = (
{
background = {
shapes = (
{
closed = 1;
nodes = (
(1007,669,o),
(1163,656,o),
(1301,620,c),
(1244,448,l),
(1247,977,o),
(1242,1014,o),
(813,1014,cs),
(386,1014,o),
(369,986,o),
(369,842,c),
(177,842,l),
(177,1131,o),
(312,1174,o),
(813,1174,cs),
(1352,1174,o),
(1436,1062,o),
(1436,554,cs),
(1436,0,l),
(1244,0,l),
(1244,224,l),
(1311,211,l),
(1259,41,o),
(1190,-22,o),
(736,-22,cs),
(321,-22,o),
(129,13,o),
(129,321,cs),
(129,634,o),
(302,669,o),
(736,669,cs)
);
},
{
closed = 1;
nodes = (
(736,134,cs),
(1193,134,o),
(1244,139,o),
(1244,330,c),
(1244,507,l),
(736,513,l),
(375,513,o),
(321,500,o),
(321,321,cs),
(321,147,o),
(375,134,o)
);
},
{
closed = 1;
nodes = (
(1122,1819,l),
(1250,1723,l),
(930,1243,l),
(738,1243,l),
(418,1723,l),
(546,1819,l),
(834,1371,l)
);
}
);
};
layerId = "3D86ED3E-BC30-4996-8F23-7FA448982149";
shapes = (
{
ref = a;
},
{
pos = (260,0);
ref = caroncomb;
}
);
width = 1560;
}
);
unicode = 462;
},
{
glyphname = acircumflex;
lastChange = "2023-05-03 13:33:04 +0000";
layers = (
{
background = {
shapes = (
{
closed = 1;
nodes = (
(1007,669,o),
(1163,656,o),
(1301,620,c),
(1244,448,l),
(1247,977,o),
(1242,1014,o),
(813,1014,cs),
(386,1014,o),
(369,986,o),
(369,842,c),
(177,842,l),
(177,1131,o),
(312,1174,o),
(813,1174,cs),
(1352,1174,o),
(1436,1062,o),
(1436,554,cs),
(1436,0,l),
(1244,0,l),
(1244,224,l),
(1311,211,l),
(1259,41,o),
(1190,-22,o),
(736,-22,cs),
(321,-22,o),
(129,13,o),
(129,321,cs),
(129,634,o),
(302,669,o),
(736,669,cs)
);
},
{
closed = 1;
nodes = (
(736,134,cs),
(1193,134,o),
(1244,139,o),
(1244,330,c),
(1244,507,l),
(736,513,l),
(375,513,o),
(321,500,o),
(321,321,cs),
(321,147,o),
(375,134,o)
);
},
{
closed = 1;
nodes = (
(800,1728,l),
(512,1280,l),
(384,1376,l),
(704,1856,l),
(896,1856,l),
(1216,1376,l),
(1088,1280,l)
);
}
);
};
layerId = "3D86ED3E-BC30-4996-8F23-7FA448982149";
shapes = (
{
ref = a;
},
{
pos = (260,0);
ref = circumflexcomb;
}
);
width = 1560;
}
);
unicode = 226;
},
{
glyphname = adblgrave;
lastChange = "2023-04-26 14:02:46 +0000";
layers = (
{
background = {
shapes = (
{
closed = 1;
nodes = (
(1007,669,o),
(1163,656,o),
(1301,620,c),
(1244,448,l),
(1247,977,o),
(1242,1014,o),
(813,1014,cs),
(386,1014,o),
(369,986,o),
(369,842,c),
(177,842,l),
(177,1131,o),
(312,1174,o),
(813,1174,cs),
(1352,1174,o),
(1436,1062,o),
(1436,554,cs),
(1436,0,l),
(1244,0,l),
(1244,224,l),
(1311,211,l),
(1259,41,o),
(1190,-22,o),
(736,-22,cs),
(321,-22,o),
(129,13,o),
(129,321,cs),
(129,634,o),
(302,669,o),
(736,669,cs)
);
},
{
closed = 1;
nodes = (
(736,134,cs),
(1193,134,o),
(1244,139,o),
(1244,330,c),
(1244,507,l),
(736,513,l),
(375,513,o),
(321,500,o),
(321,321,cs),
(321,147,o),
(375,134,o)
);
}
);
};
layerId = "3D86ED3E-BC30-4996-8F23-7FA448982149";
shapes = (
{
ref = a;
}
);
width = 1560;
}
);
unicode = 513;
},
{
glyphname = adieresis;
lastChange = "2023-05-03 13:33:04 +0000";
layers = (
{
background = {
shapes = (
{
closed = 1;
nodes = (
(1007,669,o),
(1163,656,o),
(1301,620,c),
(1244,448,l),
(1247,977,o),
(1242,1014,o),
(813,1014,cs),
(386,1014,o),
(369,986,o),
(369,842,c),
(177,842,l),
(177,1131,o),
(312,1174,o),
(813,1174,cs),
(1352,1174,o),
(1436,1062,o),
(1436,554,cs),
(1436,0,l),
(1244,0,l),
(1244,224,l),
(1311,211,l),
(1259,41,o),
(1190,-22,o),
(736,-22,cs),
(321,-22,o),
(129,13,o),
(129,321,cs),
(129,634,o),
(302,669,o),
(736,669,cs)
);
},
{
closed = 1;
nodes = (
(736,134,cs),
(1193,134,o),
(1244,139,o),
(1244,330,c),
(1244,507,l),
(736,513,l),
(375,513,o),
(321,500,o),
(321,321,cs),
(321,147,o),
(375,134,o)
);
},
{
closed = 1;
nodes = (
(512,1344,l),
(320,1344,l),
(320,1536,l),
(512,1536,l)
);
},
{
closed = 1;
nodes = (
(1280,1344,l),
(1088,1344,l),
(1088,1536,l),
(1280,1536,l)
);
}
);
};
layerId = "3D86ED3E-BC30-4996-8F23-7FA448982149";
shapes = (
{
ref = a;
},
{
pos = (260,0);
ref = dieresiscomb;
}
);
width = 1560;
}
);
unicode = 228;
},
{
glyphname = adotaccent;
lastChange = "2023-05-03 13:43:43 +0000";
layers = (
{
background = {
shapes = (
{
closed = 1;
nodes = (
(1007,669,o),
(1163,656,o),
(1301,620,c),
(1244,448,l),
(1247,977,o),
(1242,1014,o),
(813,1014,cs),
(386,1014,o),
(369,986,o),
(369,842,c),
(177,842,l),
(177,1131,o),
(312,1174,o),
(813,1174,cs),
(1352,1174,o),
(1436,1062,o),
(1436,554,cs),
(1436,0,l),
(1244,0,l),
(1244,224,l),
(1311,211,l),
(1259,41,o),
(1190,-22,o),
(736,-22,cs),
(321,-22,o),
(129,13,o),
(129,321,cs),
(129,634,o),
(302,669,o),
(736,669,cs)
);
},
{
closed = 1;
nodes = (
(736,134,cs),
(1193,134,o),
(1244,139,o),
(1244,330,c),
(1244,507,l),
(736,513,l),
(375,513,o),
(321,500,o),
(321,321,cs),
(321,147,o),
(375,134,o)
);
},
{
closed = 1;
nodes = (
(930,1243,l),
(738,1243,l),
(738,1435,l),
(930,1435,l)
);
}
);
};
layerId = "3D86ED3E-BC30-4996-8F23-7FA448982149";
shapes = (
{
ref = a;
},
{
pos = (580,0);
ref = dotaccentcomb;
}
);
width = 1560;
}
);
unicode = 551;
},
{
glyphname = agrave;
lastChange = "2023-05-03 13:33:04 +0000";
layers = (
{
background = {
shapes = (
{
closed = 1;
nodes = (
(1007,669,o),
(1163,656,o),
(1301,620,c),
(1244,448,l),
(1247,977,o),
(1242,1014,o),
(813,1014,cs),
(386,1014,o),
(369,986,o),
(369,842,c),
(177,842,l),
(177,1131,o),
(312,1174,o),
(813,1174,cs),
(1352,1174,o),
(1436,1062,o),
(1436,554,cs),
(1436,0,l),
(1244,0,l),
(1244,224,l),
(1311,211,l),
(1259,41,o),
(1190,-22,o),
(736,-22,cs),
(321,-22,o),
(129,13,o),
(129,321,cs),
(129,634,o),
(302,669,o),
(736,669,cs)
);
},
{
closed = 1;
nodes = (
(736,134,cs),
(1193,134,o),
(1244,139,o),
(1244,330,c),
(1244,507,l),
(736,513,l),
(375,513,o),
(321,500,o),
(321,321,cs),
(321,147,o),
(375,134,o)
);
},
{
closed = 1;
nodes = (
(576,1856,l),
(1152,1376,l),
(1088,1280,l),
(448,1664,l)
);
}
);
};
layerId = "3D86ED3E-BC30-4996-8F23-7FA448982149";
shapes = (
{
ref = a;
},
{
pos = (386,60);
ref = gravecomb;
}
);
width = 1560;
}
);
unicode = 224;
},
{
glyphname = ainvertedbreve;
lastChange = "2023-05-03 13:30:19 +0000";
layers = (
{
background = {
shapes = (
{
closed = 1;
nodes = (
(450,1477,o),
(591,1562,o),
(834,1562,cs),
(1077,1562,o),
(1218,1478,o),
(1218,1242,c),
(1058,1242,l),
(1058,1328,o),
(1037,1384,o),
(994,1410,cs),
(967,1426,o),
(914,1434,o),
(834,1434,cs),
(754,1434,o),
(702,1427,o),
(679,1413,cs),
(633,1385,o),
(610,1328,o),
(610,1242,c),
(450,1242,l)
);
},
{
closed = 1;
nodes = (
(1012,669,o),
(1168,656,o),
(1306,620,c),
(1249,448,l),
(1252,977,o),
(1247,1014,o),
(818,1014,cs),
(391,1014,o),
(374,986,o),
(374,842,c),
(182,842,l),
(182,1131,o),
(317,1174,o),
(818,1174,cs),
(1357,1174,o),
(1441,1062,o),
(1441,554,cs),
(1441,0,l),
(1249,0,l),
(1249,224,l),
(1316,211,l),
(1264,41,o),
(1195,-22,o),
(741,-22,cs),
(326,-22,o),
(134,13,o),
(134,321,cs),
(134,634,o),
(307,669,o),
(741,669,cs)
);
},
{
closed = 1;
nodes = (
(741,134,cs),
(1198,134,o),
(1249,139,o),
(1249,330,c),
(1249,507,l),
(741,513,l),
(380,513,o),
(326,500,o),
(326,321,cs),
(326,147,o),
(380,134,o)
);
}
);
};
layerId = "3D86ED3E-BC30-4996-8F23-7FA448982149";
shapes = (
{
ref = a;
},
{
pos = (164,0);
ref = breveinvertedcomb;
}
);
width = 1560;
}
);
unicode = 515;
},
{
glyphname = amacron;
lastChange = "2023-05-03 13:33:04 +0000";
layers = (
{
background = {
shapes = (
{
closed = 1;
nodes = (
(1007,669,o),
(1163,656,o),
(1301,620,c),
(1244,448,l),
(1247,977,o),
(1242,1014,o),
(813,1014,cs),
(386,1014,o),
(369,986,o),
(369,842,c),
(177,842,l),
(177,1131,o),
(312,1174,o),
(813,1174,cs),
(1352,1174,o),
(1436,1062,o),
(1436,554,cs),
(1436,0,l),
(1244,0,l),
(1244,224,l),
(1311,211,l),
(1259,41,o),
(1190,-22,o),
(736,-22,cs),
(321,-22,o),
(129,13,o),
(129,321,cs),
(129,634,o),
(302,669,o),
(736,669,cs)
);
},
{
closed = 1;
nodes = (
(736,134,cs),
(1193,134,o),
(1244,139,o),
(1244,330,c),
(1244,507,l),
(736,513,l),
(375,513,o),
(321,500,o),
(321,321,cs),
(321,147,o),
(375,134,o)
);
},
{
closed = 1;
nodes = (
(450,1404,l),
(1218,1404,l),
(1218,1244,l),
(450,1244,l)
);
}
);
};
layerId = "3D86ED3E-BC30-4996-8F23-7FA448982149";
shapes = (
{
ref = a;
},
{
pos = (292,0);
ref = macroncomb;
}
);
width = 1560;
}
);
unicode = 257;
},
{
glyphname = aogonek;
lastChange = "2023-04-26 14:47:34 +0000";
layers = (
{
background = {
shapes = (
{
closed = 1;
nodes = (
(1007,669,o),
(1163,656,o),
(1301,620,c),
(1244,448,l),
(1247,977,o),
(1242,1014,o),
(813,1014,cs),
(386,1014,o),
(369,986,o),
(369,842,c),
(177,842,l),
(177,1131,o),
(312,1174,o),
(813,1174,cs),
(1352,1174,o),
(1436,1062,o),
(1436,554,cs),
(1436,0,l),
(1244,0,l),
(1244,224,l),
(1311,211,l),
(1259,41,o),
(1190,-22,o),
(736,-22,cs),
(321,-22,o),
(129,13,o),
(129,321,cs),
(129,634,o),
(302,669,o),
(736,669,cs)
);
},
{
closed = 1;
nodes = (
(736,134,cs),
(1193,134,o),
(1244,139,o),
(1244,330,c),
(1244,507,l),
(736,513,l),
(375,513,o),
(321,500,o),
(321,321,cs),
(321,147,o),
(375,134,o)
);
},
{
closed = 1;
nodes = (
(1221,-390,o),
(1299,-412,o),
(1413,-412,c),
(1413,-572,l),
(1240,-572,o),
(1123,-527,o),
(1062,-437,cs),
(1040,-404,o),
(1029,-370,o),
(1029,-334,cs),
(1029,-264,o),
(1043,-227,o),
(1069,-185,cs),
(1114,-113,o),
(1186,-50,o),
(1285,4,c),
(1413,4,l),
(1285,-81,o),
(1221,-177,o),
(1221,-284,cs)
);
}
);
};
layerId = "3D86ED3E-BC30-4996-8F23-7FA448982149";
shapes = (
{
ref = a;
},
{
pos = (901,-44);
ref = ogonekcomb;
}
);
width = 1560;
}
);
unicode = 261;
},
{
glyphname = aring;
lastChange = "2023-05-03 13:33:04 +0000";
layers = (
{
background = {
shapes = (
{
closed = 1;
nodes = (
(1007,669,o),
(1163,656,o),
(1301,620,c),
(1244,448,l),
(1247,977,o),
(1242,1014,o),
(813,1014,cs),
(386,1014,o),
(369,986,o),
(369,842,c),
(177,842,l),
(177,1131,o),
(312,1174,o),
(813,1174,cs),
(1352,1174,o),
(1436,1062,o),
(1436,554,cs),
(1436,0,l),
(1244,0,l),
(1244,224,l),
(1311,211,l),
(1259,41,o),
(1190,-22,o),
(736,-22,cs),
(321,-22,o),
(129,13,o),
(129,321,cs),
(129,634,o),
(302,669,o),
(736,669,cs)
);
},
{
closed = 1;
nodes = (
(736,134,cs),
(1193,134,o),
(1244,139,o),
(1244,330,c),
(1244,507,l),
(736,513,l),
(375,513,o),
(321,500,o),
(321,321,cs),
(321,147,o),
(375,134,o)
);
},
{
closed = 1;
nodes = (
(1152,1395,o),
(1009,1280,o),
(800,1280,cs),
(579,1280,o),
(448,1403,o),
(448,1600,cs),
(448,1805,o),
(591,1920,o),
(800,1920,cs),
(1021,1920,o),
(1152,1797,o),
(1152,1600,cs)
);
},
{
closed = 1;
nodes = (
(727,1792,o),
(672,1768,o),
(636,1722,cs),
(617,1698,o),
(608,1657,o),
(608,1600,cs),
(608,1472,o),
(666,1408,o),
(800,1408,cs),
(873,1408,o),
(928,1432,o),
(964,1478,cs),
(983,1502,o),
(992,1543,o),
(992,1600,cs),
(992,1728,o),
(934,1792,o),
(800,1792,cs)
);
}
);
};
layerId = "3D86ED3E-BC30-4996-8F23-7FA448982149";
shapes = (
{
ref = a;
},
{
pos = (164,0);
ref = ringcomb;
}
);
width = 1560;
}
);
unicode = 229;
},
{
glyphname = aringacute;
lastChange = "2023-05-03 13:33:04 +0000";
layers = (
{
background = {
shapes = (
{
closed = 1;
nodes = (
(1007,669,o),
(1163,656,o),
(1301,620,c),
(1244,448,l),
(1247,977,o),
(1242,1014,o),
(813,1014,cs),
(386,1014,o),
(369,986,o),
(369,842,c),
(177,842,l),
(177,1131,o),
(312,1174,o),
(813,1174,cs),
(1352,1174,o),
(1436,1062,o),
(1436,554,cs),
(1436,0,l),
(1244,0,l),
(1244,224,l),
(1311,211,l),
(1259,41,o),
(1190,-22,o),
(736,-22,cs),
(321,-22,o),
(129,13,o),
(129,321,cs),
(129,634,o),
(302,669,o),
(736,669,cs)
);
},
{
closed = 1;
nodes = (
(736,134,cs),
(1193,134,o),
(1244,139,o),
(1244,330,c),
(1244,507,l),
(736,513,l),
(375,513,o),
(321,500,o),
(321,321,cs),
(321,147,o),
(375,134,o)
);
},
{
closed = 1;
nodes = (
(800,2042,l),
(736,2138,l),
(1312,2618,l),
(1440,2426,l)
);
},
{
closed = 1;
nodes = (
(1152,1395,o),
(1009,1280,o),
(800,1280,cs),
(579,1280,o),
(448,1403,o),
(448,1600,cs),
(448,1805,o),
(591,1920,o),
(800,1920,cs),
(1021,1920,o),
(1152,1797,o),
(1152,1600,cs)
);
},
{
closed = 1;
nodes = (
(727,1792,o),
(672,1768,o),
(636,1722,cs),
(617,1698,o),
(608,1657,o),
(608,1600,cs),
(608,1472,o),
(666,1408,o),
(800,1408,cs),
(873,1408,o),
(928,1432,o),
(964,1478,cs),
(983,1502,o),
(992,1543,o),
(992,1600,cs),
(992,1728,o),
(934,1792,o),
(800,1792,cs)
);
}
);
};
layerId = "3D86ED3E-BC30-4996-8F23-7FA448982149";
shapes = (
{
ref = a;
},
{
pos = (164,0);
ref = ringcomb;
},
{
pos = (388,738);
ref = acutecomb;
}
);
width = 1560;
}
);
unicode = 507;
},
{
glyphname = atilde;
lastChange = "2023-05-03 13:33:04 +0000";
layers = (
{
background = {
shapes = (
{
closed = 1;
nodes = (
(1007,669,o),
(1163,656,o),
(1301,620,c),
(1244,448,l),
(1247,977,o),
(1242,1014,o),
(813,1014,cs),
(386,1014,o),
(369,986,o),
(369,842,c),
(177,842,l),
(177,1131,o),
(312,1174,o),
(813,1174,cs),
(1352,1174,o),
(1436,1062,o),
(1436,554,cs),
(1436,0,l),
(1244,0,l),
(1244,224,l),
(1311,211,l),
(1259,41,o),
(1190,-22,o),
(736,-22,cs),
(321,-22,o),
(129,13,o),
(129,321,cs),
(129,634,o),
(302,669,o),
(736,669,cs)
);
},
{
closed = 1;
nodes = (
(736,134,cs),
(1193,134,o),
(1244,139,o),
(1244,330,c),
(1244,507,l),
(736,513,l),
(375,513,o),
(321,500,o),
(321,321,cs),
(321,147,o),
(375,134,o)
);
},
{
closed = 1;
nodes = (
(352,1344,l),
(352,1509,o),
(462,1601,o),
(608,1601,cs),
(679,1601,o),
(752,1584,o),
(827,1552,cs),
(871,1533,o),
(925,1504,o),
(978,1504,cs),
(1042,1504,o),
(1056,1521,o),
(1056,1600,c),
(1248,1600,l),
(1248,1512,o),
(1217,1444,o),
(1156,1398,cs),
(1108,1362,o),
(1053,1344,o),
(992,1344,cs),
(922,1344,o),
(849,1360,o),
(773,1392,cs),
(729,1411,o),
(675,1440,o),
(622,1440,cs),
(554,1440,o),
(544,1422,o),
(544,1344,c)
);
}
);
};
layerId = "3D86ED3E-BC30-4996-8F23-7FA448982149";
shapes = (
{
ref = a;
},
{
pos = (228,0);
ref = tildecomb;
}
);
width = 1560;
}
);
unicode = 227;
},
{
glyphname = ae;
lastChange = "2023-05-03 13:41:57 +0000";
layers = (
{
anchors = (
{
name = bottom;
pos = (1376,0);
},
{
name = top;
pos = (1386,1152);
}
);
background = {
shapes = (
{
closed = 1;
nodes = (
(1465,1071,o),
(1657,1120,o),
(1925,1120,cs),
(2056,1120,o),
(2155,1114,o),
(2222,1102,cs),
(2500,1051,o),
(2624,907,o),
(2624,576,c),
(2608,512,l),
(1472,512,l),
(1472,486,l),
(1474,337,o),
(1500,237,o),
(1590,184,cs),
(1683,129,o),
(1821,128,o),
(1980,128,cs),
(2071,128,o),
(2144,131,o),
(2202,136,cs),
(2340,148,o),
(2432,177,o),
(2432,320,c),
(2624,320,l),
(2624,191,o),
(2577,100,o),
(2484,48,cs),
(2389,-5,o),
(2232,-32,o),
(2016,-32,cs),
(1732,-32,o),
(1500,-7,o),
(1382,145,c),
(1314,56,o),
(1182,-1,o),
(984,-26,cs),
(931,-33,o),
(856,-36,o),
(762,-36,cs),
(459,-36,o),
(128,8,o),
(128,293,cs),
(128,453,o),
(187,558,o),
(304,606,cs),
(375,635,o),
(454,651,o),
(542,654,cs),
(630,657,o),
(703,659,o),
(763,659,cs),
(958,659,o),
(1211,634,o),
(1280,544,c),
(1280,764,o),
(1254,893,o),
(1100,938,cs),
(1049,953,o),
(970,960,o),
(863,960,cs),
(756,960,o),
(673,957,o),
(615,952,cs),
(477,940,o),
(384,911,o),
(384,768,c),
(192,768,l),
(192,897,o),
(238,988,o),
(332,1040,cs),
(428,1093,o),
(596,1120,o),
(834,1120,cs),
(987,1120,o),
(1093,1109,o),
(1153,1088,cs),
(1269,1046,o),
(1329,997,o),
(1382,896,c)
);
},
{
closed = 1;
nodes = (
(632,131,o),
(716,128,o),
(814,128,cs),
(975,128,o),
(1087,131,o),
(1184,176,cs),
(1248,206,o),
(1280,254,o),
(1280,320,cs),
(1280,385,o),
(1244,430,o),
(1170,456,cs),
(1094,483,o),
(961,496,o),
(770,496,cs),
(574,496,o),
(455,488,o),
(414,473,cs),
(340,445,o),
(320,413,o),
(320,320,cs),
(320,232,o),
(342,190,o),
(409,164,cs),
(445,150,o),
(496,141,o),
(564,136,cs)
);
},
{
closed = 1;
nodes = (
(1756,960,o),
(1559,960,o),
(1498,812,cs),
(1481,770,o),
(1472,712,o),
(1472,640,c),
(2432,640,l),
(2432,764,o),
(2397,850,o),
(2328,896,cs),
(2264,939,o),
(2145,960,o),
(1972,960,cs)
);
}
);
};
layerId = "3D86ED3E-BC30-4996-8F23-7FA448982149";
shapes = (
{
closed = 1;
nodes = (
(856,-36,o),
(931,-33,o),
(984,-26,cs),
(1182,1,o),
(1314,60,o),
(1382,154,c),
(1500,-6,o),
(1732,-32,o),
(2016,-32,cs),
(2232,-32,o),
(2389,-3,o),
(2484,52,cs),
(2577,107,o),
(2624,202,o),
(2624,337,c),
(2432,337,l),
(2432,187,o),
(2340,149,o),
(2202,136,cs),
(2144,131,o),
(2071,128,o),
(1980,128,cs),
(1821,128,o),
(1683,129,o),
(1590,187,cs),
(1500,242,o),
(1474,355,o),
(1472,511,c),
(1472,539,l),
(2608,539,l),
(2624,606,l),
(2624,953,o),
(2500,1104,o),
(2222,1157,cs),
(2155,1170,o),
(2056,1176,o),
(1925,1176,cs),
(1657,1176,o),
(1465,1125,o),
(1382,941,c),
(1329,1047,o),
(1269,1098,o),
(1153,1142,cs),
(1093,1164,o),
(987,1176,o),
(834,1176,cs),
(596,1176,o),
(428,1148,o),
(332,1092,cs),
(238,1038,o),
(192,942,o),
(192,807,c),
(384,807,l),
(384,957,o),
(477,995,o),
(615,1008,cs),
(673,1013,o),
(756,1016,o),
(863,1016,cs),
(970,1016,o),
(1049,1009,o),
(1100,993,cs),
(1254,946,o),
(1280,803,o),
(1280,572,c),
(1211,666,o),
(958,693,o),
(763,693,cs),
(703,693,o),
(630,691,o),
(542,687,cs),
(454,684,o),
(375,668,o),
(304,637,cs),
(187,587,o),
(128,477,o),
(128,309,cs),
(128,10,o),
(459,-36,o),
(762,-36,cs)
);
},
{
closed = 1;
nodes = (
(716,128,o),
(632,131,o),
(564,136,cs),
(496,142,o),
(445,151,o),
(409,166,cs),
(342,193,o),
(320,245,o),
(320,337,cs),
(320,435,o),
(340,468,o),
(414,498,cs),
(455,513,o),
(574,522,o),
(770,522,cs),
(961,522,o),
(1094,508,o),
(1170,480,cs),
(1244,453,o),
(1280,405,o),
(1280,337,cs),
(1280,268,o),
(1248,210,o),
(1184,178,cs),
(1087,131,o),
(975,128,o),
(814,128,cs)
);
},
{
closed = 1;
nodes = (
(1472,748,o),
(1481,809,o),
(1498,853,cs),
(1559,1008,o),
(1756,1016,o),
(1972,1016,cs),
(2145,1016,o),
(2264,994,o),
(2328,949,cs),
(2397,901,o),
(2432,803,o),
(2432,673,c),
(1472,673,l)
);
}
);
width = 2752;
}
);
unicode = 230;
},
{
glyphname = aeacute;
lastChange = "2023-05-03 13:40:50 +0000";
layers = (
{
background = {
shapes = (
{
closed = 1;
nodes = (
(1007,669,o),
(1163,656,o),
(1301,620,c),
(1244,448,l),
(1247,977,o),
(1242,1014,o),
(813,1014,cs),
(386,1014,o),
(369,986,o),
(369,842,c),
(177,842,l),
(177,1131,o),
(312,1174,o),
(813,1174,cs),
(1352,1174,o),
(1436,1062,o),
(1436,554,cs),
(1436,0,l),
(1244,0,l),
(1244,224,l),
(1311,211,l),
(1259,41,o),
(1190,-22,o),
(736,-22,cs),
(321,-22,o),
(129,13,o),
(129,321,cs),
(129,634,o),
(302,669,o),
(736,669,cs)
);
},
{
closed = 1;
nodes = (
(736,134,cs),
(1193,134,o),
(1244,139,o),
(1244,330,c),
(1244,507,l),
(736,513,l),
(375,513,o),
(321,500,o),
(321,321,cs),
(321,147,o),
(375,134,o)
);
},
{
closed = 1;
nodes = (
(1633,1243,l),
(1569,1339,l),
(2145,1819,l),
(2273,1627,l)
);
},
{
closed = 1;
nodes = (
(1656,1105,o),
(1837,1174,o),
(2353,1174,c),
(2353,1014,l),
(1877,1014,o),
(1848,962,o),
(1848,582,c),
(1656,582,l)
);
},
{
closed = 1;
nodes = (
(1882,138,o),
(2358,138,c),
(2358,-22,l),
(1842,-22,o),
(1656,43,o),
(1656,582,c),
(1848,582,l),
(1848,186,o)
);
},
{
closed = 1;
nodes = (
(2823,597,l),
(2823,770,l),
(2823,963,o),
(2763,1014,o),
(2353,1014,c),
(2353,1174,l),
(2795,1174,o),
(3007,1105,o),
(3007,770,c),
(3007,597,l)
);
},
{
closed = 1;
nodes = (
(3007,-2,o),
(2808,-22,o),
(2358,-22,c),
(2358,138,l),
(2764,138,o),
(2828,157,o),
(2828,342,c),
(3007,342,l)
);
},
{
closed = 1;
nodes = (
(3007,523,l),
(1758,523,l),
(1758,674,l),
(3007,674,l)
);
}
);
};
layerId = "3D86ED3E-BC30-4996-8F23-7FA448982149";
shapes = (
{
ref = ae;
},
{
pos = (970,0);
ref = acutecomb;
}
);
width = 2752;
}
);
unicode = 509;
},
{
glyphname = aemacron;
lastChange = "2023-05-03 13:40:50 +0000";
layers = (
{
background = {
shapes = (
{
closed = 1;
nodes = (
(1007,669,o),
(1163,656,o),
(1301,620,c),
(1244,448,l),
(1247,977,o),
(1242,1014,o),
(813,1014,cs),
(386,1014,o),
(369,986,o),
(369,842,c),
(177,842,l),
(177,1131,o),
(312,1174,o),
(813,1174,cs),
(1352,1174,o),
(1436,1062,o),
(1436,554,cs),
(1436,0,l),
(1244,0,l),
(1244,224,l),
(1311,211,l),
(1259,41,o),
(1190,-22,o),
(736,-22,cs),
(321,-22,o),
(129,13,o),
(129,321,cs),
(129,634,o),
(302,669,o),
(736,669,cs)
);
},
{
closed = 1;
nodes = (
(736,134,cs),
(1193,134,o),
(1244,139,o),
(1244,330,c),
(1244,507,l),
(736,513,l),
(375,513,o),
(321,500,o),
(321,321,cs),
(321,147,o),
(375,134,o)
);
},
{
closed = 1;
nodes = (
(1656,1105,o),
(1837,1174,o),
(2353,1174,c),
(2353,1014,l),
(1877,1014,o),
(1848,962,o),
(1848,582,c),
(1656,582,l)
);
},
{
closed = 1;
nodes = (
(1882,138,o),
(2358,138,c),
(2358,-22,l),
(1842,-22,o),
(1656,43,o),
(1656,582,c),
(1848,582,l),
(1848,186,o)
);
},
{
closed = 1;
nodes = (
(2823,597,l),
(2823,770,l),
(2823,963,o),
(2763,1014,o),
(2353,1014,c),
(2353,1174,l),
(2795,1174,o),
(3007,1105,o),
(3007,770,c),
(3007,597,l)
);
},
{
closed = 1;
nodes = (
(3007,-2,o),
(2808,-22,o),
(2358,-22,c),
(2358,138,l),
(2764,138,o),
(2828,157,o),
(2828,342,c),
(3007,342,l)
);
},
{
closed = 1;
nodes = (
(3007,523,l),
(1758,523,l),
(1758,674,l),
(3007,674,l)
);
},
{
closed = 1;
nodes = (
(1249,1403,l),
(2017,1403,l),
(2017,1243,l),
(1249,1243,l)
);
}
);
};
layerId = "3D86ED3E-BC30-4996-8F23-7FA448982149";
shapes = (
{
ref = ae;
},
{
pos = (874,0);
ref = macroncomb;
}
);
width = 2752;
}
);
unicode = 483;
},
{
glyphname = b;
kernLeft = l;
lastChange = "2023-05-19 11:58:04 +0000";
layers = (
{
anchors = (
{
name = bottom;
pos = (819,0);
},
{
name = center;
pos = (819,576);
},
{
name = top;
pos = (834,1407);
}
);
background = {
shapes = (
{
closed = 1;
nodes = (
(132,0,l),
(132,1536,l),
(324,1536,l),
(324,0,l)
);
},
{
closed = 1;
nodes = (
(225,1105,o),
(421,1174,o),
(837,1174,c),
(837,1014,l),
(403,1014,o),
(324,962,o),
(324,582,c),
(225,582,l)
);
},
{
closed = 1;
nodes = (
(403,138,o),
(837,138,c),
(837,-22,l),
(421,-22,o),
(225,43,o),
(225,582,c),
(324,582,l),
(324,186,o)
);
},
{
closed = 1;
nodes = (
(1313,1014,o),
(837,1014,c),
(837,1174,l),
(1353,1174,o),
(1542,1105,o),
(1542,582,c),
(1350,582,l),
(1350,962,o)
);
},
{
closed = 1;
nodes = (
(1542,43,o),
(1353,-22,o),
(837,-22,c),
(837,138,l),
(1313,138,o),
(1350,186,o),
(1350,582,c),
(1542,582,l)
);
}
);
};
layerId = "3D86ED3E-BC30-4996-8F23-7FA448982149";
shapes = (
{
closed = 1;
nodes = (
(1353,-22,o),
(1542,43,o),
(1542,582,cs),
(1542,1105,o),
(1353,1174,o),
(837,1174,cs),
(590,1174,o),
(421,1150,o),
(324,1021,c),
(324,1536,l),
(132,1536,l),
(132,0,l),
(324,0,l),
(324,132,l),
(421,1,o),
(590,-22,o),
(837,-22,cs)
);
},
{
closed = 1;
nodes = (
(1350,186,o),
(1313,138,o),
(837,138,cs),
(403,138,o),
(324,186,o),
(324,582,cs),
(324,962,o),
(403,1014,o),
(837,1014,cs),
(1313,1014,o),
(1350,962,o),
(1350,582,cs)
);
}
);
width = 1638;
}
);
unicode = 98;
},
{
glyphname = bdotaccent;
kernLeft = l;
lastChange = "2023-05-19 11:58:04 +0000";
layers = (
{
background = {
shapes = (
{
closed = 1;
nodes = (
(132,0,l),
(132,1536,l),
(324,1536,l),
(324,0,l)
);
},
{
closed = 1;
nodes = (
(225,1105,o),
(421,1174,o),
(837,1174,c),
(837,1014,l),
(403,1014,o),
(324,962,o),
(324,582,c),
(225,582,l)
);
},
{
closed = 1;
nodes = (
(403,138,o),
(837,138,c),
(837,-22,l),
(421,-22,o),
(225,43,o),
(225,582,c),
(324,582,l),
(324,186,o)
);
},
{
closed = 1;
nodes = (
(1313,1014,o),
(837,1014,c),
(837,1174,l),
(1353,1174,o),
(1542,1105,o),
(1542,582,c),
(1350,582,l),
(1350,962,o)
);
},
{
closed = 1;
nodes = (
(1542,43,o),
(1353,-22,o),
(837,-22,c),
(837,138,l),
(1313,138,o),
(1350,186,o),
(1350,582,c),
(1542,582,l)
);
},
{
closed = 1;
nodes = (
(928,1658,l),
(736,1658,l),
(736,1850,l),
(928,1850,l)
);
}
);
};
layerId = "3D86ED3E-BC30-4996-8F23-7FA448982149";
shapes = (
{
ref = b;
},
{
pos = (610,255);
ref = dotaccentcomb;
}
);
width = 1638;
}
);
unicode = 7683;
},
{
glyphname = c;
lastChange = "2023-05-03 13:39:14 +0000";
layers = (
{
anchors = (
{
name = bottom;
pos = (786,0);
},
{
name = top;
pos = (786,1152);
}
);
background = {
shapes = (
{
closed = 1;
nodes = (
(96,1105,o),
(285,1174,o),
(801,1174,c),
(801,1014,l),
(325,1014,o),
(288,962,o),
(288,582,c),
(96,582,l)
);
},
{
closed = 1;
nodes = (
(325,138,o),
(801,138,c),
(801,-22,l),
(285,-22,o),
(96,43,o),
(96,582,c),
(288,582,l),
(288,186,o)
);
},
{
closed = 1;
nodes = (
(1291,982,o),
(1197,1014,o),
(801,1014,c),
(801,1174,l),
(1263,1174,o),
(1475,1124,o),
(1475,789,c),
(1291,789,l)
);
},
{
closed = 1;
nodes = (
(1475,26,o),
(1268,-22,o),
(801,-22,c),
(801,138,l),
(1204,138,o),
(1291,169,o),
(1291,384,c),
(1475,384,l)
);
}
);
};
layerId = "3D86ED3E-BC30-4996-8F23-7FA448982149";
shapes = (
{
closed = 1;
nodes = (
(1268,-22,o),
(1475,26,o),
(1475,384,c),
(1291,384,l),
(1291,169,o),
(1204,138,o),
(801,138,cs),
(325,138,o),
(288,186,o),
(288,582,cs),
(288,962,o),
(325,1014,o),
(801,1014,cs),
(1197,1014,o),
(1291,982,o),
(1291,789,c),
(1475,789,l),
(1475,1124,o),
(1263,1174,o),
(801,1174,cs),
(285,1174,o),
(96,1105,o),
(96,582,cs),
(96,43,o),
(285,-22,o),
(801,-22,cs)
);
}
);
width = 1571;
}
);
unicode = 99;
},
{
glyphname = cacute;
lastChange = "2023-04-26 14:41:37 +0000";
layers = (
{
background = {
shapes = (
{
closed = 1;
nodes = (
(751,1307,l),
(687,1403,l),
(1263,1883,l),
(1391,1691,l)
);
},
{
closed = 1;
nodes = (
(96,1105,o),
(285,1174,o),
(801,1174,c),
(801,1014,l),
(325,1014,o),
(288,962,o),
(288,582,c),
(96,582,l)
);
},
{
closed = 1;
nodes = (
(325,138,o),
(801,138,c),
(801,-22,l),
(285,-22,o),
(96,43,o),
(96,582,c),
(288,582,l),
(288,186,o)
);
},
{
closed = 1;
nodes = (
(1291,982,o),
(1197,1014,o),
(801,1014,c),
(801,1174,l),
(1263,1174,o),
(1475,1124,o),
(1475,789,c),
(1291,789,l)
);
},
{
closed = 1;
nodes = (
(1475,26,o),
(1268,-22,o),
(801,-22,c),
(801,138,l),
(1204,138,o),
(1291,169,o),
(1291,384,c),
(1475,384,l)
);
}
);
};
layerId = "3D86ED3E-BC30-4996-8F23-7FA448982149";
shapes = (
{
ref = c;
},
{
pos = (370,0);
ref = acutecomb;
}
);
width = 1571;
}
);
unicode = 263;
},
{
glyphname = ccaron;
lastChange = "2023-04-26 14:42:36 +0000";
layers = (
{
background = {
shapes = (
{
closed = 1;
nodes = (
(96,1105,o),
(285,1174,o),
(801,1174,c),
(801,1014,l),
(325,1014,o),
(288,962,o),
(288,582,c),
(96,582,l)
);
},
{
closed = 1;
nodes = (
(325,138,o),
(801,138,c),
(801,-22,l),
(285,-22,o),
(96,43,o),
(96,582,c),
(288,582,l),
(288,186,o)
);
},
{
closed = 1;
nodes = (
(1291,982,o),
(1197,1014,o),
(801,1014,c),
(801,1174,l),
(1263,1174,o),
(1475,1124,o),
(1475,789,c),
(1291,789,l)
);
},
{
closed = 1;
nodes = (
(1475,26,o),
(1268,-22,o),
(801,-22,c),
(801,138,l),
(1204,138,o),
(1291,169,o),
(1291,384,c),
(1475,384,l)
);
},
{
closed = 1;
nodes = (
(1121,1820,l),
(1249,1724,l),
(929,1244,l),
(737,1244,l),
(417,1724,l),
(545,1820,l),
(833,1372,l)
);
}
);
};
layerId = "3D86ED3E-BC30-4996-8F23-7FA448982149";
shapes = (
{
ref = c;
},
{
pos = (242,0);
ref = caroncomb;
}
);
width = 1571;
}
);
unicode = 269;
},
{
glyphname = ccedilla;
lastChange = "2023-04-26 14:44:38 +0000";
layers = (
{
background = {
shapes = (
{
closed = 1;
nodes = (
(1088,-411,o),
(1038,-465,o),
(951,-508,cs),
(904,-532,o),
(821,-544,o),
(704,-544,c),
(704,-384,l),
(779,-384,o),
(827,-380,o),
(848,-372,cs),
(876,-361,o),
(896,-336,o),
(896,-300,cs),
(896,-284,o),
(895,-272,o),
(893,-264,cs),
(886,-237,o),
(823,-224,o),
(704,-224,c),
(704,-29,l),
(443,-17,o),
(264,25,o),
(182,196,cs),
(146,272,o),
(128,388,o),
(128,544,cs),
(128,700,o),
(146,816,o),
(182,892,cs),
(222,977,o),
(293,1036,o),
(394,1070,cs),
(492,1103,o),
(638,1120,o),
(833,1120,cs),
(1080,1120,o),
(1251,1087,o),
(1345,1020,cs),
(1437,955,o),
(1473,856,o),
(1473,704,c),
(1281,704,l),
(1281,870,o),
(1250,898,o),
(1121,937,cs),
(1070,952,o),
(974,960,o),
(833,960,cs),
(664,960,o),
(544,948,o),
(473,924,cs),
(399,899,o),
(361,861,o),
(338,786,cs),
(327,750,o),
(321,669,o),
(321,544,cs),
(321,419,o),
(327,336,o),
(340,294,cs),
(374,181,o),
(477,150,o),
(618,136,cs),
(676,130,o),
(762,128,o),
(875,128,cs),
(988,128,o),
(1079,138,o),
(1148,159,cs),
(1181,169,o),
(1207,181,o),
(1225,196,cs),
(1275,237,o),
(1281,274,o),
(1281,384,c),
(1473,384,l),
(1473,232,o),
(1437,133,o),
(1345,68,cs),
(1251,1,o),
(1080,-32,o),
(833,-32,cs),
(832,-32,l),
(832,-128,l),
(1003,-128,o),
(1088,-181,o),
(1088,-288,cs)
);
}
);
};
layerId = "3D86ED3E-BC30-4996-8F23-7FA448982149";
shapes = (
{
ref = c;
},
{
pos = (579,0);
ref = cedillacomb;
}
);
width = 1571;
}
);
unicode = 231;
},
{
glyphname = ccircumflex;
lastChange = "2023-04-26 14:42:14 +0000";
layers = (
{
background = {
shapes = (
{
closed = 1;
nodes = (
(96,1105,o),
(285,1174,o),
(801,1174,c),
(801,1014,l),
(325,1014,o),
(288,962,o),
(288,582,c),
(96,582,l)
);
},
{
closed = 1;
nodes = (
(325,138,o),
(801,138,c),
(801,-22,l),
(285,-22,o),
(96,43,o),
(96,582,c),
(288,582,l),
(288,186,o)
);
},
{
closed = 1;
nodes = (
(1291,982,o),
(1197,1014,o),
(801,1014,c),
(801,1174,l),
(1263,1174,o),
(1475,1124,o),
(1475,789,c),
(1291,789,l)
);
},
{
closed = 1;
nodes = (
(1475,26,o),
(1268,-22,o),
(801,-22,c),
(801,138,l),
(1204,138,o),
(1291,169,o),
(1291,384,c),
(1475,384,l)
);
},
{
closed = 1;
nodes = (
(833,1692,l),
(545,1244,l),
(417,1340,l),
(737,1820,l),
(929,1820,l),
(1249,1340,l),
(1121,1244,l)
);
}
);
};
layerId = "3D86ED3E-BC30-4996-8F23-7FA448982149";
shapes = (
{
ref = c;
},
{
pos = (242,0);
ref = circumflexcomb;
}
);
width = 1571;
}
);
unicode = 265;
},
{
glyphname = cdotaccent;
lastChange = "2023-05-03 13:43:43 +0000";
layers = (
{
background = {
shapes = (
{
closed = 1;
nodes = (
(96,1105,o),
(285,1174,o),
(801,1174,c),
(801,1014,l),
(325,1014,o),
(288,962,o),
(288,582,c),
(96,582,l)
);
},
{
closed = 1;
nodes = (
(325,138,o),
(801,138,c),
(801,-22,l),
(285,-22,o),
(96,43,o),
(96,582,c),
(288,582,l),
(288,186,o)
);
},
{
closed = 1;
nodes = (
(1291,982,o),
(1197,1014,o),
(801,1014,c),
(801,1174,l),
(1263,1174,o),
(1475,1124,o),
(1475,789,c),
(1291,789,l)
);
},
{
closed = 1;
nodes = (
(1475,26,o),
(1268,-22,o),
(801,-22,c),
(801,138,l),
(1204,138,o),
(1291,169,o),
(1291,384,c),
(1475,384,l)
);
},
{
closed = 1;
nodes = (
(929,1244,l),
(737,1244,l),
(737,1436,l),
(929,1436,l)
);
}
);
};
layerId = "3D86ED3E-BC30-4996-8F23-7FA448982149";
shapes = (
{
ref = c;
},
{
pos = (562,0);
ref = dotaccentcomb;
}
);
width = 1571;
}
);
unicode = 267;
},
{
glyphname = d;
lastChange = "2023-05-19 11:58:35 +0000";
layers = (
{
anchors = (
{
name = bottom;
pos = (819,0);
},
{
name = center;
pos = (819,576);
},
{
name = top;
pos = (768,1340);
},
{
name = topright;
pos = (1667,1606);
}
);
background = {
shapes = (
{
closed = 1;
nodes = (
(1506,0,l),
(1314,0,l),
(1314,1536,l),
(1506,1536,l)
);
},
{
closed = 1;
nodes = (
(1235,1014,o),
(801,1014,c),
(801,1174,l),
(1217,1174,o),
(1413,1105,o),
(1413,582,c),
(1314,582,l),
(1314,962,o)
);
},
{
closed = 1;
nodes = (
(1413,43,o),
(1217,-22,o),
(801,-22,c),
(801,138,l),
(1235,138,o),
(1314,186,o),
(1314,582,c),
(1413,582,l)
);
},
{
closed = 1;
nodes = (
(96,1105,o),
(285,1174,o),
(801,1174,c),
(801,1014,l),
(325,1014,o),
(288,962,o),
(288,582,c),
(96,582,l)
);
},
{
closed = 1;
nodes = (
(325,138,o),
(801,138,c),
(801,-22,l),
(285,-22,o),
(96,43,o),
(96,582,c),
(288,582,l),
(288,186,o)
);
}
);
};
layerId = "3D86ED3E-BC30-4996-8F23-7FA448982149";
shapes = (
{
closed = 1;
nodes = (
(1048,-22,o),
(1217,1,o),
(1314,132,c),
(1314,0,l),
(1506,0,l),
(1506,1536,l),
(1314,1536,l),
(1314,1021,l),
(1217,1150,o),
(1048,1174,o),
(801,1174,cs),
(285,1174,o),
(96,1105,o),
(96,582,cs),
(96,43,o),
(285,-22,o),
(801,-22,cs)
);
},
{
closed = 1;
nodes = (
(1314,186,o),
(1235,138,o),
(801,138,cs),
(325,138,o),
(288,186,o),
(288,582,cs),
(288,962,o),
(325,1014,o),
(801,1014,cs),
(1235,1014,o),
(1314,962,o),
(1314,582,cs)
);
}
);
width = 1638;
}
);
unicode = 100;
},
{
glyphname = dcaron;
kernRight = caron;
lastChange = "2023-05-19 11:58:35 +0000";
layers = (
{
background = {
shapes = (
{
closed = 1;
nodes = (
(1943,1536,l),
(1815,1152,l),
(1687,1152,l),
(1751,1536,l)
);
},
{
closed = 1;
nodes = (
(1506,0,l),
(1314,0,l),
(1314,1536,l),
(1506,1536,l)
);
},
{
closed = 1;
nodes = (
(1235,1014,o),
(801,1014,c),
(801,1174,l),
(1217,1174,o),
(1413,1105,o),
(1413,582,c),
(1314,582,l),
(1314,962,o)
);
},
{
closed = 1;
nodes = (
(1413,43,o),
(1217,-22,o),
(801,-22,c),
(801,138,l),
(1235,138,o),
(1314,186,o),
(1314,582,c),
(1413,582,l)
);
},
{
closed = 1;
nodes = (
(96,1105,o),
(285,1174,o),
(801,1174,c),
(801,1014,l),
(325,1014,o),
(288,962,o),
(288,582,c),
(96,582,l)
);
},
{
closed = 1;
nodes = (
(325,138,o),
(801,138,c),
(801,-22,l),
(285,-22,o),
(96,43,o),
(96,582,c),
(288,582,l),
(288,186,o)
);
}
);
};
layerId = "3D86ED3E-BC30-4996-8F23-7FA448982149";
shapes = (
{
ref = d;
},
{
pos = (1520,-32);
ref = caroncomb.alt;
}
);
width = 1638;
}
);
unicode = 271;
},
{
glyphname = dcroat;
lastChange = "2023-04-26 14:46:50 +0000";
layers = (
{
background = {
shapes = (
{
closed = 1;
nodes = (
(1021,1120,o),
(1270,1093,o),
(1344,960,c),
(1344,1249,l),
(896,1249,l),
(896,1409,l),
(1344,1409,l),
(1344,1536,l),
(1536,1536,l),
(1536,1409,l),
(1664,1409,l),
(1664,1249,l),
(1536,1249,l),
(1536,0,l),
(1344,0,l),
(1344,127,l),
(1285,21,o),
(1114,-32,o),
(832,-32,cs),
(494,-32,o),
(250,19,o),
(166,265,cs),
(141,339,o),
(128,432,o),
(128,544,cs),
(128,870,o),
(236,1039,o),
(506,1093,cs),
(595,1111,o),
(686,1120,o),
(778,1120,cs)
);
},
{
closed = 1;
nodes = (
(497,132,o),
(658,128,o),
(824,128,cs),
(826,128,ls),
(1039,128,o),
(1221,128,o),
(1296,264,cs),
(1328,322,o),
(1344,415,o),
(1344,541,cs),
(1344,770,o),
(1306,895,o),
(1135,938,cs),
(1076,953,o),
(992,960,o),
(883,960,cs),
(774,960,o),
(692,958,o),
(638,954,cs),
(499,943,o),
(395,911,o),
(352,808,cs),
(330,756,o),
(320,669,o),
(320,544,cs),
(320,419,o),
(329,336,o),
(346,295,cs),
(363,254,o),
(384,223,o),
(408,204,cs)
);
}
);
};
layerId = "3D86ED3E-BC30-4996-8F23-7FA448982149";
shapes = (
{
closed = 1;
nodes = (
(1114,-32,o),
(1285,21,o),
(1344,127,c),
(1344,0,l),
(1536,0,l),
(1536,1249,l),
(1664,1249,l),
(1664,1409,l),
(1536,1409,l),
(1536,1536,l),
(1344,1536,l),
(1344,1409,l),
(896,1409,l),
(896,1249,l),
(1344,1249,l),
(1344,960,l),
(1270,1093,o),
(1021,1120,o),
(778,1120,cs),
(686,1120,o),
(595,1111,o),
(506,1093,cs),
(236,1039,o),
(128,870,o),
(128,544,cs),
(128,432,o),
(141,339,o),
(166,265,cs),
(250,19,o),
(494,-32,o),
(832,-32,cs)
);
},
{
closed = 1;
nodes = (
(658,128,o),
(497,132,o),
(408,204,cs),
(384,223,o),
(363,254,o),
(346,295,cs),
(329,336,o),
(320,419,o),
(320,544,cs),
(320,669,o),
(330,756,o),
(352,808,cs),
(395,911,o),
(499,943,o),
(638,954,cs),
(692,958,o),
(774,960,o),
(883,960,cs),
(992,960,o),
(1076,953,o),
(1135,938,cs),
(1306,895,o),
(1344,770,o),
(1344,541,cs),
(1344,415,o),
(1328,322,o),
(1296,264,cs),
(1221,128,o),
(1039,128,o),
(826,128,cs),
(824,128,ls)
);
}
);
width = 1664;
}
);
unicode = 273;
},
{
glyphname = ddotaccent;
lastChange = "2023-05-03 13:43:43 +0000";
layers = (
{
background = {
shapes = (
{
closed = 1;
nodes = (
(1506,0,l),
(1314,0,l),
(1314,1536,l),
(1506,1536,l)
);
},
{
closed = 1;
nodes = (
(1235,1014,o),
(801,1014,c),
(801,1174,l),
(1217,1174,o),
(1413,1105,o),
(1413,582,c),
(1314,582,l),
(1314,962,o)
);
},
{
closed = 1;
nodes = (
(1413,43,o),
(1217,-22,o),
(801,-22,c),
(801,138,l),
(1235,138,o),
(1314,186,o),
(1314,582,c),
(1413,582,l)
);
},
{
closed = 1;
nodes = (
(96,1105,o),
(285,1174,o),
(801,1174,c),
(801,1014,l),
(325,1014,o),
(288,962,o),
(288,582,c),
(96,582,l)
);
},
{
closed = 1;
nodes = (
(325,138,o),
(801,138,c),
(801,-22,l),
(285,-22,o),
(96,43,o),
(96,582,c),
(288,582,l),
(288,186,o)
);
},
{
closed = 1;
nodes = (
(896,1658,l),
(704,1658,l),
(704,1850,l),
(896,1850,l)
);
}
);
};
layerId = "3D86ED3E-BC30-4996-8F23-7FA448982149";
shapes = (
{
ref = d;
},
{
pos = (544,188);
ref = dotaccentcomb;
}
);
width = 1638;
}
);
unicode = 7691;
},
{
glyphname = dz;
lastChange = "2023-04-26 14:12:31 +0000";
layers = (
{
background = {
shapes = (
{
closed = 1;
nodes = (
(1506,0,l),
(1314,0,l),
(1314,1536,l),
(1506,1536,l)
);
},
{
closed = 1;
nodes = (
(1235,1014,o),
(801,1014,c),
(801,1174,l),
(1217,1174,o),
(1413,1105,o),
(1413,582,c),
(1314,582,l),
(1314,962,o)
);
},
{
closed = 1;
nodes = (
(1413,43,o),
(1217,-22,o),
(801,-22,c),
(801,138,l),
(1235,138,o),
(1314,186,o),
(1314,582,c),
(1413,582,l)
);
},
{
closed = 1;
nodes = (
(96,1105,o),
(285,1174,o),
(801,1174,c),
(801,1014,l),
(325,1014,o),
(288,962,o),
(288,582,c),
(96,582,l)
);
},
{
closed = 1;
nodes = (
(325,138,o),
(801,138,c),
(801,-22,l),
(285,-22,o),
(96,43,o),
(96,582,c),
(288,582,l),
(288,186,o)
);
},
{
closed = 1;
nodes = (
(2982,1152,l),
(2982,992,l),
(2020,143,l),
(2982,143,l),
(2982,0,l),
(1766,0,l),
(1766,160,l),
(2742,1011,l),
(1830,1011,l),
(1830,1152,l)
);
}
);
};
layerId = "3D86ED3E-BC30-4996-8F23-7FA448982149";
shapes = (
{
ref = d;
},
{
pos = (1638,0);
ref = z;
}
);
width = 3110;
}
);
unicode = 499;
},
{
glyphname = dzcaron;
lastChange = "2023-04-26 14:12:31 +0000";
layers = (
{
background = {
shapes = (
{
closed = 1;
nodes = (
(2688,1856,l),
(2816,1760,l),
(2496,1280,l),
(2304,1280,l),
(1984,1760,l),
(2112,1856,l),
(2400,1408,l)
);
},
{
closed = 1;
nodes = (
(1538,0,l),
(1346,0,l),
(1346,1536,l),
(1538,1536,l)
);
},
{
closed = 1;
nodes = (
(1267,1014,o),
(833,1014,c),
(833,1174,l),
(1249,1174,o),
(1445,1105,o),
(1445,582,c),
(1346,582,l),
(1346,962,o)
);
},
{
closed = 1;
nodes = (
(1445,43,o),
(1249,-22,o),
(833,-22,c),
(833,138,l),
(1267,138,o),
(1346,186,o),
(1346,582,c),
(1445,582,l)
);
},
{
closed = 1;
nodes = (
(128,1105,o),
(317,1174,o),
(833,1174,c),
(833,1014,l),
(357,1014,o),
(320,962,o),
(320,582,c),
(128,582,l)
);
},
{
closed = 1;
nodes = (
(357,138,o),
(833,138,c),
(833,-22,l),
(317,-22,o),
(128,43,o),
(128,582,c),
(320,582,l),
(320,186,o)
);
},
{
closed = 1;
nodes = (
(3008,1152,l),
(3008,992,l),
(2046,143,l),
(3008,143,l),
(3008,0,l),
(1792,0,l),
(1792,160,l),
(2768,1011,l),
(1856,1011,l),
(1856,1152,l)
);
}
);
};
layerId = "3D86ED3E-BC30-4996-8F23-7FA448982149";
shapes = (
{
ref = d;
},
{
pos = (1638,0);
ref = zcaron;
}
);
width = 3110;
}
);
unicode = 454;
},
{
glyphname = eth;
lastChange = "2023-04-26 14:46:50 +0000";
layers = (
{
anchors = (
{
name = bottom;
pos = (992,0);
},
{
name = top;
pos = (992,1638);
}
);
background = {
shapes = (
{
closed = 1;
nodes = (
(1856,677,o),
(1854,595,o),
(1852,520,cs),
(1845,297,o),
(1793,134,o),
(1648,54,cs),
(1544,-4,o),
(1378,-32,o),
(1152,-32,cs),
(831,-32,ls),
(556,-32,o),
(367,8,o),
(264,88,cs),
(165,165,o),
(128,278,o),
(128,448,cs),
(128,528,o),
(138,598,o),
(157,658,cs),
(227,876,o),
(495,928,o),
(794,928,cs),
(913,928,o),
(1010,928,o),
(1083,926,cs),
(1380,919,o),
(1574,888,o),
(1664,832,c),
(1664,957,o),
(1653,1059,o),
(1631,1136,c),
(1324,1026,l),
(1281,1146,l),
(1579,1253,l),
(1526,1331,o),
(1463,1363,o),
(1351,1388,cs),
(1292,1401,o),
(1183,1408,o),
(1024,1408,cs),
(820,1408,o),
(668,1395,o),
(566,1369,cs),
(516,1356,o),
(477,1341,o),
(448,1324,cs),
(380,1283,o),
(352,1238,o),
(352,1120,c),
(193,1120,l),
(193,1224,o),
(213,1306,o),
(252,1364,cs),
(375,1547,o),
(693,1568,o),
(1006,1568,cs),
(1112,1568,o),
(1203,1563,o),
(1278,1553,cs),
(1497,1524,o),
(1650,1443,o),
(1739,1311,c),
(2004,1406,l),
(2047,1286,l),
(1796,1196,l),
(1836,1090,o),
(1856,947,o),
(1856,768,cs)
);
},
{
closed = 1;
nodes = (
(422,723,o),
(381,696,o),
(346,632,cs),
(328,600,o),
(320,538,o),
(320,448,cs),
(320,244,o),
(364,188,o),
(524,148,cs),
(578,135,o),
(680,128,o),
(831,128,cs),
(1152,128,ls),
(1328,128,o),
(1474,132,o),
(1566,200,cs),
(1648,261,o),
(1664,364,o),
(1664,514,cs),
(1664,595,o),
(1647,651,o),
(1613,682,cs),
(1561,730,o),
(1478,744,o),
(1376,754,cs),
(1233,768,o),
(1045,768,o),
(876,768,cs),
(868,768,ls),
(821,768,ls),
(686,768,o),
(601,767,o),
(500,742,cs)
);
}
);
};
layerId = "3D86ED3E-BC30-4996-8F23-7FA448982149";
shapes = (
{
closed = 1;
nodes = (
(1152,-32,ls),
(1378,-32,o),
(1544,-4,o),
(1648,54,cs),
(1793,134,o),
(1845,297,o),
(1852,520,cs),
(1854,595,o),
(1856,677,o),
(1856,768,cs),
(1856,947,o),
(1836,1090,o),
(1796,1196,c),
(2047,1286,l),
(2004,1406,l),
(1739,1311,l),
(1650,1443,o),
(1497,1524,o),
(1278,1553,cs),
(1203,1563,o),
(1112,1568,o),
(1006,1568,cs),
(693,1568,o),
(375,1547,o),
(252,1364,cs),
(213,1306,o),
(193,1224,o),
(193,1120,c),
(352,1120,l),
(352,1238,o),
(380,1283,o),
(448,1324,cs),
(477,1341,o),
(516,1356,o),
(566,1369,cs),
(668,1395,o),
(820,1408,o),
(1024,1408,cs),
(1183,1408,o),
(1292,1401,o),
(1351,1388,cs),
(1463,1363,o),
(1526,1331,o),
(1579,1253,c),
(1281,1146,l),
(1324,1026,l),
(1631,1136,l),
(1653,1059,o),
(1664,957,o),
(1664,832,c),
(1574,888,o),
(1380,919,o),
(1083,926,cs),
(1010,928,o),
(913,928,o),
(794,928,cs),
(495,928,o),
(227,876,o),
(157,658,cs),
(138,598,o),
(128,528,o),
(128,448,cs),
(128,278,o),
(165,165,o),
(264,88,cs),
(367,8,o),
(556,-32,o),
(831,-32,cs)
);
},
{
closed = 1;
nodes = (
(680,128,o),
(578,135,o),
(524,148,cs),
(364,188,o),
(320,244,o),
(320,448,cs),
(320,538,o),
(328,600,o),
(346,632,cs),
(381,696,o),
(422,723,o),
(500,742,cs),
(601,767,o),
(686,768,o),
(821,768,cs),
(868,768,ls),
(876,768,ls),
(1045,768,o),
(1233,768,o),
(1376,754,cs),
(1478,744,o),
(1561,730,o),
(1613,682,cs),
(1647,651,o),
(1664,595,o),
(1664,514,cs),
(1664,364,o),
(1648,261,o),
(1566,200,cs),
(1474,132,o),
(1328,128,o),
(1152,128,cs),
(831,128,ls)
);
}
);
width = 1984;
}
);
unicode = 240;
},
{
glyphname = e;
lastChange = "2023-04-26 14:48:03 +0000";
layers = (
{
anchors = (
{
name = bottom;
pos = (784,0);
},
{
name = ogonek;
pos = (1063,20);
},
{
name = top;
pos = (784,1152);
}
);
background = {
shapes = (
{
closed = 1;
nodes = (
(96,1105,o),
(277,1174,o),
(793,1174,c),
(793,1014,l),
(317,1014,o),
(288,962,o),
(288,582,c),
(96,582,l)
);
},
{
closed = 1;
nodes = (
(322,138,o),
(798,138,c),
(798,-22,l),
(282,-22,o),
(96,43,o),
(96,582,c),
(288,582,l),
(288,186,o)
);
},
{
closed = 1;
nodes = (
(1263,597,l),
(1263,770,l),
(1263,963,o),
(1203,1014,o),
(793,1014,c),
(793,1174,l),
(1235,1174,o),
(1447,1105,o),
(1447,770,c),
(1447,597,l)
);
},
{
closed = 1;
nodes = (
(1447,-2,o),
(1248,-22,o),
(798,-22,c),
(798,138,l),
(1204,138,o),
(1268,157,o),
(1268,342,c),
(1447,342,l)
);
},
{
closed = 1;
nodes = (
(1447,523,l),
(198,523,l),
(198,674,l),
(1447,674,l)
);
}
);
};
layerId = "3D86ED3E-BC30-4996-8F23-7FA448982149";
shapes = (
{
closed = 1;
nodes = (
(272,523,l),
(1447,523,l),
(1447,770,ls),
(1447,1105,o),
(1235,1174,o),
(793,1174,cs),
(277,1174,o),
(96,1105,o),
(96,582,cs),
(96,43,o),
(282,-22,o),
(798,-22,cs),
(1248,-22,o),
(1447,-2,o),
(1447,342,c),
(1268,342,l),
(1268,157,o),
(1204,138,o),
(798,138,cs),
(337,138,o),
(289,183,o),
(289,545,cs),
(289,654,ls),
(289,969,o),
(349,1014,o),
(793,1014,cs),
(1203,1014,o),
(1263,963,o),
(1263,770,cs),
(1263,674,l),
(272,674,l)
);
}
);
width = 1567;
}
);
unicode = 101;
},
{
glyphname = eacute;
lastChange = "2023-04-26 14:41:37 +0000";
layers = (
{
background = {
shapes = (
{
closed = 1;
nodes = (
(512,1280,l),
(448,1376,l),
(1024,1856,l),
(1152,1664,l)
);
},
{
closed = 1;
nodes = (
(128,1105,o),
(309,1174,o),
(825,1174,c),
(825,1014,l),
(349,1014,o),
(320,962,o),
(320,582,c),
(128,582,l)
);
},
{
closed = 1;
nodes = (
(354,138,o),
(830,138,c),
(830,-22,l),
(314,-22,o),
(128,43,o),
(128,582,c),
(320,582,l),
(320,186,o)
);
},
{
closed = 1;
nodes = (
(1295,597,l),
(1295,770,l),
(1295,963,o),
(1235,1014,o),
(825,1014,c),
(825,1174,l),
(1267,1174,o),
(1479,1105,o),
(1479,770,c),
(1479,597,l)
);
},
{
closed = 1;
nodes = (
(1479,-2,o),
(1280,-22,o),
(830,-22,c),
(830,138,l),
(1236,138,o),
(1300,157,o),
(1300,342,c),
(1479,342,l)
);
},
{
closed = 1;
nodes = (
(1479,523,l),
(230,523,l),
(230,674,l),
(1479,674,l)
);
}
);
};
layerId = "3D86ED3E-BC30-4996-8F23-7FA448982149";
shapes = (
{
ref = e;
},
{
pos = (368,0);
ref = acutecomb;
}
);
width = 1567;
}
);
unicode = 233;
},
